<svg width="16" height="16" viewBox="0 0 16 16" fill="none" xmlns="http://www.w3.org/2000/svg">
<path fill-rule="evenodd" clip-rule="evenodd" d="M7.64669 5.14665C7.74044 5.05301 7.86752 5.00042 8.00002 5.00042C8.13252 5.00042 8.2596 5.05301 8.35335 5.14665L13.3534 10.1466C13.4417 10.2414 13.4898 10.3668 13.4875 10.4963C13.4852 10.6259 13.4327 10.7495 13.3411 10.8411C13.2495 10.9327 13.1259 10.9851 12.9964 10.9874C12.8668 10.9897 12.7415 10.9416 12.6467 10.8533L8.00002 6.20665L3.35335 10.8533C3.30758 10.9024 3.25238 10.9418 3.19105 10.9692C3.12971 10.9965 3.0635 11.0112 2.99637 11.0124C2.92923 11.0136 2.86255 11.0012 2.80029 10.9761C2.73803 10.9509 2.68147 10.9135 2.634 10.866C2.58652 10.8185 2.54909 10.762 2.52394 10.6997C2.49879 10.6375 2.48644 10.5708 2.48763 10.5036C2.48881 10.4365 2.5035 10.3703 2.53083 10.309C2.55816 10.2476 2.59756 10.1924 2.64669 10.1466L7.64669 5.14665Z" fill="#161559"/>
</svg>
