<svg width="18" height="18" viewBox="0 0 24 24" fill="none" xmlns="http://www.w3.org/2000/svg">
<path fill-rule="evenodd" clip-rule="evenodd" d="M16.28 11.4699C16.4205 11.6105 16.4994 11.8012 16.4994 11.9999C16.4994 12.1987 16.4205 12.3893 16.28 12.5299L8.78003 20.0299C8.63786 20.1624 8.44981 20.2345 8.25551 20.2311C8.06121 20.2277 7.87582 20.1489 7.73841 20.0115C7.601 19.8741 7.52228 19.6887 7.51886 19.4944C7.51543 19.3001 7.58755 19.1121 7.72003 18.9699L14.69 11.9999L7.72003 5.02991C7.64634 4.96125 7.58724 4.87845 7.54625 4.78645C7.50526 4.69445 7.48322 4.59513 7.48144 4.49443C7.47966 4.39373 7.49819 4.2937 7.53591 4.20031C7.57363 4.10692 7.62977 4.02209 7.70099 3.95087C7.77221 3.87965 7.85705 3.82351 7.95043 3.78578C8.04382 3.74806 8.14385 3.72954 8.24455 3.73132C8.34526 3.73309 8.44457 3.75513 8.53657 3.79613C8.62857 3.83712 8.71137 3.89622 8.78003 3.96991L16.28 11.4699Z" fill="#02131C"/>
</svg>
