<svg width="24" height="24" viewBox="0 0 24 24" fill="none" xmlns="http://www.w3.org/2000/svg">
<g clip-path="url(#clip0_726_7896)">
<path d="M14.7052 5.02909C14.9052 5.02909 15.0689 4.86546 15.0689 4.66546C15.0689 4.46546 14.9052 4.30182 14.7052 4.30182H8.10523C7.90523 4.30182 7.74159 4.46546 7.74159 4.66546C7.74159 4.86546 7.90523 5.02909 8.10523 5.02909H14.7052ZM4.73795 8.33455C4.73795 8.53455 4.90159 8.69818 5.10159 8.69818H17.7089C17.9089 8.69818 18.0725 8.53455 18.0725 8.33455C18.0725 8.13455 17.9089 7.97091 17.7089 7.97091H5.10159C4.90159 7.97091 4.73795 8.13091 4.73795 8.33455ZM7.40341 14.76V12.4982C7.40341 12.2982 7.23977 12.1345 7.03977 12.1345H1.67614C1.47614 12.1345 1.3125 12.2982 1.3125 12.4982V14.76C1.3125 14.96 1.47614 15.1236 1.67614 15.1236H7.04341C7.24341 15.1236 7.40341 14.96 7.40341 14.76ZM6.67614 14.3964H2.03977V12.8618H6.67977V14.3964H6.67614ZM7.22523 16.5564C7.22523 16.1964 6.93068 15.9055 6.57068 15.9055H5.29068C4.93068 15.9055 4.63977 16.1964 4.63977 16.5564V17.8364C4.63977 18.1964 4.93068 18.4909 5.29068 18.4909H6.57068C6.93068 18.4909 7.22523 18.1964 7.22523 17.8364V16.5564ZM6.49796 17.7636H5.36705V16.6327H6.49796V17.7636ZM3.42523 19.2691H2.14886C1.78886 19.2691 1.49432 19.5636 1.49432 19.9236V21.2C1.49432 21.56 1.78886 21.8545 2.14886 21.8545H3.42523C3.78523 21.8545 4.07977 21.56 4.07977 21.2V19.9236C4.07977 19.56 3.78523 19.2691 3.42523 19.2691ZM3.3525 21.1273H2.22159V19.9964H3.3525V21.1273ZM4.07977 16.5564C4.07977 16.1964 3.78523 15.9055 3.42523 15.9055H2.14886C1.78886 15.9055 1.49432 16.1964 1.49432 16.5564V17.8364C1.49432 18.1964 1.78886 18.4909 2.14886 18.4909H3.42523C3.78523 18.4909 4.07977 18.1964 4.07977 17.8364V16.5564ZM3.3525 17.7636H2.22159V16.6327H3.3525V17.7636ZM6.57068 19.2691H5.29068C4.93068 19.2691 4.63977 19.5636 4.63977 19.9236V21.2C4.63977 21.56 4.93068 21.8545 5.29068 21.8545H6.57068C6.93068 21.8545 7.22523 21.56 7.22523 21.2V19.9236C7.22523 19.56 6.93068 19.2691 6.57068 19.2691ZM6.49796 21.1273H5.36705V19.9964H6.49796V21.1273Z" fill="#161559"/>
<path d="M23.9167 4.58184C23.8552 4.35375 23.7494 4.14002 23.6052 3.95284C23.4611 3.76566 23.2815 3.6087 23.0767 3.49093C22.6625 3.25348 22.1709 3.1902 21.7099 3.31497C21.249 3.43974 20.8565 3.74237 20.6186 4.15638L20.0076 5.22184V5.22547L19.9822 5.26911V2.12365C19.9822 1.42184 19.4113 0.84729 18.7095 0.84729H4.10946C3.40765 0.84729 2.8331 1.4182 2.8331 2.12365V9.6982C2.8331 9.8982 2.99674 10.0618 3.19674 10.0618C3.39674 10.0618 3.56037 9.8982 3.56037 9.6982V2.12365C3.56037 1.82184 3.80765 1.57456 4.10946 1.57456H18.7058C19.0076 1.57456 19.2513 1.82184 19.2513 2.12365V6.54184L16.3313 11.6364H8.66946C8.61782 11.4096 8.49081 11.207 8.30919 11.0617C8.12757 10.9164 7.90205 10.837 7.66946 10.8364H1.04765C0.480373 10.8364 0.0185547 11.2982 0.0185547 11.8655V17.8327C0.0185547 18.0327 0.182191 18.1964 0.382191 18.1964C0.582191 18.1964 0.745827 18.0327 0.745827 17.8327V11.8655C0.745827 11.6982 0.880373 11.5637 1.04765 11.5637H7.66583C7.8331 11.5637 7.96765 11.6982 7.96765 11.8655V22.1164C7.96765 22.2837 7.8331 22.4218 7.66583 22.4218H1.04765C0.880373 22.4218 0.745827 22.2837 0.745827 22.1164V19.6291C0.745827 19.4291 0.582191 19.2655 0.382191 19.2655C0.182191 19.2655 0.0185547 19.4291 0.0185547 19.6291V22.1164C0.0185547 22.6837 0.480373 23.1491 1.04765 23.1491H18.7058C19.4076 23.1491 19.9786 22.5782 19.9786 21.8727V18.92C19.9786 18.72 19.8149 18.5564 19.6149 18.5564C19.4149 18.5564 19.2513 18.72 19.2513 18.92V21.8727C19.2513 22.1746 19.0076 22.4218 18.7058 22.4218H8.64765C8.67674 22.3237 8.69855 22.2255 8.69855 22.1164V19.6946H17.7095C17.9095 19.6946 18.0731 19.5309 18.0731 19.3309C18.0731 19.1309 17.9095 18.9673 17.7095 18.9673H8.69855V16.0291H16.0949C16.0986 16.0291 16.1058 16.0255 16.1095 16.0255C16.1458 16.0255 16.1822 16.0146 16.2186 16.0037L16.2622 15.9818C16.2767 15.9746 16.2876 15.9709 16.3022 15.9637L19.0658 14.0327L19.0731 14.0255C19.0804 14.0218 19.084 14.0146 19.0876 14.0109C19.1167 13.9855 19.1422 13.9564 19.1604 13.9273L19.1713 13.9164L19.2513 13.7782V17.3527C19.2513 17.5527 19.4149 17.7164 19.6149 17.7164C19.8149 17.7164 19.9786 17.5527 19.9786 17.3527V12.5127L23.1313 7.01456V7.01093L23.7422 5.94547C23.9822 5.53093 24.044 5.04365 23.9167 4.58184ZM8.69855 12.3637H15.9967L15.7604 15.3018H8.69855V12.3637ZM16.5167 14.9273L16.6804 12.9091L16.9458 13.0618L18.1786 13.7673L16.5167 14.9273ZM18.724 13.24L16.8622 12.1709L20.4586 5.8982L22.3204 6.96729L18.724 13.24ZM23.1095 5.58547L22.6767 6.3382L20.8149 5.26911L21.244 4.52002C21.5386 4.00729 22.1967 3.82911 22.7095 4.12365C23.2258 4.41456 23.404 5.07274 23.1095 5.58547Z" fill="#161559"/>
</g>
<defs>
<clipPath id="clip0_726_7896">
<rect width="24" height="24" fill="white"/>
</clipPath>
</defs>
</svg>
