<svg width="24" height="24" viewBox="0 0 24 24" fill="none" xmlns="http://www.w3.org/2000/svg">
<path d="M15.1082 21.0888C15.149 21.216 15.077 21.3504 14.9522 21.3888C13.9994 21.6888 13.0082 21.84 12.0002 21.84C8.87776 21.84 6.00976 20.4072 4.13056 17.9064C2.84176 16.1928 2.16016 14.1504 2.16016 12C2.16016 9.11757 3.39376 6.43437 5.56096 4.55997H3.84016C3.70816 4.55997 3.60016 4.45197 3.60016 4.31997C3.60016 4.18797 3.70816 4.07997 3.84016 4.07997H6.24016C6.37216 4.07997 6.48016 4.18797 6.48016 4.31997V6.71997C6.48016 6.85197 6.37216 6.95997 6.24016 6.95997C6.10816 6.95997 6.00016 6.85197 6.00016 6.71997V4.82157C3.86176 6.60717 2.64016 9.20397 2.64016 12C2.64016 14.0448 3.28816 15.9888 4.51456 17.6184C6.30016 19.9968 9.02896 21.36 12.0002 21.36C12.9578 21.36 13.9034 21.216 14.8082 20.9304C14.9354 20.892 15.0698 20.9616 15.1082 21.0888ZM20.1602 19.44H18.4394C20.6066 17.5656 21.8402 14.8824 21.8402 12C21.8402 9.84957 21.1586 7.80717 19.8698 6.09357C17.9906 3.59277 15.1226 2.15997 12.0002 2.15997C10.9922 2.15997 10.001 2.31117 9.04816 2.61117C8.92096 2.65197 8.85136 2.78637 8.89216 2.91117C8.93056 3.03837 9.06496 3.10797 9.19216 3.06717C10.097 2.78397 11.0426 2.63997 12.0002 2.63997C14.9714 2.63997 17.7002 4.00317 19.4858 6.38157C20.7122 8.01117 21.3602 9.95517 21.3602 12C21.3602 14.796 20.1386 17.3928 18.0002 19.1784V17.28C18.0002 17.148 17.8922 17.04 17.7602 17.04C17.6282 17.04 17.5202 17.148 17.5202 17.28V19.68C17.5202 19.812 17.6282 19.92 17.7602 19.92H20.1602C20.2922 19.92 20.4002 19.812 20.4002 19.68C20.4002 19.548 20.2922 19.44 20.1602 19.44ZM14.6402 12C14.6402 13.4568 13.457 14.64 12.0002 14.64C10.5434 14.64 9.36016 13.4568 9.36016 12C9.36016 10.5432 10.5434 9.35997 12.0002 9.35997C13.457 9.35997 14.6402 10.5432 14.6402 12ZM14.1602 12C14.1602 10.8096 13.1906 9.83997 12.0002 9.83997C10.8098 9.83997 9.84016 10.8096 9.84016 12C9.84016 13.1904 10.8098 14.16 12.0002 14.16C13.1906 14.16 14.1602 13.1904 14.1602 12ZM17.045 15.2088C17.2514 15.54 17.2034 15.9624 16.9274 16.2384L16.2362 16.9296C15.9602 17.2056 15.5378 17.2536 15.2066 17.0472L14.4722 16.584C14.3714 16.5216 14.249 16.512 14.1458 16.56C14.0042 16.6272 13.8578 16.6872 13.709 16.7424C13.6034 16.7808 13.5218 16.8744 13.4954 16.9896L13.2986 17.8344C13.2122 18.216 12.8786 18.48 12.4898 18.48H11.5106C11.1218 18.48 10.7882 18.216 10.6994 17.8344L10.5026 16.9896C10.4762 16.8744 10.3946 16.7808 10.289 16.7424C10.1402 16.6896 9.99136 16.6272 9.84976 16.56C9.74656 16.512 9.62416 16.5192 9.52336 16.584L8.78896 17.0448C8.45776 17.2512 8.03536 17.2032 7.75936 16.9272L7.06816 16.2384C6.79216 15.9624 6.74416 15.54 6.95056 15.2088L7.40896 14.472C7.47136 14.3712 7.48096 14.2488 7.43296 14.1456C7.36576 14.0016 7.30336 13.8552 7.25056 13.7088C7.21216 13.6032 7.11856 13.5216 7.00336 13.4952L6.15856 13.3008C5.78416 13.212 5.52016 12.8784 5.52016 12.4896V11.5104C5.52016 11.1216 5.78416 10.788 6.16576 10.6992L7.01056 10.5048C7.12816 10.4784 7.21936 10.3992 7.25776 10.2912C7.31056 10.1424 7.37296 9.99597 7.44016 9.85197C7.48816 9.75117 7.47856 9.62637 7.41616 9.52557L6.95536 8.79117C6.74896 8.45997 6.79696 8.03757 7.07296 7.76157L7.76176 7.07277C8.03776 6.79677 8.46016 6.74877 8.79136 6.95517L9.52576 7.41597C9.62656 7.47837 9.74896 7.48797 9.85216 7.43997C9.99376 7.37277 10.1426 7.31037 10.2914 7.25757C10.397 7.21917 10.4786 7.12557 10.505 7.01037L10.7018 6.16317C10.7882 5.78397 11.1218 5.51997 11.5106 5.51997H12.4898C12.8786 5.51997 13.2122 5.78397 13.301 6.16557L13.4978 7.01037C13.5242 7.12557 13.6058 7.21917 13.7114 7.25757C13.8602 7.31037 14.0066 7.37277 14.1482 7.43997C14.2514 7.48797 14.3714 7.47837 14.4746 7.41597L15.2114 6.95757C15.5426 6.75117 15.965 6.79917 16.241 7.07517L16.9322 7.76637C17.2082 8.04237 17.2562 8.46477 17.0498 8.79597L16.5842 9.52797C16.5218 9.62877 16.5122 9.75357 16.5602 9.85437C16.6274 9.99597 16.6898 10.1448 16.7426 10.2936C16.781 10.3992 16.8722 10.4808 16.9898 10.5072L17.8346 10.7016C18.2162 10.788 18.4802 11.1216 18.4802 11.5104V12.4896C18.4802 12.8784 18.2162 13.212 17.8346 13.3008L16.9898 13.4952C16.8746 13.5216 16.781 13.6032 16.7426 13.7088C16.6898 13.8552 16.6298 14.004 16.5602 14.1456C16.5122 14.2488 16.5194 14.3712 16.5842 14.472L17.045 15.2088ZM16.637 15.4632L16.1762 14.7264C16.025 14.4864 16.0082 14.1912 16.1258 13.9416C16.1858 13.812 16.241 13.68 16.289 13.548C16.3826 13.2864 16.6034 13.092 16.8794 13.0296L17.7242 12.8352C17.885 12.7992 17.9978 12.6576 17.9978 12.492V11.5128C17.9978 11.3472 17.885 11.208 17.7242 11.1696L16.8794 10.9752C16.6034 10.9104 16.3826 10.7184 16.289 10.4568C16.241 10.3224 16.1858 10.1904 16.1258 10.0632C16.0058 9.81117 16.025 9.51837 16.1762 9.27597L16.637 8.54157C16.7258 8.40237 16.7042 8.22237 16.5866 8.10717L15.8954 7.41597C15.7778 7.29837 15.6002 7.27917 15.461 7.36557L14.7242 7.82637C14.4842 7.97757 14.189 7.99437 13.9394 7.87677C13.8122 7.81677 13.6778 7.76157 13.5458 7.71357C13.2842 7.61997 13.0898 7.39917 13.0274 7.12317L12.8306 6.27837C12.7946 6.11277 12.6554 5.99997 12.4898 5.99997H11.5106C11.345 5.99997 11.2058 6.11277 11.1674 6.27357L10.9706 7.12077C10.9058 7.39677 10.7138 7.61757 10.4522 7.71117C10.3178 7.75917 10.1858 7.81437 10.0586 7.87437C9.80656 7.99437 9.51376 7.97517 9.27136 7.82397L8.53696 7.36317C8.39776 7.27437 8.21776 7.29597 8.10016 7.41357L7.41136 8.10237C7.29376 8.21997 7.27456 8.39757 7.36096 8.53677L7.82176 9.27117C7.97296 9.51357 7.99216 9.80637 7.87216 10.0584C7.81216 10.1856 7.75696 10.32 7.70896 10.452C7.61536 10.7112 7.39456 10.9056 7.11856 10.9704L6.27376 11.1648C6.11296 11.2056 6.00016 11.3448 6.00016 11.5104V12.4896C6.00016 12.6552 6.11296 12.7944 6.27376 12.8328L7.11856 13.0272C7.39456 13.092 7.61536 13.284 7.70896 13.5456C7.75696 13.6776 7.81216 13.8096 7.87216 13.9392C7.98976 14.1912 7.97296 14.484 7.82176 14.724L7.36336 15.4608C7.27696 15.6 7.29616 15.78 7.41376 15.8952L8.10496 16.584C8.22256 16.7016 8.40016 16.7208 8.54176 16.6344L9.27616 16.1736C9.41296 16.0896 9.56416 16.0464 9.71776 16.0464C9.83536 16.0464 9.95296 16.0728 10.0634 16.1232C10.1906 16.1832 10.3226 16.2384 10.457 16.2864C10.7186 16.38 10.9106 16.6008 10.9754 16.8768L11.1722 17.7216C11.2082 17.8824 11.3498 17.9952 11.5154 17.9952H12.4946C12.6602 17.9952 12.7994 17.8824 12.8378 17.7216L13.0346 16.8768C13.0994 16.6008 13.2914 16.38 13.553 16.2864C13.6874 16.2384 13.8194 16.1832 13.9466 16.1232C14.1986 16.0032 14.4914 16.0224 14.7314 16.1736L15.4682 16.6344C15.6074 16.7208 15.7874 16.7016 15.9026 16.584L16.5938 15.8928C16.7042 15.78 16.7258 15.6024 16.637 15.4632Z" fill="#161559"/>
</svg>
