<svg width="24" height="24" viewBox="0 0 24 24" fill="none" xmlns="http://www.w3.org/2000/svg">
<path d="M14.5 3.00002C13.837 3.00002 13.2011 3.26341 12.7322 3.73225C12.2634 4.20109 12 4.83698 12 5.50002C12 6.16306 12.2634 6.79894 12.7322 7.26778C13.2011 7.73663 13.837 8.00002 14.5 8.00002C15.163 8.00002 15.7989 7.73663 16.2678 7.26778C16.7366 6.79894 17 6.16306 17 5.50002C17 4.83698 16.7366 4.20109 16.2678 3.73225C15.7989 3.26341 15.163 3.00002 14.5 3.00002ZM10 5.50002C9.99985 4.73407 10.1952 3.98076 10.5676 3.31142C10.94 2.64208 11.477 2.07886 12.1279 1.67511C12.7788 1.27136 13.522 1.04043 14.2871 1.00419C15.0522 0.967946 15.8139 1.1276 16.5 1.46802C17.1861 1.128 17.9476 0.968675 18.7124 1.00512C19.4773 1.04156 20.2201 1.27256 20.8708 1.67627C21.5214 2.07998 22.0583 2.64303 22.4306 3.31215C22.8029 3.98126 22.9982 4.73431 22.9982 5.50002C22.9982 6.26573 22.8029 7.01877 22.4306 7.68789C22.0583 8.35701 21.5214 8.92006 20.8708 9.32376C20.2201 9.72747 19.4773 9.95848 18.7124 9.99492C17.9476 10.0314 17.1861 9.87203 16.5 9.53202C15.8139 9.87244 15.0522 10.0321 14.2871 9.99585C13.522 9.95961 12.7788 9.72868 12.1279 9.32492C11.477 8.92117 10.94 8.35796 10.5676 7.68862C10.1952 7.01928 9.99985 6.26597 10 5.50002ZM18.25 7.98802C18.332 7.99602 18.4153 8.00002 18.5 8.00002C18.8384 7.99929 19.1731 7.92987 19.4839 7.79596C19.7946 7.66206 20.075 7.46646 20.3079 7.22102C20.5409 6.97557 20.7216 6.6854 20.8391 6.36806C20.9566 6.05073 21.0084 5.71284 20.9915 5.37488C20.9745 5.03692 20.8891 4.70591 20.7405 4.40191C20.5919 4.09792 20.3831 3.82726 20.1268 3.60634C19.8704 3.38542 19.5719 3.21883 19.2493 3.11667C18.9267 3.01451 18.5868 2.97891 18.25 3.01202C18.7392 3.74955 19.0001 4.61498 19 5.50002C19.0001 6.38506 18.7392 7.25048 18.25 7.98802ZM8.435 13.25C8.27081 13.2496 8.10814 13.2815 7.95629 13.344C7.80444 13.4064 7.66638 13.4982 7.55 13.614L5.5 15.664V19.5H11.127L16.93 18.05L20.462 16.542C20.5823 16.477 20.6744 16.3699 20.7205 16.2411C20.7667 16.1124 20.7637 15.9712 20.7122 15.8445C20.6606 15.7179 20.5641 15.6147 20.4412 15.5548C20.3182 15.4949 20.1775 15.4825 20.046 15.52L20.026 15.525L13.614 17H10V15H13.125C13.3571 15 13.5796 14.9078 13.7437 14.7437C13.9078 14.5796 14 14.3571 14 14.125C14 13.893 13.9078 13.6704 13.7437 13.5063C13.5796 13.3422 13.3571 13.25 13.125 13.25H8.435ZM15.987 14.402L19.539 13.585C19.9173 13.4855 20.3134 13.4741 20.6968 13.5515C21.0802 13.629 21.4408 13.7932 21.7509 14.0317C22.0609 14.2702 22.3122 14.5766 22.4854 14.9274C22.6586 15.2781 22.7491 15.6638 22.75 16.055C22.7496 16.5299 22.6171 16.9952 22.3674 17.3991C22.1177 17.803 21.7606 18.1295 21.336 18.342L21.309 18.356L17.569 19.951L11.373 21.5H0V14.25H4.086L6.138 12.198C6.44034 11.8967 6.79907 11.6579 7.1937 11.4952C7.58834 11.3326 8.01116 11.2493 8.438 11.25H13.125C13.5259 11.25 13.9225 11.3338 14.2891 11.4961C14.6557 11.6583 14.9843 11.8955 15.2539 12.1924C15.5234 12.4892 15.7278 12.8391 15.8541 13.2197C15.9804 13.6002 16.0256 14.0029 15.987 14.402ZM3.5 16.25H2V19.5H3.5V16.25Z" fill="#008550"/>
</svg>
