<svg width="156" height="37" viewBox="0 0 156 37" fill="none" xmlns="http://www.w3.org/2000/svg">
<path d="M103.286 24.9294C103.941 24.9294 104.584 24.8391 105.216 24.6581C105.848 24.4774 106.435 24.1719 106.977 23.7421C107.496 23.2667 108.004 23.0461 108.501 23.08C108.998 23.1142 109.41 23.2954 109.737 23.6238C110.064 23.9515 110.228 24.3585 110.228 24.8448C110.228 25.331 109.991 25.8004 109.517 26.2525C108.727 27.0217 107.79 27.559 106.706 27.8642C105.623 28.1695 104.517 28.3108 103.388 28.2886C101.627 28.2886 100.075 27.9269 98.7316 27.2032C97.3883 26.479 96.338 25.4721 95.5813 24.1827C94.8251 22.8933 94.447 21.4007 94.447 19.7046C94.447 17.8503 94.808 16.2217 95.5304 14.8194C96.2532 13.4172 97.2748 12.3204 98.5951 11.5287C99.916 10.7372 101.479 10.3413 103.286 10.3413C105.092 10.3413 106.627 10.709 107.891 11.444C109.156 12.1785 110.121 13.2074 110.787 14.5307C111.453 15.8543 111.786 17.398 111.786 19.1619C111.786 19.7271 111.673 20.2076 111.447 20.6032C111.221 20.9991 110.623 21.1969 109.653 21.1969H98.3763C98.6918 22.3056 99.2898 23.2048 100.17 23.8951C101.05 24.5848 102.089 24.9294 103.286 24.9294ZM103.32 13.6994C102.01 13.6994 100.915 14.1123 100.035 14.9377C99.1544 15.7634 98.59 16.8433 98.3416 18.1775H108.197C108.083 16.8433 107.643 15.7634 106.875 14.9377C106.108 14.1123 104.923 13.6994 103.32 13.6994Z" fill="white"/>
<path d="M123.707 10.6799C124.316 10.6799 124.802 10.8102 125.163 11.0707C125.524 11.3306 125.705 11.7544 125.705 12.3427C125.705 12.8854 125.524 13.3151 125.163 13.6321C124.802 13.9484 124.316 14.1064 123.707 14.1064C122.285 14.1064 121.286 14.6154 120.709 15.6334C120.133 16.6515 119.846 18.0315 119.846 19.7729V26.2188C119.846 26.7159 119.665 27.1289 119.304 27.4572C118.943 27.785 118.503 27.9488 117.984 27.9488C117.396 27.9488 116.922 27.785 116.561 27.4572C116.2 27.1289 116.02 26.7159 116.02 26.2188V12.41C116.02 11.8673 116.228 11.4435 116.646 11.1379C117.064 10.8327 117.51 10.6799 117.984 10.6799C118.458 10.6799 118.887 10.8273 119.271 11.1217C119.654 11.4155 119.846 11.845 119.846 12.41V12.614C120.343 11.9579 120.918 11.4717 121.573 11.1553C122.228 10.8384 122.939 10.6799 123.707 10.6799Z" fill="#1479FB"/>
<path d="M136.338 10.3413C138.008 10.3413 139.47 10.709 140.723 11.444C141.976 12.1785 142.947 13.2074 143.635 14.5307C144.324 15.8543 144.669 17.3868 144.669 19.1283C144.669 20.9373 144.324 22.5316 143.635 23.9114C142.947 25.2914 141.993 26.3659 140.774 27.1348C139.555 27.9041 138.121 28.2886 136.473 28.2886C135.705 28.2886 134.87 28.1529 133.967 27.8816C133.064 27.6097 132.241 27.2249 131.495 26.7278V31.9179C131.495 32.4837 131.298 32.9135 130.903 33.2073C130.508 33.5017 130.073 33.6491 129.599 33.6491C129.102 33.6491 128.656 33.5017 128.262 33.2073C127.866 32.9135 127.669 32.4837 127.669 31.9179V12.41C127.669 11.8673 127.844 11.4435 128.193 11.138C128.543 10.8327 129.023 10.6799 129.633 10.6799C130.649 10.6799 131.247 11.0758 131.428 11.8673C132.218 11.3024 133.042 10.9068 133.899 10.681C134.757 10.4547 135.57 10.3413 136.338 10.3413ZM136.372 24.861C137.704 24.861 138.776 24.3355 139.589 23.284C140.401 22.2321 140.808 20.858 140.808 19.1619C140.808 17.5564 140.373 16.2562 139.503 15.2612C138.634 14.2656 137.489 13.7677 136.067 13.7677C135.164 13.7677 134.284 13.9997 133.426 14.4634C132.568 14.9266 131.924 15.5879 131.495 16.4475V22.0793C131.856 22.9614 132.5 23.6455 133.426 24.1317C134.351 24.6179 135.334 24.861 136.372 24.861Z" fill="#1479FB"/>
<mask id="mask0_368_33" style="mask-type:luminance" maskUnits="userSpaceOnUse" x="92" y="8" width="22" height="16">
<path d="M92.4229 8.49829H113.915V23.0614H92.4229V8.49829Z" fill="white"/>
</mask>
<g mask="url(#mask0_368_33)">
<path d="M94.035 16.1051C93.9283 15.9513 93.823 15.7974 93.7165 15.645C93.4804 15.3085 93.264 14.9598 93.0576 14.6049C92.8355 14.224 92.6408 13.8292 92.4471 13.4333C92.4358 13.4102 92.4184 13.3885 92.4255 13.3552C92.4585 13.3438 92.4734 13.3701 92.4872 13.3896C92.7735 13.7763 93.0887 14.1401 93.4059 14.5018C93.7531 14.8955 94.1106 15.28 94.4805 15.6517C94.8437 16.0167 95.2172 16.3702 95.601 16.7135C95.9653 17.0383 96.3387 17.3517 96.7225 17.6523C97.0594 17.9163 97.4018 18.1711 97.7546 18.4131C98.2554 18.7574 98.7708 19.0776 99.3046 19.3669C99.5681 19.5093 99.8352 19.6458 100.107 19.7722C100.348 19.8846 100.592 19.9901 100.84 20.09C101.066 20.1806 101.292 20.2655 101.522 20.3415C101.67 20.3909 101.82 20.4378 101.97 20.4815C102.144 20.532 102.319 20.5721 102.491 20.6226C102.567 20.6457 102.645 20.6628 102.724 20.6766C102.999 20.726 103.273 20.7811 103.55 20.8201C103.881 20.866 104.212 20.8945 104.546 20.9119C104.809 20.9257 105.073 20.9211 105.336 20.9094C105.563 20.8991 105.789 20.8774 106.015 20.8568C106.19 20.8408 106.364 20.8096 106.538 20.7822C106.765 20.7466 106.989 20.6948 107.211 20.6351C107.357 20.5963 107.504 20.5502 107.648 20.4986C107.811 20.4389 107.972 20.3781 108.13 20.307C108.528 20.128 108.897 19.9041 109.233 19.6252C109.517 19.3888 109.763 19.1181 109.965 18.8068C110.108 18.5854 110.221 18.3488 110.307 18.0976C110.442 17.7017 110.486 17.2966 110.447 16.8833C110.433 16.7352 110.402 16.5873 110.364 16.4413C110.309 16.2338 110.234 16.0362 110.14 15.8436C110.03 15.6208 109.893 15.4165 109.737 15.2236C109.386 14.7911 108.954 14.4617 108.47 14.1941C108.171 14.0289 107.858 13.8992 107.532 13.8004C107.213 13.703 106.89 13.6295 106.56 13.579C106.1 13.509 105.64 13.5112 105.182 13.5584C104.885 13.5882 104.593 13.6604 104.305 13.7489C103.507 13.9955 102.817 14.4248 102.192 14.9712C101.652 15.4428 101.194 15.9847 100.785 16.571C100.569 16.8809 100.367 17.1989 100.191 17.534C100.163 17.5891 100.123 17.6143 100.056 17.6143C99.8225 17.6121 99.5898 17.5891 99.3574 17.5649C99.0985 17.5375 98.8453 17.4778 98.5885 17.4352C98.4845 17.4181 98.3814 17.3861 98.2793 17.3563C98.1168 17.3101 97.9518 17.2654 97.7912 17.2127C97.6276 17.1587 97.4638 17.1001 97.3034 17.0347C96.97 16.8993 96.6469 16.7433 96.3341 16.5642C95.9631 16.3507 95.6124 16.1073 95.2836 15.8319C94.9377 15.5416 94.6203 15.2214 94.334 14.8714C94.2893 14.8174 94.2812 14.7726 94.3132 14.7094C94.3557 14.6258 94.3912 14.5395 94.4703 14.4834C94.4805 14.4755 94.4965 14.4649 94.4873 14.4513C94.4518 14.3938 94.5 14.3561 94.5217 14.316C94.7625 13.8729 95.0293 13.4447 95.3307 13.0396C95.838 12.3555 96.4143 11.7345 97.0616 11.1801C97.5702 10.7441 98.1132 10.3574 98.6896 10.0188C99.0194 9.8248 99.3607 9.64925 99.7103 9.49187C99.9072 9.40369 100.105 9.31632 100.307 9.23953C100.55 9.14755 100.794 9.06153 101.044 8.988C101.201 8.94214 101.355 8.89276 101.513 8.85369C101.716 8.80214 101.923 8.75845 102.128 8.71504C102.434 8.64829 102.747 8.61953 103.055 8.56906C103.166 8.55088 103.281 8.55413 103.394 8.54382C103.751 8.50828 104.108 8.51289 104.466 8.51289C104.67 8.51289 104.872 8.53243 105.075 8.54274C105.359 8.55658 105.639 8.59782 105.919 8.63689C106.097 8.66213 106.275 8.69197 106.451 8.72996C106.653 8.77337 106.853 8.82059 107.053 8.87214C107.276 8.92831 107.496 8.99506 107.715 9.06506C107.927 9.13262 108.135 9.21185 108.342 9.29461C108.555 9.37954 108.767 9.46908 108.975 9.56893C109.299 9.72495 109.617 9.89372 109.925 10.0807C110.326 10.3251 110.717 10.5881 111.084 10.883C111.319 11.0724 111.524 11.2916 111.724 11.5177C112.016 11.8482 112.282 12.2006 112.525 12.5702C112.767 12.9387 112.984 13.3207 113.172 13.7212C113.31 14.014 113.432 14.3135 113.532 14.6212C113.609 14.8554 113.674 15.0928 113.724 15.3351C113.767 15.5416 113.806 15.7481 113.825 15.957C113.854 16.2498 113.879 16.5436 113.858 16.8375C113.839 17.1037 113.823 17.3712 113.765 17.6317C113.724 17.8165 113.682 18.0023 113.624 18.1836C113.565 18.3651 113.504 18.5453 113.429 18.7197C113.305 19.0076 113.16 19.2866 112.989 19.5506C112.626 20.1166 112.19 20.6191 111.692 21.0714C111.532 21.2171 111.369 21.3606 111.196 21.4903C110.914 21.7025 110.627 21.9058 110.312 22.0688C110.155 22.1502 110.002 22.2387 109.842 22.3119C109.682 22.3855 109.519 22.452 109.354 22.5163C109.218 22.5703 109.079 22.6186 108.939 22.6609C108.771 22.7114 108.601 22.7597 108.429 22.8009C108.297 22.8332 108.163 22.8641 108.03 22.8883C107.837 22.9227 107.641 22.948 107.446 22.9754C107.102 23.0237 106.754 23.019 106.409 23.034C106.292 23.0397 106.175 23.0294 106.058 23.0247C105.891 23.019 105.723 23.0226 105.558 23.002C105.331 22.9743 105.1 22.9594 104.875 22.9192C104.73 22.894 104.585 22.8812 104.44 22.8503C104.278 22.8158 104.112 22.7987 103.951 22.7515C103.874 22.7287 103.794 22.7217 103.717 22.7024C103.555 22.6622 103.393 22.6196 103.233 22.5749C103.215 22.5692 103.193 22.5713 103.173 22.5703C103.015 22.4992 102.845 22.4647 102.681 22.4118C102.491 22.3499 102.303 22.2835 102.115 22.2167C101.899 22.1399 101.689 22.0469 101.476 21.9608C101.13 21.8208 100.793 21.6624 100.459 21.495C100.052 21.2896 99.6518 21.0679 99.2624 20.8315C98.8716 20.5938 98.4889 20.3448 98.1168 20.0797C97.7387 19.81 97.3709 19.5289 97.0147 19.2315C96.6938 18.9642 96.3788 18.691 96.0787 18.4017C95.6329 17.9736 95.2012 17.5318 94.8001 17.06C94.6707 16.9075 94.5436 16.7525 94.4174 16.5976C94.288 16.4299 94.162 16.2669 94.035 16.1051Z" fill="#1479FB"/>
</g>
<mask id="mask1_368_33" style="mask-type:luminance" maskUnits="userSpaceOnUse" x="93" y="16" width="22" height="13">
<path d="M93.8774 16.0458H114.318V28.8268H93.8774V16.0458Z" fill="white"/>
</mask>
<g mask="url(#mask1_368_33)">
<path d="M94.0347 16.1019C94.1617 16.2636 94.289 16.4267 94.4185 16.5873C94.5444 16.7436 94.6714 16.8986 94.8009 17.05C95.202 17.5205 95.634 17.9625 96.0795 18.3917C96.3807 18.681 96.6946 18.9553 97.0155 19.2215C97.3716 19.5186 97.7405 19.8 98.1175 20.0697C98.4899 20.3348 98.8726 20.5849 99.2631 20.8213C99.6537 21.059 100.052 21.2793 100.46 21.4847C100.794 21.6524 101.131 21.8108 101.476 21.9508C101.69 22.0369 101.899 22.1286 102.116 22.2067C102.304 22.2732 102.491 22.341 102.682 22.4018C102.845 22.4547 103.016 22.4889 103.174 22.5603C103.258 22.6704 103.375 22.745 103.469 22.8449C103.699 23.0869 103.962 23.2937 104.226 23.498C104.366 23.6057 104.508 23.7102 104.653 23.81C104.824 23.9273 104.998 24.0374 105.172 24.1476C105.307 24.2325 105.449 24.3071 105.59 24.3839C105.818 24.509 106.053 24.6202 106.293 24.7201C106.517 24.8143 106.744 24.9005 106.975 24.9762C107.207 25.0519 107.439 25.1209 107.676 25.1759C107.951 25.2402 108.23 25.2918 108.509 25.332C109.056 25.4101 109.606 25.4261 110.157 25.4066C110.423 25.3974 110.688 25.3699 110.952 25.3341C111.246 25.2953 111.536 25.2402 111.824 25.1702C112.135 25.0943 112.441 25.0015 112.738 24.881C113.035 24.7616 113.324 24.6249 113.602 24.4642C113.765 24.369 113.928 24.2702 114.088 24.1693C114.154 24.1291 114.213 24.0797 114.275 24.0361C114.289 24.0271 114.306 24.019 114.321 24.0328C114.337 24.0477 114.326 24.0648 114.317 24.0776C114.293 24.1142 114.272 24.1522 114.243 24.1831C114.046 24.3921 113.865 24.6135 113.676 24.8305C113.621 24.8935 113.562 24.9521 113.503 25.0118C113.224 25.2999 112.952 25.5949 112.66 25.8692C112.449 26.0676 112.226 26.2523 111.998 26.4325C111.841 26.5565 111.678 26.6713 111.518 26.7907C111.355 26.9111 111.182 27.0191 111.01 27.1258C110.84 27.2313 110.669 27.3347 110.495 27.4324C110.353 27.5127 110.206 27.5849 110.059 27.6562C109.903 27.7319 109.747 27.8041 109.589 27.8752C109.341 27.9878 109.085 28.0841 108.828 28.1772C108.432 28.3194 108.029 28.4355 107.62 28.5307C107.319 28.6007 107.014 28.6569 106.707 28.7006C106.427 28.7397 106.146 28.7706 105.863 28.7888C105.75 28.7958 105.637 28.8015 105.524 28.8051C105.337 28.8097 105.15 28.8314 104.964 28.82C104.668 28.8026 104.371 28.7969 104.076 28.7682C103.764 28.7372 103.454 28.6995 103.146 28.6444C102.834 28.588 102.526 28.5191 102.219 28.4388C102.013 28.385 101.809 28.3229 101.606 28.2586C101.46 28.2116 101.317 28.1555 101.173 28.1037C100.915 28.0119 100.664 27.9029 100.417 27.7892C100.232 27.7043 100.051 27.6115 99.8714 27.5173C99.6491 27.4025 99.4362 27.2717 99.222 27.1442C99.0936 27.0674 98.9698 26.9825 98.845 26.8987C98.6846 26.7896 98.53 26.6748 98.3743 26.5611C98.208 26.4385 98.0512 26.3042 97.8906 26.1745C97.7898 26.0917 97.6912 26.0079 97.5962 25.9197C97.4816 25.8128 97.3649 25.7072 97.256 25.5949C97.0315 25.3618 96.7967 25.1358 96.5927 24.8843C96.4519 24.7122 96.304 24.5445 96.1746 24.3609C96.0657 24.2059 95.9511 24.0534 95.8412 23.8985C95.7759 23.8065 95.7128 23.7113 95.6546 23.6149C95.501 23.3648 95.3499 23.1122 95.2134 22.8528C95.0966 22.6278 94.9867 22.3996 94.8846 22.1676C94.7814 21.9324 94.6842 21.6947 94.5959 21.4538C94.4494 21.0522 94.3256 20.6446 94.2316 20.2268C94.1663 19.9375 94.1092 19.6461 94.061 19.3533C94.0312 19.1699 94.0106 18.9838 93.99 18.7979C93.9258 18.2482 93.9201 17.6974 93.9372 17.1463C93.9464 16.8628 93.9659 16.5795 94.0071 16.2995C94.0198 16.2352 94.0152 16.1673 94.0347 16.1019Z" fill="#5EB7FF"/>
</g>
<path d="M18.8521 6.00781C20.5226 6.00781 22.0685 6.2569 23.4899 6.75453C24.9117 7.25162 26.1757 8.12206 27.2815 9.36587C27.7327 9.88548 27.9304 10.3828 27.8741 10.8582C27.8178 11.3331 27.6033 11.7173 27.2306 12.0108C26.8585 12.3047 26.4184 12.4404 25.91 12.4179C25.4022 12.3956 24.9226 12.1465 24.4714 11.6711C23.6364 10.7443 22.7505 10.1451 21.8139 9.87381C20.8779 9.60247 19.8794 9.4668 18.8185 9.4668C17.3972 9.4668 16.1503 9.77803 15.0778 10.4002C14.0058 11.0218 13.1711 11.8866 12.5731 12.9942C11.9751 14.102 11.6761 15.402 11.6761 16.8938C11.6761 18.4771 11.9805 19.8677 12.5894 21.0659C13.1987 22.2641 14.0508 23.191 15.1449 23.8465C16.2397 24.5021 17.5207 24.8298 18.9875 24.8298C20.0484 24.8298 21.109 24.5585 22.1693 24.0158C23.2301 23.4732 24.0765 22.8176 24.7086 22.0492C25.1598 21.5065 25.6506 21.1958 26.1809 21.1169C26.7117 21.0374 27.1743 21.1277 27.5686 21.3882C27.9635 21.6482 28.2005 22.0153 28.2793 22.4898C28.3586 22.9647 28.1953 23.496 27.7896 24.0842C27.18 24.9433 26.3899 25.6892 25.4193 26.3222C24.4492 26.9555 23.3999 27.4417 22.2711 27.7809C21.1428 28.1195 20.0259 28.2888 18.9204 28.2888C16.6857 28.2888 14.7335 27.8143 13.0639 26.8649C11.3939 25.9157 10.0966 24.5875 9.17144 22.8806C8.24627 21.1731 7.78369 19.1774 7.78369 16.8938C7.78369 14.7014 8.26848 12.7912 9.23861 11.1632C10.2093 9.53518 11.5353 8.26913 13.2166 7.36449C14.8979 6.46013 16.7764 6.00781 18.8521 6.00781Z" fill="black"/>
<path d="M46.7122 10.6877C47.2985 10.6877 47.7665 10.8516 48.1162 11.1794C48.4664 11.5072 48.6416 11.9313 48.6416 12.4514V26.1865C48.6416 26.7069 48.4664 27.1307 48.1162 27.4585C47.7665 27.7863 47.2985 27.9501 46.7122 27.9501C46.148 27.9501 45.7079 27.8205 45.3916 27.5605C45.0758 27.3 44.8841 26.9554 44.8164 26.5262C44.0494 27.1361 43.1916 27.5828 42.2434 27.8655C41.2958 28.1477 40.3931 28.2888 39.5351 28.2888C37.9106 28.2888 36.5061 27.916 35.3209 27.1698C34.1363 26.4239 33.2282 25.373 32.5964 24.0169C31.9642 22.6602 31.6484 21.0775 31.6484 19.2685C31.6484 17.5053 31.9978 15.9566 32.6971 14.6221C33.3969 13.288 34.373 12.2425 35.6254 11.4855C36.8782 10.7279 38.3285 10.3491 39.976 10.3491C40.6981 10.3491 41.4992 10.4848 42.3789 10.7561C43.2591 11.0275 44.0716 11.457 44.8164 12.0444C44.9065 11.638 45.1094 11.3102 45.4252 11.0611C45.7415 10.8123 46.1705 10.6877 46.7122 10.6877ZM39.9414 24.8645C40.9342 24.8645 41.8935 24.6442 42.8187 24.2035C43.7444 23.7623 44.3993 23.1122 44.7828 22.2532V16.3858C44.3538 15.5495 43.7103 14.9051 42.8523 14.4528C41.9948 14.0008 41.1265 13.7745 40.2469 13.7745C38.8247 13.7745 37.6794 14.2943 36.8105 15.3341C35.9417 16.3739 35.5073 17.6966 35.5073 19.3021C35.5073 20.9752 35.9135 22.3205 36.726 23.3385C37.5385 24.356 38.6102 24.8645 39.9414 24.8645Z" fill="black"/>
<path d="M53.6512 23.9148C53.493 23.2818 53.6395 22.7731 54.091 22.3888C54.5422 22.0041 55.0389 21.8114 55.5806 21.8114C55.9871 21.8114 56.3481 21.9303 56.6639 22.1674C56.9803 22.4049 57.217 22.7611 57.3746 23.2365C57.5103 23.6432 57.8039 23.9767 58.2553 24.2372C58.7065 24.4971 59.2314 24.6833 59.8294 24.7961C60.4274 24.909 61.0311 24.9655 61.6408 24.9655C62.859 24.9655 63.8405 24.7451 64.5852 24.3045C65.3298 23.8638 65.7022 23.3043 65.7022 22.6255C65.7022 22.1509 65.5045 21.8006 65.1096 21.5748C64.7144 21.3485 64.1952 21.1901 63.5518 21.0995C62.9088 21.0091 62.2268 20.9415 61.5053 20.8965C60.5569 20.8061 59.6258 20.6933 58.7114 20.5579C57.7976 20.4219 56.9686 20.1899 56.2241 19.8622C55.4793 19.5344 54.8813 19.0482 54.4301 18.4035C53.9786 17.7588 53.753 16.8826 53.753 15.7748C53.753 14.6894 54.0688 13.7403 54.7009 12.9268C55.3328 12.1128 56.2241 11.4798 57.3746 11.0275C58.5256 10.5754 59.8576 10.3491 61.3699 10.3491C62.2496 10.3491 63.197 10.4343 64.2126 10.6042C65.2279 10.7735 66.1702 11.1184 67.039 11.6385C67.9078 12.1581 68.5454 12.9605 68.9522 14.0458C69.1103 14.4981 69.099 14.8994 68.9186 15.2495C68.7379 15.5997 68.4725 15.8654 68.1223 16.0461C67.7727 16.2271 67.4174 16.3174 67.0563 16.3174C66.6504 16.3174 66.3175 16.2387 66.0575 16.0808C65.798 15.9224 65.5781 15.651 65.3977 15.2668C65.1946 14.7914 64.8507 14.4409 64.3653 14.2151C63.88 13.9888 63.3605 13.8472 62.8075 13.7907C62.255 13.7343 61.7756 13.7061 61.3699 13.7061C60.2411 13.7061 59.3324 13.8987 58.6443 14.2835C57.9558 14.6677 57.6118 15.1765 57.6118 15.8095C57.6118 16.3522 57.7922 16.7198 58.1535 16.9122C58.5145 17.104 59.0053 17.2169 59.6258 17.2508C60.2468 17.2842 60.9409 17.3461 61.7079 17.4364C62.6553 17.5501 63.5918 17.6749 64.517 17.8109C65.4427 17.9463 66.2893 18.1777 67.0563 18.5055C67.8233 18.8333 68.4324 19.3195 68.8839 19.9642C69.3351 20.6083 69.561 21.4953 69.561 22.6255C69.561 23.7333 69.2279 24.7169 68.5622 25.5765C67.897 26.4356 66.9718 27.1022 65.7867 27.5768C64.602 28.0514 63.2203 28.2888 61.6408 28.2888C60.9409 28.2888 60.1788 28.2378 59.3549 28.1357C58.5316 28.0343 57.7305 27.8316 56.9521 27.5269C56.1734 27.2216 55.4907 26.7807 54.9035 26.2038C54.3169 25.6272 53.8995 24.8642 53.6512 23.9148Z" fill="black"/>
<path d="M83.9144 10.3492C85.4939 10.3492 86.8364 10.6941 87.9422 11.3835C89.0477 12.0733 89.8938 13.0286 90.4805 14.2499C91.0676 15.4707 91.3612 16.8946 91.3612 18.5218V26.1865C91.3612 26.707 91.1976 27.1308 90.8705 27.4586C90.5433 27.7863 90.0636 27.9502 89.4318 27.9502C88.8676 27.9502 88.4051 27.7863 88.044 27.4586C87.6827 27.1308 87.5024 26.707 87.5024 26.1865V18.4545C87.5024 17.0531 87.1692 15.917 86.5035 15.0466C85.8376 14.1761 84.794 13.7409 83.3727 13.7409C82.9437 13.7409 82.4413 13.8372 81.8658 14.0296C81.2908 14.2214 80.7326 14.5321 80.1909 14.9619C79.6493 15.3912 79.1978 15.945 78.8368 16.6236C78.4755 17.3016 78.2951 18.1382 78.2951 19.1329V26.1865C78.2951 26.707 78.1315 27.1308 77.8044 27.4586C77.4772 27.7863 77.0087 27.9502 76.3993 27.9502C75.7896 27.9502 75.3043 27.7863 74.9433 27.4586C74.582 27.1308 74.4016 26.707 74.4016 26.1865V7.63583C74.4016 7.11568 74.6102 6.71437 75.0278 6.43218C75.4451 6.14945 75.8912 6.00781 76.3657 6.00781C76.8619 6.00781 77.3074 6.14945 77.7025 6.43218C78.0974 6.71437 78.2951 7.11568 78.2951 7.63583V12.2485C79.2203 11.4571 80.1793 10.9426 81.1725 10.7052C82.1653 10.468 83.0794 10.3492 83.9144 10.3492Z" fill="black"/>
</svg>
