<svg width="170" height="42" viewBox="0 0 170 42" fill="none" xmlns="http://www.w3.org/2000/svg">
<path d="M112.555 28.7114C113.269 28.7114 113.97 28.6073 114.659 28.3989C115.347 28.1908 115.987 27.8389 116.577 27.3439C117.143 26.7964 117.697 26.5423 118.238 26.5814C118.779 26.6208 119.229 26.8295 119.585 27.2077C119.942 27.5852 120.12 28.0539 120.12 28.6139C120.12 29.1739 119.862 29.7145 119.346 30.2352C118.484 31.1211 117.463 31.7399 116.282 32.0914C115.101 32.443 113.896 32.6058 112.666 32.5802C110.747 32.5802 109.056 32.1636 107.592 31.3302C106.128 30.4961 104.984 29.3364 104.159 27.8514C103.335 26.3664 102.923 24.6473 102.923 22.6939C102.923 20.5583 103.316 18.6827 104.103 17.0677C104.891 15.4527 106.004 14.1895 107.443 13.2777C108.883 12.3661 110.586 11.9102 112.555 11.9102C114.523 11.9102 116.196 12.3336 117.574 13.1802C118.952 14.0261 120.003 15.2111 120.729 16.7352C121.455 18.2595 121.818 20.0373 121.818 22.0689C121.818 22.7198 121.694 23.2733 121.448 23.7289C121.203 24.1848 120.551 24.4127 119.493 24.4127H107.205C107.549 25.6895 108.2 26.7252 109.16 27.5202C110.119 28.3145 111.251 28.7114 112.555 28.7114ZM112.592 15.7777C111.165 15.7777 109.971 16.2533 109.012 17.2039C108.053 18.1548 107.438 19.3986 107.167 20.9352H117.906C117.783 19.3986 117.303 18.1548 116.466 17.2039C115.63 16.2533 114.339 15.7777 112.592 15.7777Z" fill="white"/>
<path d="M134.809 12.3003C135.473 12.3003 136.002 12.4503 136.395 12.7503C136.789 13.0497 136.986 13.5378 136.986 14.2153C136.986 14.8403 136.789 15.3353 136.395 15.7003C136.002 16.0647 135.473 16.2465 134.809 16.2465C133.259 16.2465 132.17 16.8328 131.542 18.0053C130.915 19.1778 130.601 20.7672 130.601 22.7728V30.1965C130.601 30.769 130.404 31.2447 130.011 31.6228C129.617 32.0003 129.138 32.189 128.572 32.189C127.932 32.189 127.415 32.0003 127.022 31.6228C126.628 31.2447 126.432 30.769 126.432 30.1965V14.2928C126.432 13.6678 126.659 13.1797 127.114 12.8278C127.57 12.4762 128.055 12.3003 128.572 12.3003C129.089 12.3003 129.556 12.47 129.974 12.809C130.392 13.1475 130.601 13.6422 130.601 14.2928V14.5278C131.143 13.7722 131.77 13.2122 132.483 12.8478C133.197 12.4828 133.972 12.3003 134.809 12.3003Z" fill="#1479FB"/>
<path d="M148.573 11.9102C150.394 11.9102 151.987 12.3336 153.352 13.1802C154.717 14.0261 155.775 15.2111 156.525 16.7352C157.276 18.2595 157.652 20.0245 157.652 22.0302C157.652 24.1136 157.276 25.9498 156.525 27.5389C155.775 29.1283 154.736 30.3658 153.408 31.2514C152.079 32.1373 150.517 32.5802 148.721 32.5802C147.884 32.5802 146.974 32.4239 145.99 32.1114C145.006 31.7983 144.108 31.3552 143.296 30.7827V36.7602C143.296 37.4117 143.081 37.9067 142.65 38.2452C142.22 38.5842 141.746 38.7539 141.23 38.7539C140.689 38.7539 140.203 38.5842 139.772 38.2452C139.342 37.9067 139.126 37.4117 139.126 36.7602V14.2927C139.126 13.6677 139.317 13.1795 139.698 12.8277C140.079 12.4761 140.602 12.3002 141.267 12.3002C142.374 12.3002 143.026 12.7561 143.223 13.6677C144.084 13.017 144.981 12.5614 145.916 12.3014C146.851 12.0408 147.737 11.9102 148.573 11.9102ZM148.611 28.6327C150.062 28.6327 151.231 28.0273 152.116 26.8164C153.002 25.6048 153.444 24.0223 153.444 22.0689C153.444 20.2198 152.97 18.7223 152.023 17.5764C151.076 16.4298 149.828 15.8564 148.278 15.8564C147.294 15.8564 146.335 16.1236 145.4 16.6577C144.465 17.1911 143.764 17.9527 143.296 18.9427V25.4289C143.69 26.4448 144.391 27.2327 145.4 27.7927C146.409 28.3527 147.479 28.6327 148.611 28.6327Z" fill="#1479FB"/>
<mask id="mask0_455_2063" style="mask-type:luminance" maskUnits="userSpaceOnUse" x="100" y="9" width="25" height="18">
<path d="M100.717 9.7876H124.138V26.5601H100.717V9.7876Z" fill="white"/>
</mask>
<g mask="url(#mask0_455_2063)">
<path d="M102.474 18.5451C102.358 18.3679 102.243 18.1907 102.127 18.0151C101.869 17.6276 101.634 17.226 101.409 16.8173C101.167 16.3785 100.954 15.9238 100.743 15.4679C100.731 15.4413 100.712 15.4163 100.72 15.3779C100.756 15.3648 100.772 15.3951 100.787 15.4176C101.099 15.8629 101.443 16.2819 101.788 16.6985C102.167 17.1519 102.556 17.5948 102.959 18.0229C103.355 18.4432 103.762 18.8504 104.18 19.2457C104.577 19.6198 104.984 19.9807 105.402 20.3269C105.77 20.631 106.143 20.9244 106.527 21.2032C107.073 21.5998 107.635 21.9685 108.216 22.3016C108.503 22.4657 108.794 22.6229 109.09 22.7685C109.354 22.8979 109.62 23.0194 109.889 23.1344C110.135 23.2388 110.382 23.3366 110.633 23.4241C110.794 23.481 110.958 23.5351 111.121 23.5854C111.31 23.6435 111.501 23.6898 111.688 23.7479C111.772 23.7744 111.857 23.7941 111.943 23.8101C112.243 23.8669 112.541 23.9304 112.843 23.9754C113.204 24.0282 113.565 24.061 113.928 24.081C114.215 24.0969 114.502 24.0916 114.789 24.0782C115.036 24.0663 115.283 24.0413 115.528 24.0176C115.719 23.9991 115.909 23.9632 116.099 23.9316C116.346 23.8907 116.591 23.831 116.832 23.7623C116.991 23.7176 117.151 23.6644 117.309 23.6051C117.486 23.5363 117.662 23.4663 117.834 23.3844C118.267 23.1782 118.669 22.9204 119.035 22.5991C119.345 22.3269 119.613 22.0151 119.833 21.6566C119.989 21.4016 120.112 21.1291 120.206 20.8398C120.353 20.3838 120.401 19.9173 120.358 19.4413C120.344 19.2707 120.31 19.1004 120.269 18.9323C120.209 18.6932 120.126 18.4657 120.024 18.2438C119.904 17.9873 119.755 17.7519 119.584 17.5298C119.202 17.0316 118.732 16.6523 118.204 16.3441C117.878 16.1538 117.537 16.0044 117.182 15.8907C116.834 15.7785 116.482 15.6938 116.123 15.6357C115.622 15.5551 115.12 15.5576 114.621 15.6119C114.297 15.6463 113.979 15.7294 113.666 15.8313C112.796 16.1154 112.044 16.6098 111.363 17.2391C110.774 17.7823 110.275 18.4063 109.829 19.0816C109.595 19.4385 109.374 19.8048 109.183 20.1907C109.151 20.2541 109.108 20.2832 109.035 20.2832C108.781 20.2807 108.527 20.2541 108.274 20.2263C107.992 20.1948 107.716 20.126 107.436 20.0769C107.323 20.0573 107.21 20.0204 107.099 19.986C106.922 19.9329 106.742 19.8813 106.567 19.8207C106.389 19.7585 106.21 19.691 106.036 19.6157C105.672 19.4598 105.32 19.2801 104.979 19.0738C104.575 18.8279 104.193 18.5476 103.834 18.2304C103.458 17.896 103.112 17.5273 102.8 17.1241C102.751 17.0619 102.742 17.0104 102.777 16.9376C102.823 16.8413 102.862 16.7419 102.948 16.6773C102.959 16.6682 102.977 16.656 102.967 16.6404C102.928 16.5741 102.981 16.5307 103.004 16.4844C103.267 15.9741 103.557 15.481 103.886 15.0144C104.439 14.2266 105.067 13.5113 105.772 12.8729C106.326 12.3707 106.918 11.9254 107.546 11.5354C107.906 11.3119 108.277 11.1098 108.658 10.9285C108.873 10.8269 109.089 10.7263 109.309 10.6379C109.573 10.5319 109.839 10.4329 110.111 10.3482C110.283 10.2954 110.451 10.2385 110.623 10.1935C110.844 10.1341 111.069 10.0838 111.293 10.0338C111.627 9.95694 111.968 9.92382 112.304 9.86569C112.425 9.84476 112.55 9.84851 112.673 9.83663C113.062 9.79569 113.451 9.80101 113.84 9.80101C114.063 9.80101 114.284 9.82351 114.505 9.83538C114.814 9.85132 115.119 9.89882 115.425 9.94382C115.618 9.97288 115.812 10.0073 116.004 10.051C116.224 10.101 116.442 10.1554 116.661 10.2148C116.903 10.2794 117.142 10.3563 117.381 10.4369C117.612 10.5148 117.839 10.606 118.065 10.7013C118.297 10.7991 118.528 10.9023 118.754 11.0173C119.108 11.1969 119.455 11.3913 119.789 11.6066C120.227 11.8882 120.653 12.191 121.052 12.5307C121.308 12.7488 121.532 13.0013 121.751 13.2616C122.069 13.6423 122.358 14.0482 122.623 14.4738C122.886 14.8982 123.124 15.3382 123.328 15.7994C123.478 16.1366 123.612 16.4816 123.721 16.836C123.804 17.1057 123.875 17.3791 123.93 17.6582C123.976 17.896 124.019 18.1338 124.04 18.3744C124.071 18.7116 124.099 19.0501 124.076 19.3885C124.055 19.6951 124.038 20.0032 123.975 20.3032C123.93 20.516 123.884 20.7301 123.82 20.9388C123.757 21.1479 123.69 21.3554 123.608 21.5563C123.473 21.8879 123.315 22.2091 123.129 22.5132C122.733 23.1651 122.258 23.7438 121.715 24.2648C121.541 24.4326 121.363 24.5979 121.175 24.7473C120.868 24.9916 120.554 25.2257 120.211 25.4135C120.04 25.5073 119.874 25.6091 119.699 25.6935C119.525 25.7782 119.347 25.8548 119.167 25.9288C119.019 25.991 118.868 26.0466 118.716 26.0954C118.532 26.1535 118.347 26.2091 118.16 26.2566C118.015 26.2938 117.869 26.3294 117.724 26.3573C117.515 26.3969 117.301 26.426 117.089 26.4576C116.713 26.5132 116.335 26.5079 115.958 26.5251C115.83 26.5316 115.703 26.5198 115.576 26.5144C115.394 26.5079 115.211 26.5119 115.031 26.4882C114.783 26.4563 114.532 26.4391 114.286 26.3929C114.129 26.3638 113.97 26.3491 113.813 26.3135C113.636 26.2738 113.455 26.2541 113.28 26.1998C113.196 26.1735 113.109 26.1654 113.024 26.1432C112.848 26.0969 112.672 26.0479 112.497 25.9963C112.477 25.9897 112.454 25.9923 112.432 25.991C112.26 25.9091 112.074 25.8694 111.896 25.8085C111.688 25.7373 111.484 25.6607 111.279 25.5838C111.044 25.4954 110.814 25.3882 110.582 25.2891C110.205 25.1279 109.838 24.9454 109.475 24.7526C109.03 24.516 108.595 24.2607 108.17 23.9885C107.744 23.7148 107.327 23.4279 106.922 23.1226C106.51 22.8119 106.109 22.4882 105.721 22.1457C105.371 21.8379 105.028 21.5232 104.701 21.1901C104.215 20.6969 103.745 20.1882 103.308 19.6448C103.166 19.4691 103.028 19.2907 102.891 19.1123C102.749 18.9191 102.612 18.7313 102.474 18.5451Z" fill="#1479FB"/>
</g>
<mask id="mask1_455_2063" style="mask-type:luminance" maskUnits="userSpaceOnUse" x="102" y="18" width="23" height="16">
<path d="M102.302 18.48H124.577V33.2H102.302V18.48Z" fill="white"/>
</mask>
<g mask="url(#mask1_455_2063)">
<path d="M102.474 18.5444C102.612 18.7307 102.751 18.9185 102.892 19.1035C103.029 19.2835 103.168 19.4619 103.309 19.6363C103.746 20.1782 104.216 20.6872 104.702 21.1816C105.03 21.5147 105.372 21.8307 105.722 22.1372C106.11 22.4794 106.512 22.8035 106.923 23.1141C107.329 23.4194 107.746 23.7076 108.171 23.9797C108.597 24.2535 109.031 24.5072 109.476 24.7438C109.839 24.9369 110.206 25.1194 110.583 25.2807C110.815 25.3797 111.044 25.4854 111.28 25.5754C111.485 25.6519 111.689 25.7301 111.897 25.8001C112.075 25.861 112.261 25.9004 112.433 25.9826C112.525 26.1094 112.652 26.1954 112.754 26.3104C113.005 26.5891 113.292 26.8272 113.579 27.0626C113.732 27.1866 113.886 27.3069 114.045 27.4219C114.231 27.5569 114.421 27.6838 114.611 27.8107C114.758 27.9085 114.913 27.9944 115.066 28.0829C115.315 28.2269 115.571 28.3551 115.832 28.4701C116.076 28.5785 116.323 28.6779 116.576 28.7651C116.828 28.8522 117.081 28.9316 117.339 28.9951C117.639 29.0691 117.942 29.1285 118.247 29.1747C118.843 29.2647 119.442 29.2832 120.042 29.2607C120.332 29.2501 120.622 29.2185 120.909 29.1772C121.23 29.1326 121.546 29.0691 121.859 28.9885C122.198 28.901 122.532 28.7941 122.855 28.6554C123.179 28.5179 123.494 28.3604 123.797 28.1754C123.975 28.0657 124.152 27.9519 124.327 27.8357C124.398 27.7894 124.463 27.7326 124.531 27.6822C124.546 27.6719 124.564 27.6626 124.58 27.6785C124.598 27.6957 124.585 27.7154 124.577 27.7301C124.55 27.7722 124.527 27.816 124.495 27.8516C124.281 28.0922 124.083 28.3472 123.878 28.5972C123.818 28.6697 123.753 28.7372 123.689 28.806C123.385 29.1379 123.089 29.4776 122.77 29.7935C122.54 30.0219 122.297 30.2347 122.049 30.4422C121.878 30.5851 121.7 30.7172 121.525 30.8547C121.348 30.9935 121.16 31.1179 120.972 31.2407C120.788 31.3622 120.6 31.4813 120.411 31.5938C120.256 31.6863 120.096 31.7694 119.936 31.8516C119.766 31.9388 119.596 32.0219 119.424 32.1038C119.154 32.2335 118.875 32.3444 118.594 32.4516C118.164 32.6154 117.724 32.7491 117.278 32.8588C116.95 32.9394 116.618 33.0041 116.283 33.0544C115.978 33.0994 115.672 33.1351 115.363 33.156C115.24 33.1641 115.117 33.1707 114.994 33.1747C114.79 33.1801 114.587 33.2051 114.383 33.1919C114.061 33.1719 113.738 33.1654 113.416 33.1322C113.076 33.0966 112.738 33.0532 112.402 32.9897C112.063 32.9247 111.727 32.8454 111.392 32.7529C111.168 32.691 110.945 32.6194 110.724 32.5454C110.566 32.4913 110.41 32.4266 110.252 32.3669C109.971 32.2613 109.698 32.1357 109.428 32.0047C109.227 31.9069 109.03 31.8001 108.834 31.6916C108.592 31.5594 108.36 31.4088 108.126 31.2619C107.987 31.1735 107.852 31.0757 107.716 30.9791C107.541 30.8535 107.372 30.7213 107.203 30.5904C107.021 30.4491 106.851 30.2944 106.676 30.1451C106.566 30.0497 106.458 29.9532 106.355 29.8516C106.23 29.7285 106.103 29.6069 105.984 29.4776C105.739 29.2091 105.483 28.9488 105.261 28.6591C105.108 28.461 104.947 28.2679 104.806 28.0563C104.687 27.8779 104.562 27.7022 104.442 27.5238C104.371 27.4179 104.302 27.3082 104.239 27.1972C104.072 26.9091 103.907 26.6182 103.758 26.3194C103.631 26.0604 103.511 25.7976 103.4 25.5304C103.287 25.2594 103.181 24.9857 103.085 24.7082C102.925 24.2457 102.791 23.7763 102.688 23.2951C102.617 22.9619 102.555 22.6263 102.502 22.2891C102.47 22.0779 102.447 21.8635 102.425 21.6494C102.355 21.0163 102.349 20.3819 102.367 19.7472C102.377 19.4207 102.399 19.0944 102.444 18.7719C102.457 18.6979 102.452 18.6197 102.474 18.5444Z" fill="#5EB7FF"/>
</g>
<path d="M20.5442 6.91943C22.3646 6.91943 24.0492 7.20631 25.5981 7.77943C27.1476 8.35193 28.525 9.35443 29.7301 10.7869C30.2218 11.3854 30.4372 11.9582 30.3758 12.5057C30.3144 13.0526 30.0807 13.4951 29.6746 13.8332C29.2691 14.1716 28.7895 14.3279 28.2355 14.3019C27.6821 14.2763 27.1594 13.9894 26.6677 13.4419C25.7578 12.3744 24.7924 11.6844 23.7718 11.3719C22.7518 11.0594 21.6636 10.9032 20.5076 10.9032C18.9587 10.9032 17.5999 11.2616 16.4311 11.9782C15.2629 12.6941 14.3533 13.6901 13.7017 14.9657C13.05 16.2416 12.7242 17.7388 12.7242 19.4569C12.7242 21.2804 13.0559 22.8819 13.7194 24.2619C14.3834 25.6419 15.3119 26.7094 16.5043 27.4644C17.6973 28.2194 19.0933 28.5969 20.6917 28.5969C21.8478 28.5969 23.0036 28.2844 24.159 27.6594C25.3151 27.0344 26.2374 26.2794 26.9262 25.3944C27.4179 24.7694 27.9527 24.4116 28.5306 24.3207C29.1091 24.2291 29.6132 24.3332 30.0429 24.6332C30.4732 24.9326 30.7315 25.3554 30.8174 25.9019C30.9038 26.4488 30.7259 27.0607 30.2837 27.7382C29.6194 28.7276 28.7585 29.5866 27.7007 30.3157C26.6435 31.0451 25.5001 31.6051 24.27 31.9957C23.0404 32.3857 21.8233 32.5807 20.6185 32.5807C18.1833 32.5807 16.056 32.0341 14.2365 30.9407C12.4166 29.8476 11.0029 28.3179 9.99471 26.3519C8.98652 24.3854 8.48242 22.0869 8.48242 19.4569C8.48242 16.9319 9.01072 14.7319 10.0679 12.8569C11.1257 10.9819 12.5707 9.52381 14.4029 8.48193C16.2351 7.44037 18.2822 6.91943 20.5442 6.91943Z" fill="white"/>
<path d="M50.9042 12.3094C51.5431 12.3094 52.0531 12.4982 52.4342 12.8757C52.8158 13.2532 53.0067 13.7416 53.0067 14.3407V30.1594C53.0067 30.7588 52.8158 31.2469 52.4342 31.6244C52.0531 32.0019 51.5431 32.1907 50.9042 32.1907C50.2894 32.1907 49.8098 32.0413 49.4651 31.7419C49.1209 31.4419 48.912 31.0451 48.8382 30.5507C48.0024 31.2532 47.0676 31.7676 46.0344 32.0932C45.0017 32.4182 44.018 32.5807 43.083 32.5807C41.3127 32.5807 39.7821 32.1513 38.4906 31.2919C37.1997 30.4329 36.2101 29.2226 35.5215 27.6607C34.8327 26.0982 34.4885 24.2754 34.4885 22.1919C34.4885 20.1613 34.8693 18.3776 35.6313 16.8407C36.3939 15.3041 37.4576 14.1001 38.8223 13.2282C40.1877 12.3557 41.7681 11.9194 43.5635 11.9194C44.3503 11.9194 45.2233 12.0757 46.1819 12.3882C47.1411 12.7007 48.0266 13.1954 48.8382 13.8719C48.9365 13.4038 49.1575 13.0263 49.5017 12.7394C49.8464 12.4529 50.3139 12.3094 50.9042 12.3094ZM43.5257 28.6369C44.6077 28.6369 45.653 28.3832 46.6612 27.8757C47.67 27.3676 48.3837 26.6188 48.8016 25.6294V18.8719C48.3341 17.9088 47.6328 17.1666 46.6978 16.6457C45.7634 16.1251 44.8172 15.8644 43.8586 15.8644C42.3088 15.8644 41.0607 16.4632 40.1139 17.6607C39.1671 18.8582 38.6937 20.3816 38.6937 22.2307C38.6937 24.1576 39.1364 25.7069 40.0218 26.8794C40.9072 28.0513 42.0751 28.6369 43.5257 28.6369Z" fill="white"/>
<path d="M58.466 27.5432C58.2937 26.8141 58.4533 26.2282 58.9453 25.7857C59.437 25.3426 59.9783 25.1207 60.5686 25.1207C61.0116 25.1207 61.405 25.2576 61.7492 25.5307C62.0939 25.8041 62.3518 26.2144 62.5236 26.7619C62.6715 27.2304 62.9914 27.6144 63.4834 27.9144C63.9751 28.2138 64.5471 28.4282 65.1987 28.5582C65.8504 28.6882 66.5083 28.7532 67.1726 28.7532C68.5002 28.7532 69.5697 28.4994 70.3814 27.9919C71.1927 27.4844 71.5985 26.8401 71.5985 26.0582C71.5985 25.5116 71.3831 25.1082 70.9528 24.8482C70.5222 24.5876 69.9564 24.4051 69.2551 24.3007C68.5545 24.1966 67.8113 24.1188 67.0251 24.0669C65.9915 23.9629 64.9768 23.8329 63.9804 23.6769C62.9846 23.5204 62.0812 23.2532 61.2698 22.8757C60.4582 22.4982 59.8065 21.9382 59.3148 21.1957C58.8228 20.4532 58.577 19.4441 58.577 18.1682C58.577 16.9182 58.9211 15.8251 59.61 14.8882C60.2985 13.9507 61.2698 13.2216 62.5236 12.7007C63.7779 12.1801 65.2294 11.9194 66.8775 11.9194C67.8361 11.9194 68.8685 12.0176 69.9753 12.2132C71.0817 12.4082 72.1085 12.8054 73.0553 13.4044C74.0021 14.0029 74.6969 14.9269 75.1402 16.1769C75.3125 16.6979 75.3002 17.1601 75.1036 17.5632C74.9067 17.9666 74.6175 18.2726 74.2359 18.4807C73.8549 18.6891 73.4676 18.7932 73.0742 18.7932C72.6318 18.7932 72.2691 18.7026 71.9857 18.5207C71.703 18.3382 71.4634 18.0257 71.2668 17.5832C71.0454 17.0357 70.6706 16.6319 70.1417 16.3719C69.6128 16.1113 69.0468 15.9482 68.4441 15.8832C67.842 15.8182 67.3196 15.7857 66.8775 15.7857C65.6473 15.7857 64.6572 16.0076 63.9072 16.4507C63.157 16.8932 62.7821 17.4791 62.7821 18.2082C62.7821 18.8332 62.9787 19.2566 63.3724 19.4782C63.7658 19.6991 64.3006 19.8291 64.9768 19.8682C65.6535 19.9066 66.41 19.9779 67.2458 20.0819C68.2782 20.2129 69.2988 20.3566 70.307 20.5132C71.3158 20.6691 72.2384 20.9357 73.0742 21.3132C73.9101 21.6907 74.5738 22.2507 75.0658 22.9932C75.5575 23.7351 75.8037 24.7566 75.8037 26.0582C75.8037 27.3341 75.4406 28.4669 74.7152 29.4569C73.9903 30.4463 72.9821 31.2141 71.6906 31.7607C70.3997 32.3073 68.8939 32.5807 67.1726 32.5807C66.41 32.5807 65.5795 32.5219 64.6817 32.4044C63.7844 32.2876 62.9114 32.0541 62.0632 31.7032C61.2147 31.3516 60.4706 30.8438 59.8307 30.1794C59.1915 29.5154 58.7367 28.6366 58.466 27.5432Z" fill="white"/>
<path d="M91.4453 11.9194C93.1666 11.9194 94.6296 12.3166 95.8346 13.1107C97.0394 13.9051 97.9614 15.0054 98.6007 16.4119C99.2405 17.8179 99.5605 19.4579 99.5605 21.3319V30.1594C99.5605 30.7588 99.3822 31.2469 99.0257 31.6244C98.6691 32.0019 98.1464 32.1907 97.4579 32.1907C96.8431 32.1907 96.339 32.0019 95.9456 31.6244C95.5519 31.2469 95.3553 30.7588 95.3553 30.1594V21.2544C95.3553 19.6404 94.9923 18.3319 94.2668 17.3294C93.5411 16.3269 92.4039 15.8257 90.855 15.8257C90.3875 15.8257 89.8401 15.9366 89.2129 16.1582C88.5863 16.3791 87.978 16.7369 87.3877 17.2319C86.7975 17.7263 86.3055 18.3641 85.9121 19.1457C85.5183 19.9266 85.3218 20.8901 85.3218 22.0357V30.1594C85.3218 30.7588 85.1435 31.2469 84.787 31.6244C84.4305 32.0019 83.9199 32.1907 83.2558 32.1907C82.5914 32.1907 82.0626 32.0019 81.6691 31.6244C81.2754 31.2469 81.0789 30.7588 81.0789 30.1594V8.79443C81.0789 8.19537 81.3061 7.73318 81.7612 7.40818C82.216 7.08256 82.7021 6.91943 83.2192 6.91943C83.7599 6.91943 84.2454 7.08256 84.676 7.40818C85.1063 7.73318 85.3218 8.19537 85.3218 8.79443V14.1069C86.33 13.1954 87.3751 12.6029 88.4573 12.3294C89.5393 12.0563 90.5354 11.9194 91.4453 11.9194Z" fill="white"/>
</svg>
