<svg width="24" height="24" viewBox="0 0 24 24" fill="none" xmlns="http://www.w3.org/2000/svg">
<g clip-path="url(#clip0_726_8133)">
<path d="M22.875 7.125H17.25V0.375C17.25 0.168 17.0824 0 16.875 0H4.125C4.07475 0 4.026 0.010125 3.98062 0.02925C3.93488 0.048375 3.894 0.07575 3.8595 0.11025L0.11025 3.8595C0.07575 3.894 0.048375 3.93488 0.02925 3.98062C0.010125 4.026 0 4.07513 0 4.125V23.625C0 23.832 0.167625 24 0.375 24H10.125C10.3324 24 10.5 23.832 10.5 23.625C10.5 23.418 10.3324 23.25 10.125 23.25H0.75V4.5H4.125C4.33238 4.5 4.5 4.332 4.5 4.125V0.75H16.5V7.125H12C11.3798 7.125 10.875 7.62975 10.875 8.25V13.125C10.875 13.332 11.0426 13.5 11.25 13.5C11.4574 13.5 11.625 13.332 11.625 13.125V12.375H23.25V22.875C23.25 23.0816 23.082 23.25 22.875 23.25H12C11.793 23.25 11.625 23.0816 11.625 22.875V14.4375C11.625 14.2305 11.4574 14.0625 11.25 14.0625C11.0426 14.0625 10.875 14.2305 10.875 14.4375V22.875C10.875 23.4953 11.3798 24 12 24H22.875C23.4953 24 24 23.4953 24 22.875V8.25C24 7.62975 23.4953 7.125 22.875 7.125ZM1.28025 3.75L3.75 1.28025V3.75H1.28025ZM11.625 11.625V8.25C11.625 8.04338 11.793 7.875 12 7.875H22.875C23.082 7.875 23.25 8.04338 23.25 8.25V11.625H11.625Z" fill="#161559"/>
<path d="M21.75 8.25H13.125C12.7114 8.25 12.375 8.58637 12.375 9V10.5C12.375 10.9136 12.7114 11.25 13.125 11.25H21.75C22.1636 11.25 22.5 10.9136 22.5 10.5V9C22.5 8.58637 22.1636 8.25 21.75 8.25ZM13.125 10.5V9H21.75L21.7504 10.5H13.125ZM12.375 16.875C12.375 17.2886 12.7114 17.625 13.125 17.625H13.875C14.2886 17.625 14.625 17.2886 14.625 16.875V16.125C14.625 15.7114 14.2886 15.375 13.875 15.375H13.125C12.7114 15.375 12.375 15.7114 12.375 16.125V16.875ZM13.125 16.125H13.875L13.8754 16.875H13.125V16.125ZM20.25 16.875C20.25 17.2886 20.5864 17.625 21 17.625H21.75C22.1636 17.625 22.5 17.2886 22.5 16.875V16.125C22.5 15.7114 22.1636 15.375 21.75 15.375H21C20.5864 15.375 20.25 15.7114 20.25 16.125V16.875ZM21 16.125H21.75L21.7504 16.875H21V16.125ZM13.125 15H13.875C14.2886 15 14.625 14.6636 14.625 14.25V13.5C14.625 13.0864 14.2886 12.75 13.875 12.75H13.125C12.7114 12.75 12.375 13.0864 12.375 13.5V14.25C12.375 14.6636 12.7114 15 13.125 15ZM13.125 13.5H13.875L13.8754 14.25H13.125V13.5ZM21 15H21.75C22.1636 15 22.5 14.6636 22.5 14.25V13.5C22.5 13.0864 22.1636 12.75 21.75 12.75H21C20.5864 12.75 20.25 13.0864 20.25 13.5V14.25C20.25 14.6636 20.5864 15 21 15ZM21 13.5H21.75L21.7504 14.25H21V13.5ZM12.375 19.5C12.375 19.9136 12.7114 20.25 13.125 20.25H13.875C14.2886 20.25 14.625 19.9136 14.625 19.5V18.75C14.625 18.3364 14.2886 18 13.875 18H13.125C12.7114 18 12.375 18.3364 12.375 18.75V19.5ZM13.125 18.75H13.875L13.8754 19.5H13.125V18.75ZM12.375 22.125C12.375 22.5386 12.7114 22.875 13.125 22.875H13.875C14.2886 22.875 14.625 22.5386 14.625 22.125V21.375C14.625 20.9614 14.2886 20.625 13.875 20.625H13.125C12.7114 20.625 12.375 20.9614 12.375 21.375V22.125ZM13.125 21.375H13.875L13.8754 22.125H13.125V21.375ZM15 16.875C15 17.2886 15.3364 17.625 15.75 17.625H16.5C16.9136 17.625 17.25 17.2886 17.25 16.875V16.125C17.25 15.7114 16.9136 15.375 16.5 15.375H15.75C15.3364 15.375 15 15.7114 15 16.125V16.875ZM15.75 16.125H16.5L16.5004 16.875H15.75V16.125ZM15.75 15H16.5C16.9136 15 17.25 14.6636 17.25 14.25V13.5C17.25 13.0864 16.9136 12.75 16.5 12.75H15.75C15.3364 12.75 15 13.0864 15 13.5V14.25C15 14.6636 15.3364 15 15.75 15ZM15.75 13.5H16.5L16.5004 14.25H15.75V13.5ZM15 19.5C15 19.9136 15.3364 20.25 15.75 20.25H16.5C16.9136 20.25 17.25 19.9136 17.25 19.5V18.75C17.25 18.3364 16.9136 18 16.5 18H15.75C15.3364 18 15 18.3364 15 18.75V19.5ZM15.75 18.75H16.5L16.5004 19.5H15.75V18.75ZM15 22.125C15 22.5386 15.3364 22.875 15.75 22.875H16.5C16.9136 22.875 17.25 22.5386 17.25 22.125V21.375C17.25 20.9614 16.9136 20.625 16.5 20.625H15.75C15.3364 20.625 15 20.9614 15 21.375V22.125ZM15.75 21.375H16.5L16.5004 22.125H15.75V21.375ZM17.625 16.875C17.625 17.2886 17.9614 17.625 18.375 17.625H19.125C19.5386 17.625 19.875 17.2886 19.875 16.875V16.125C19.875 15.7114 19.5386 15.375 19.125 15.375H18.375C17.9614 15.375 17.625 15.7114 17.625 16.125V16.875ZM18.375 16.125H19.125L19.1254 16.875H18.375V16.125ZM18.375 15H19.125C19.5386 15 19.875 14.6636 19.875 14.25V13.5C19.875 13.0864 19.5386 12.75 19.125 12.75H18.375C17.9614 12.75 17.625 13.0864 17.625 13.5V14.25C17.625 14.6636 17.9614 15 18.375 15ZM18.375 13.5H19.125L19.1254 14.25H18.375V13.5ZM17.625 19.5C17.625 19.9136 17.9614 20.25 18.375 20.25H19.125C19.5386 20.25 19.875 19.9136 19.875 19.5V18.75C19.875 18.3364 19.5386 18 19.125 18H18.375C17.9614 18 17.625 18.3364 17.625 18.75V19.5ZM18.375 18.75H19.125L19.1254 19.5H18.375V18.75ZM17.625 22.125C17.625 22.5386 17.9614 22.875 18.375 22.875H19.125C19.5386 22.875 19.875 22.5386 19.875 22.125V21.375C19.875 20.9614 19.5386 20.625 19.125 20.625H18.375C17.9614 20.625 17.625 20.9614 17.625 21.375V22.125ZM18.375 21.375H19.125L19.1254 22.125H18.375V21.375ZM20.25 22.125C20.25 22.5386 20.5864 22.875 21 22.875H21.75C22.1636 22.875 22.5 22.5386 22.5 22.125V18.75C22.5 18.3364 22.1636 18 21.75 18H21C20.5864 18 20.25 18.3364 20.25 18.75V22.125ZM21 18.75H21.75L21.7504 22.125H21V18.75ZM2.25 15.375C2.04263 15.375 1.875 15.543 1.875 15.75V22.125C1.875 22.332 2.04263 22.5 2.25 22.5H3.75C3.95738 22.5 4.125 22.332 4.125 22.125V15.75C4.125 15.543 3.95738 15.375 3.75 15.375H2.25ZM3.375 21.75H2.625V16.125H3.375V21.75ZM5.25 11.25C5.04262 11.25 4.875 11.418 4.875 11.625V22.125C4.875 22.332 5.04262 22.5 5.25 22.5H6.75C6.95738 22.5 7.125 22.332 7.125 22.125V11.625C7.125 11.418 6.95738 11.25 6.75 11.25H5.25ZM6.375 21.75H5.625V12H6.375V21.75ZM8.25 9C8.04262 9 7.875 9.168 7.875 9.375V22.125C7.875 22.332 8.04262 22.5 8.25 22.5H9.75C9.95737 22.5 10.125 22.332 10.125 22.125V9.375C10.125 9.168 9.95737 9 9.75 9H8.25ZM9.375 21.75H8.625V9.75H9.375V21.75ZM11.625 5.625C11.625 5.418 11.4574 5.25 11.25 5.25H6C5.79262 5.25 5.625 5.418 5.625 5.625C5.625 5.832 5.79262 6 6 6H11.25C11.4574 6 11.625 5.832 11.625 5.625Z" fill="#161559"/>
</g>
<defs>
<clipPath id="clip0_726_8133">
<rect width="24" height="24" fill="white"/>
</clipPath>
</defs>
</svg>
