<svg width="46" height="24" viewBox="0 0 46 24" fill="none" xmlns="http://www.w3.org/2000/svg">
<g clip-path="url(#clip0_424_4806)">
<path d="M0.75 12C0.75 16.9125 3.9 21.075 8.25 22.6125V1.38745C3.9 2.92495 0.75 7.08745 0.75 12ZM23.25 12C23.25 7.08745 20.1375 2.92495 15.75 1.38745V22.6125C20.1375 21.075 23.25 16.9125 23.25 12Z" fill="#83BF4F"/>
<path d="M8.25 22.6125C9.4125 23.025 10.6875 23.25 12 23.25C13.3125 23.25 14.5875 23.025 15.75 22.6125V1.3875C14.5875 0.975 13.3125 0.75 12 0.75C10.6875 0.75 9.4125 0.975 8.25 1.3875V22.6125Z" fill="#F9F9F9"/>
</g>
<path fill-rule="evenodd" clip-rule="evenodd" d="M33.2498 9.75C33.1015 9.75003 32.9566 9.79404 32.8332 9.87645C32.7099 9.95886 32.6138 10.076 32.5571 10.213C32.5003 10.35 32.4855 10.5008 32.5144 10.6463C32.5433 10.7917 32.6147 10.9254 32.7196 11.0302L36.4696 14.7802C36.6102 14.9209 36.801 14.9998 36.9998 14.9998C37.1987 14.9998 37.3894 14.9209 37.5301 14.7802L41.2801 11.0302C41.385 10.9254 41.4564 10.7917 41.4853 10.6463C41.5142 10.5008 41.4994 10.35 41.4426 10.213C41.3858 10.076 41.2897 9.95886 41.1664 9.87645C41.0431 9.79404 40.8982 9.75003 40.7498 9.75H33.2498Z" fill="#29292B"/>
<defs>
<clipPath id="clip0_424_4806">
<rect width="24" height="24" fill="white"/>
</clipPath>
</defs>
</svg>
