<svg width="20" height="20" viewBox="0 0 20 20" fill="none" xmlns="http://www.w3.org/2000/svg">
<path d="M18.125 11.8469V5.21877C18.1242 4.96777 18.0701 4.7198 17.9661 4.49134C17.8621 4.26289 17.7107 4.05919 17.5219 3.89377C17.2036 3.61803 16.7961 3.46704 16.375 3.46877H1.75C1.32976 3.46666 0.923142 3.61775 0.60625 3.89377C0.416417 4.05851 0.264084 4.262 0.159509 4.49056C0.0549335 4.71912 0.000543039 4.96743 0 5.21877L0 14.7813C0.000758302 15.0323 0.0549323 15.2802 0.158922 15.5087C0.262911 15.7372 0.414333 15.9409 0.603125 16.1063C0.921418 16.382 1.32888 16.533 1.75 16.5313H12.4406C12.7212 17.2737 13.2209 17.9134 13.8733 18.3654C14.5257 18.8175 15.3 19.0606 16.0938 19.0625V17.8125C15.5655 17.815 15.0484 17.6599 14.6088 17.367C14.1691 17.0741 13.8267 16.6568 13.6255 16.1683C13.4242 15.6799 13.3731 15.1425 13.4788 14.6249C13.5845 14.1073 13.8421 13.633 14.2188 13.2625C14.4712 13.0116 14.772 12.8145 15.1029 12.6835C15.4338 12.5524 15.7879 12.49 16.1437 12.5C16.8528 12.5309 17.5218 12.8371 18.0085 13.3536C18.4952 13.8701 18.7612 14.556 18.75 15.2656V16.4063C18.75 16.4892 18.7171 16.5686 18.6585 16.6272C18.5999 16.6858 18.5204 16.7188 18.4375 16.7188C18.3546 16.7188 18.2751 16.6858 18.2165 16.6272C18.1579 16.5686 18.125 16.4892 18.125 16.4063V15.1563C18.1263 14.7133 17.9832 14.2819 17.7174 13.9275C17.4515 13.5731 17.0774 13.315 16.6517 13.1924C16.226 13.0697 15.7719 13.0891 15.3582 13.2477C14.9446 13.4062 14.5938 13.6953 14.3592 14.0711C14.1246 14.4469 14.0188 14.8889 14.058 15.3302C14.0971 15.7715 14.279 16.188 14.5761 16.5166C14.8733 16.8453 15.2694 17.0681 15.7045 17.1514C16.1396 17.2346 16.59 17.1738 16.9875 16.9781C17.1224 17.3142 17.3698 17.5929 17.6874 17.7667C18.0051 17.9406 18.3732 17.9987 18.7289 17.9312C19.0847 17.8636 19.4059 17.6746 19.6378 17.3965C19.8696 17.1184 19.9976 16.7684 20 16.4063V15.2656C19.9992 14.5843 19.8271 13.914 19.4995 13.3166C19.1718 12.7192 18.6992 12.2138 18.125 11.8469ZM15.675 4.71877L10.0812 9.2219C9.79182 9.45261 9.43264 9.57825 9.0625 9.57825C8.69236 9.57825 8.33318 9.45261 8.04375 9.2219L2.45 4.71877H15.675ZM16.875 11.3344C16.6417 11.284 16.4042 11.2558 16.1656 11.25C15.154 11.2301 14.1747 11.607 13.4375 12.3L11.4344 10.8938L10.7156 11.9188L12.6656 13.2844C12.352 13.8594 12.1886 14.5044 12.1906 15.1594V15.2844H2.60938L7.4125 11.9188L6.69688 10.8938L1.25 14.7063V5.35627L7.25937 10.1938C7.77149 10.6025 8.40728 10.8251 9.0625 10.8251C9.71772 10.8251 10.3535 10.6025 10.8656 10.1938L16.875 5.35627V11.3344ZM16.0938 15.9375C15.9392 15.9375 15.7882 15.8917 15.6597 15.8059C15.5312 15.72 15.4311 15.598 15.372 15.4552C15.3128 15.3125 15.2974 15.1554 15.3275 15.0039C15.3577 14.8523 15.4321 14.7131 15.5413 14.6038C15.6506 14.4946 15.7898 14.4202 15.9413 14.39C16.0929 14.3599 16.25 14.3754 16.3927 14.4345C16.5355 14.4936 16.6575 14.5938 16.7433 14.7222C16.8292 14.8507 16.875 15.0018 16.875 15.1563C16.875 15.3635 16.7927 15.5622 16.6462 15.7087C16.4997 15.8552 16.301 15.9375 16.0938 15.9375Z" fill="white"/>
</svg>
