<svg width="24" height="24" viewBox="0 0 24 24" fill="none" xmlns="http://www.w3.org/2000/svg">
<path d="M5 6V5.5C5 4.557 5 4.086 5.293 3.793C5.586 3.5 6.057 3.5 7 3.5C7.943 3.5 8.414 3.5 8.707 3.793C9 4.086 9 4.557 9 5.5V6M15 5H18" stroke="#161559" stroke-width="1.5" stroke-linecap="round" stroke-linejoin="round"/>
<path d="M16 2H14.667C12.793 2 12 2.934 12 4.667C12 5.533 11.603 6 10.667 6H7C5.114 6 4.172 6 3.586 6.586C3 7.172 3 8.114 3 10V15C3 18.3 3 19.95 4.025 20.975C5.05 22 6.7 22 10 22H14C17.3 22 18.95 22 19.975 20.975C21 19.95 21 18.3 21 15V7C21 4.643 21 3.464 20.268 2.732C19.535 2 18.357 2 16 2Z" stroke="#161559" stroke-width="1.5" stroke-linecap="round" stroke-linejoin="round"/>
<path d="M9 14.587C9 13.123 10.264 11.676 11.15 10.84C11.3789 10.6211 11.6833 10.499 12 10.499C12.3167 10.499 12.6211 10.6211 12.85 10.84C13.736 11.676 15 13.123 15 14.587C14.9974 14.9762 14.9175 15.3609 14.7647 15.7189C14.612 16.0769 14.3895 16.4009 14.1103 16.672C13.8311 16.9431 13.5007 17.1559 13.1384 17.2981C12.7761 17.4402 12.3891 17.5089 12 17.5C10.136 17.5 9 16.023 9 14.587Z" stroke="#161559" stroke-width="1.5" stroke-linecap="round" stroke-linejoin="round"/>
</svg>
