<svg width="32" height="33" viewBox="0 0 32 33" fill="none" xmlns="http://www.w3.org/2000/svg">
<path d="M20 10.0476H12M20 15.381H12M20 20.7143H14.6666M6.66663 4.71429H25.3333V28.7143L23.9573 27.5356C23.474 27.1214 22.8585 26.8937 22.222 26.8937C21.5854 26.8937 20.9699 27.1214 20.4866 27.5356L19.1106 28.7143L17.736 27.5356C17.2526 27.1211 16.6368 26.8932 16 26.8932C15.3631 26.8932 14.7474 27.1211 14.264 27.5356L12.8893 28.7143L11.5133 27.5356C11.03 27.1214 10.4145 26.8937 9.77796 26.8937C9.14145 26.8937 8.52593 27.1214 8.04263 27.5356L6.66663 28.7143V4.71429Z" stroke="#161559" stroke-width="1.5" stroke-linecap="round" stroke-linejoin="round"/>
</svg>
