<svg width="32" height="32" viewBox="0 0 32 32" fill="none" xmlns="http://www.w3.org/2000/svg">
<g clip-path="url(#clip0_52_5609)">
<path d="M16 5.5C16.2967 5.5 16.5867 5.41203 16.8334 5.2472C17.08 5.08238 17.2723 4.84811 17.3858 4.57403C17.4993 4.29994 17.5291 3.99834 17.4712 3.70737C17.4133 3.41639 17.2704 3.14912 17.0607 2.93934C16.8509 2.72956 16.5836 2.5867 16.2926 2.52882C16.0017 2.47094 15.7001 2.50065 15.426 2.61418C15.1519 2.72771 14.9176 2.91997 14.7528 3.16665C14.588 3.41332 14.5 3.70333 14.5 4C14.5 4.39783 14.658 4.77936 14.9393 5.06066C15.2206 5.34197 15.6022 5.5 16 5.5ZM16 3.5C16.0989 3.5 16.1956 3.52933 16.2778 3.58427C16.36 3.63921 16.4241 3.7173 16.4619 3.80866C16.4998 3.90002 16.5097 4.00056 16.4904 4.09755C16.4711 4.19454 16.4235 4.28363 16.3536 4.35355C16.2836 4.42348 16.1945 4.4711 16.0975 4.49039C16.0006 4.50969 15.9 4.49978 15.8087 4.46194C15.7173 4.4241 15.6392 4.36001 15.5843 4.27779C15.5293 4.19556 15.5 4.09889 15.5 4C15.5 3.86739 15.5527 3.74022 15.6464 3.64645C15.7402 3.55268 15.8674 3.5 16 3.5Z" fill="#161559"/>
<path d="M31.239 22.6145C29.6475 21.6842 27.8637 21.1319 26.025 21C25.5137 20.9737 25.001 20.9905 24.4925 21.05C24.4605 18.5979 23.4698 16.2557 21.7325 14.525C21.4082 14.199 21.0224 13.9406 20.5976 13.7647C20.1728 13.5888 19.7173 13.4988 19.2575 13.5H17.5V11.5C17.7652 11.5 18.0196 11.3946 18.2071 11.2071C18.3946 11.0195 18.5 10.7652 18.5 10.5V9.49997C18.499 9.3239 18.451 9.15129 18.361 8.99997C18.451 8.84865 18.499 8.67604 18.5 8.49997V7.49997C18.4997 7.35761 18.4689 7.21697 18.4095 7.08757C18.3502 6.95817 18.2637 6.84304 18.156 6.74997C18.7299 6.30117 19.1495 5.68446 19.3562 4.98583C19.5629 4.2872 19.5464 3.54148 19.3091 2.85266C19.0717 2.16384 18.6253 1.56625 18.0322 1.14324C17.439 0.720219 16.7286 0.492859 16 0.492859C15.2714 0.492859 14.561 0.720219 13.9678 1.14324C13.3747 1.56625 12.9283 2.16384 12.6909 2.85266C12.4536 3.54148 12.4371 4.2872 12.6438 4.98583C12.8505 5.68446 13.2701 6.30117 13.844 6.74997C13.7362 6.843 13.6497 6.95812 13.5904 7.08753C13.531 7.21694 13.5002 7.3576 13.5 7.49997V8.49997C13.501 8.67604 13.549 8.84865 13.639 8.99997C13.549 9.15129 13.501 9.3239 13.5 9.49997V10.5C13.5 10.7652 13.6054 11.0195 13.7929 11.2071C13.9804 11.3946 14.2348 11.5 14.5 11.5V13.5H12.7425C12.2827 13.4988 11.8272 13.5888 11.4024 13.7647C10.9776 13.9406 10.5918 14.199 10.2675 14.525C8.54 16.2465 7.55077 18.573 7.5095 21.0115C7.14354 21.0128 6.77825 21.0429 6.417 21.1015C4.3095 21.4555 2.36 22.657 0.621 24.6735C0.54285 24.7643 0.499911 24.8802 0.5 25V31C0.5 31.1326 0.552679 31.2598 0.646447 31.3535C0.740215 31.4473 0.867392 31.5 1 31.5H31C31.1326 31.5 31.2598 31.4473 31.3536 31.3535C31.4473 31.2598 31.5 31.1326 31.5 31V23.054C31.5001 22.964 31.4758 22.8757 31.4299 22.7983C31.384 22.721 31.318 22.6575 31.239 22.6145ZM23.3265 19.5H8.6735C8.81743 18.8069 9.04878 18.1348 9.362 17.5H22.638C22.9512 18.1348 23.1826 18.8069 23.3265 19.5ZM17.5 10.5H14.5V9.49997H17.5V10.5ZM13.5 3.99997C13.5 3.50552 13.6466 3.02217 13.9213 2.61104C14.196 2.19992 14.5865 1.87949 15.0433 1.69027C15.5001 1.50105 16.0028 1.45154 16.4877 1.54801C16.9727 1.64447 17.4181 1.88257 17.7678 2.2322C18.1174 2.58183 18.3555 3.02729 18.452 3.51224C18.5484 3.9972 18.4989 4.49986 18.3097 4.95668C18.1205 5.41349 17.8 5.80394 17.3889 6.07864C16.9778 6.35335 16.4945 6.49997 16 6.49997C15.3372 6.49918 14.7018 6.23553 14.2331 5.76686C13.7644 5.29819 13.5008 4.66277 13.5 3.99997ZM17.5 7.49997V8.49997H14.5V7.49997H17.5ZM15.5 11.5H16.5V13.5H15.5V11.5ZM10.9745 15.2325C11.2062 14.9996 11.4817 14.8149 11.7852 14.6892C12.0886 14.5635 12.414 14.4992 12.7425 14.5H19.2575C19.5859 14.4992 19.9113 14.5634 20.2147 14.6891C20.5182 14.8147 20.7938 14.9992 21.0255 15.232C21.4134 15.62 21.7629 16.0446 22.069 16.5H9.931C10.2371 16.0448 10.5866 15.6203 10.9745 15.2325ZM8.5345 20.5H23.4655C23.485 20.734 23.5 20.9695 23.5 21.207V21.235C22.5998 21.4827 21.7317 21.8351 20.9135 22.285C19.7113 22.995 18.3622 23.4197 16.97 23.5265C14.7505 23.6525 13.2515 22.9315 11.8025 22.2295C10.7733 21.6685 9.66031 21.2772 8.5065 21.0705C8.5095 20.8798 8.51883 20.6896 8.5345 20.5ZM30.5 30.5H1.5V25.1875C3.05 23.4375 4.7595 22.394 6.583 22.0875C8.533 21.758 9.8475 22.395 11.3665 23.131C12.8585 23.854 14.549 24.6735 17.03 24.526C18.5598 24.4121 20.0433 23.9503 21.3675 23.176C22.6615 22.516 23.8855 21.8915 25.975 21.997C27.565 22.1099 29.1103 22.5733 30.5 23.354V30.5Z" fill="#161559"/>
</g>
<defs>
<clipPath id="clip0_52_5609">
<rect width="32" height="32" fill="white"/>
</clipPath>
</defs>
</svg>
