<svg width="24" height="24" viewBox="0 0 24 24" fill="none" xmlns="http://www.w3.org/2000/svg">
<g clip-path="url(#clip0_726_7907)">
<path d="M12 17.25L10.3958 16.4902C9.75488 16.1849 9.21338 15.7047 8.83372 15.1049C8.45405 14.5051 8.2517 13.8101 8.25 13.1002V8.25H15.75V13.101C15.7483 13.8109 15.5459 14.5058 15.1663 15.1056C14.7866 15.7054 14.2451 16.1857 13.6042 16.491L12 17.25ZM9.75 9.75V13.101C9.75115 13.5267 9.87267 13.9435 10.1005 14.3031C10.3284 14.6627 10.6533 14.9506 11.0378 15.1335L12 15.5895L12.9623 15.1343C13.3468 14.9513 13.6718 14.6633 13.8997 14.3035C14.1275 13.9438 14.249 13.5269 14.25 13.101V9.75H9.75ZM3.09 13.242C3.30444 13.0971 3.47773 12.8991 3.59301 12.6673C3.70829 12.4356 3.76164 12.1779 3.74788 11.9195C3.73411 11.661 3.65369 11.4105 3.51445 11.1923C3.3752 10.9741 3.18186 10.7957 2.95324 10.6743C2.72461 10.553 2.46847 10.4929 2.20973 10.4998C1.95098 10.5068 1.69844 10.5805 1.47666 10.714C1.25487 10.8474 1.07139 11.036 0.944058 11.2613C0.816726 11.4867 0.749873 11.7412 0.75 12C0.75 12.5918 1.095 13.098 1.593 13.3425C1.84206 15.318 2.64964 17.1813 3.9209 18.7138C5.19215 20.2462 6.87429 21.3841 8.76975 21.9938L9.23025 20.5658C7.62019 20.0486 6.18931 19.0864 5.10291 17.7905C4.01651 16.4945 3.31818 14.9176 3.09 13.242ZM21.9945 15.231L20.5665 14.769C20.0494 16.3792 19.0873 17.8102 17.7914 18.8968C16.4954 19.9833 14.9185 20.681 13.2428 20.9093C13.0977 20.695 12.8997 20.5218 12.668 20.4067C12.4363 20.2916 12.1787 20.2383 11.9204 20.2521C11.662 20.266 11.4116 20.3464 11.1935 20.4856C10.9754 20.6248 10.797 20.8181 10.6757 21.0466C10.5543 21.2751 10.4942 21.5312 10.501 21.7898C10.5079 22.0485 10.5816 22.301 10.7149 22.5227C10.8482 22.7445 11.0366 22.928 11.2617 23.0555C11.4869 23.1829 11.7413 23.2499 12 23.25C12.5918 23.25 13.098 22.905 13.3425 22.407C15.3179 22.158 17.1812 21.3505 18.7136 20.0794C20.246 18.8083 21.3847 17.1263 21.9945 15.231ZM22.407 10.6575C22.1579 8.68204 21.3504 6.81867 20.0791 5.28623C18.8078 3.75379 17.1257 2.61592 15.2302 2.00625L14.7698 3.43425C16.3798 3.95144 17.8107 4.91359 18.8971 6.20955C19.9835 7.50551 20.6811 9.08238 20.9093 10.758C20.6949 10.903 20.5218 11.1011 20.4067 11.3328C20.2915 11.5646 20.2383 11.8222 20.2522 12.0806C20.266 12.339 20.3465 12.5894 20.4858 12.8075C20.625 13.0256 20.8183 13.204 21.0469 13.3253C21.2755 13.4466 21.5316 13.5066 21.7903 13.4997C22.049 13.4927 22.3015 13.419 22.5232 13.2856C22.745 13.1522 22.9284 12.9637 23.0558 12.7384C23.1831 12.5132 23.25 12.2588 23.25 12C23.2498 11.7197 23.1707 11.4451 23.0218 11.2077C22.8728 10.9703 22.66 10.7796 22.4078 10.6575M12 0.75C11.4082 0.75 10.902 1.095 10.6575 1.593C8.68213 1.842 6.81882 2.64947 5.28639 3.92058C3.75396 5.1917 2.61603 6.87368 2.00625 8.769L3.43425 9.231C3.95132 7.6208 4.91342 6.18976 6.20939 5.10322C7.50535 4.01668 9.08229 3.31899 10.758 3.09075C10.903 3.30506 11.1011 3.4782 11.3328 3.59334C11.5646 3.70848 11.8222 3.76171 12.0806 3.74785C12.339 3.73399 12.5894 3.65351 12.8075 3.51425C13.0256 3.37498 13.204 3.18165 13.3253 2.95306C13.4466 2.72447 13.5066 2.46839 13.4997 2.2097C13.4927 1.95102 13.419 1.69853 13.2856 1.47679C13.1522 1.25504 12.9637 1.07157 12.7384 0.944221C12.5132 0.816868 12.2588 0.74996 12 0.75Z" fill="#161559"/>
</g>
<defs>
<clipPath id="clip0_726_7907">
<rect width="24" height="24" fill="white"/>
</clipPath>
</defs>
</svg>
