<svg width="20" height="20" viewBox="0 0 20 20" fill="none" xmlns="http://www.w3.org/2000/svg">
<path fill-rule="evenodd" clip-rule="evenodd" d="M3.5332 8.65948C3.54521 5.12566 6.41967 2.27066 9.95349 2.28263C13.4873 2.29467 16.3423 5.16914 16.3303 8.70296V8.77542C16.2868 11.0725 15.0042 13.1957 13.4318 14.8551C12.5325 15.789 11.5282 16.6157 10.439 17.3189C10.1478 17.5708 9.71575 17.5708 9.42451 17.3189C7.80076 16.262 6.37565 14.9277 5.21436 13.3769C4.17933 12.0246 3.59167 10.3832 3.5332 8.68122V8.65948Z" stroke="white" stroke-width="1.5" stroke-linecap="round" stroke-linejoin="round"/>
<path d="M9.93169 10.8334C11.0643 10.8334 11.9825 9.91517 11.9825 8.78252C11.9825 7.64988 11.0643 6.73169 9.93169 6.73169C8.79905 6.73169 7.88086 7.64988 7.88086 8.78252C7.88086 9.91517 8.79905 10.8334 9.93169 10.8334Z" stroke="white" stroke-width="1.5" stroke-linecap="round" stroke-linejoin="round"/>
</svg>
