<svg width="32" height="32" viewBox="0 0 32 32" fill="none" xmlns="http://www.w3.org/2000/svg">
<g clip-path="url(#clip0_52_5597)">
<path d="M15.5001 3.93417V5.5H16.5001V3.93417C16.9715 3.81248 17.3822 3.52306 17.6554 3.12017C17.9286 2.71728 18.0455 2.22858 17.9842 1.74567C17.9228 1.26277 17.6875 0.818806 17.3222 0.497011C16.957 0.175217 16.4869 -0.00231934 16.0001 -0.00231934C15.5133 -0.00231934 15.0433 0.175217 14.678 0.497011C14.3128 0.818806 14.0774 1.26277 14.0161 1.74567C13.9547 2.22858 14.0716 2.71728 14.3448 3.12017C14.618 3.52306 15.0288 3.81248 15.5001 3.93417ZM16.0001 1C16.1979 1 16.3912 1.05865 16.5557 1.16853C16.7201 1.27841 16.8483 1.43459 16.924 1.61732C16.9997 1.80004 17.0195 2.00111 16.9809 2.19509C16.9423 2.38907 16.8471 2.56725 16.7072 2.70711C16.5674 2.84696 16.3892 2.9422 16.1952 2.98079C16.0012 3.01937 15.8002 2.99957 15.6174 2.92388C15.4347 2.84819 15.2785 2.72002 15.1687 2.55557C15.0588 2.39112 15.0001 2.19778 15.0001 2C15.0004 1.73488 15.1059 1.4807 15.2934 1.29323C15.4808 1.10576 15.735 1.0003 16.0001 1ZM9.00354 5.87525C9.18312 5.87479 9.36181 5.85 9.53473 5.80157L10.4925 7.46048C11.0088 7.45244 11.5081 7.64497 11.8853 7.99756C11.9038 7.98804 11.9228 7.97953 11.9414 7.97015L10.4002 5.3007C10.7476 4.95992 10.9588 4.50407 10.9941 4.01868C11.0293 3.53329 10.8863 3.05171 10.5917 2.66428C10.2972 2.27685 9.87144 2.0102 9.3943 1.91435C8.91717 1.8185 8.42145 1.90004 8.00015 2.14366C7.55074 2.41799 7.22407 2.85467 7.08779 3.36324C6.95151 3.87181 7.01605 4.41332 7.26807 4.87561C7.44405 5.17999 7.69711 5.43264 8.00177 5.60813C8.30643 5.78361 8.65195 5.87575 9.00354 5.87525ZM8.04407 3.61937C8.10955 3.36385 8.27351 3.14464 8.50012 3.00964C8.73053 2.88021 9.00243 2.84603 9.2577 2.91442C9.51297 2.98281 9.73137 3.14833 9.86621 3.37561C9.95106 3.51775 9.99929 3.67872 10.0066 3.84409C10.0139 4.00946 9.98005 4.17406 9.90808 4.32312C9.8361 4.47218 9.72825 4.60105 9.5942 4.69817C9.46015 4.79529 9.3041 4.85761 9.14003 4.87956C8.97596 4.90151 8.809 4.88239 8.65414 4.82392C8.49928 4.76546 8.36135 4.66946 8.25272 4.54456C8.1441 4.41965 8.06817 4.26974 8.03176 4.10826C7.99534 3.94679 7.99957 3.77881 8.04407 3.61937ZM2.87573 10.7321C3.26136 10.9471 3.70641 11.031 4.14386 10.9712C4.58131 10.9113 4.98748 10.711 5.30119 10.4003L7.97037 11.9413C7.97977 11.9227 7.98829 11.9037 7.99781 11.8851C7.65055 11.5155 7.45789 11.027 7.45935 10.5199C7.45935 10.5107 7.46057 10.5016 7.4607 10.4924L5.80078 9.53409C5.90059 9.17381 5.89736 8.79275 5.79146 8.43421C5.68556 8.07567 5.48124 7.75401 5.20169 7.50577C4.92215 7.25753 4.5786 7.09266 4.21006 7.02988C3.84151 6.9671 3.46275 7.00893 3.11678 7.15062C2.77082 7.29232 2.47153 7.52819 2.25289 7.83144C2.03426 8.1347 1.90506 8.4932 1.87995 8.86621C1.85484 9.23922 1.93485 9.61179 2.11087 9.94161C2.28689 10.2714 2.55188 10.5453 2.87573 10.7321ZM3.00976 8.5C3.07543 8.38627 3.16284 8.28659 3.26703 8.20665C3.37121 8.1267 3.49012 8.06806 3.61697 8.03407C3.74382 8.00008 3.87612 7.99141 4.00632 8.00855C4.13652 8.02569 4.26206 8.06831 4.37579 8.13397C4.48952 8.19963 4.5892 8.28705 4.66915 8.39124C4.74909 8.49542 4.80773 8.61433 4.84172 8.74118C4.87571 8.86803 4.88438 9.00033 4.86724 9.13053C4.8501 9.26072 4.80748 9.38627 4.74182 9.5C4.60904 9.7295 4.39063 9.89694 4.13452 9.96558C3.87842 10.0342 3.60554 9.99845 3.37578 9.86612C3.1504 9.72953 2.98649 9.51116 2.91829 9.2566C2.85009 9.00204 2.88286 8.73097 3.00976 8.5ZM3.93429 16.5H5.50012V15.5H3.93429C3.8126 15.0287 3.52318 14.6179 3.12029 14.3447C2.7174 14.0715 2.2287 13.9546 1.74579 14.0159C1.26289 14.0773 0.818928 14.3126 0.497133 14.6779C0.175339 15.0431 -0.00219727 15.5132 -0.00219727 16C-0.00219727 16.4868 0.175339 16.9569 0.497133 17.3221C0.818928 17.6874 1.26289 17.9227 1.74579 17.9841C2.2287 18.0454 2.7174 17.9285 3.12029 17.6553C3.52318 17.3821 3.8126 16.9713 3.93429 16.5ZM1.00012 16C1.00012 15.8022 1.05877 15.6089 1.16865 15.4444C1.27853 15.28 1.43471 15.1518 1.61744 15.0761C1.80016 15.0004 2.00123 14.9806 2.19521 15.0192C2.38919 15.0578 2.56738 15.153 2.70723 15.2929C2.84708 15.4327 2.94232 15.6109 2.98091 15.8049C3.01949 15.9989 2.99969 16.2 2.924 16.3827C2.84831 16.5654 2.72014 16.7216 2.55569 16.8315C2.39124 16.9414 2.1979 17 2.00012 17C1.735 16.9997 1.48082 16.8942 1.29335 16.7068C1.10588 16.5193 1.00042 16.2651 1.00012 16ZM16.5001 28.0658V26.5H15.5001V28.0658C15.0288 28.1875 14.618 28.4769 14.3448 28.8798C14.0716 29.2827 13.9547 29.7714 14.0161 30.2543C14.0774 30.7372 14.3128 31.1812 14.678 31.503C15.0433 31.8248 15.5133 32.0023 16.0001 32.0023C16.4869 32.0023 16.957 31.8248 17.3222 31.503C17.6875 31.1812 17.9228 30.7372 17.9842 30.2543C18.0455 29.7714 17.9286 29.2827 17.6554 28.8798C17.3822 28.4769 16.9715 28.1875 16.5001 28.0658ZM16.0001 31C15.8023 31 15.609 30.9414 15.4446 30.8315C15.2801 30.7216 15.1519 30.5654 15.0762 30.3827C15.0006 30.2 14.9808 29.9989 15.0193 29.8049C15.0579 29.6109 15.1532 29.4327 15.293 29.2929C15.4329 29.153 15.6111 29.0578 15.805 29.0192C15.999 28.9806 16.2001 29.0004 16.3828 29.0761C16.5655 29.1518 16.7217 29.28 16.8316 29.4444C16.9415 29.6089 17.0001 29.8022 17.0001 30C16.9998 30.2651 16.8944 30.5193 16.7069 30.7068C16.5194 30.8943 16.2653 30.9997 16.0001 31ZM22.466 26.1994L21.5074 24.5391C20.9913 24.5471 20.4922 24.3547 20.115 24.0024C20.0965 24.012 20.0774 24.0205 20.0588 24.0299L21.5996 26.6987C21.3441 26.9481 21.1605 27.2617 21.0682 27.6067C20.9309 28.119 21.0028 28.665 21.268 29.1244C21.5332 29.5837 21.97 29.919 22.4824 30.0563C22.9948 30.1936 23.5407 30.1217 24.0001 29.8565C24.4595 29.5913 24.7947 29.1545 24.932 28.6421C25.0234 28.3017 25.0231 27.9431 24.9311 27.6028C24.8392 27.2625 24.6588 26.9526 24.4084 26.7046C24.158 26.4565 23.8464 26.2791 23.5052 26.1904C23.1641 26.1017 22.8055 26.1048 22.466 26.1994ZM23.9571 28.3809C23.8912 28.6364 23.7269 28.8556 23.5001 28.9905C23.3674 29.0671 23.2187 29.1122 23.0658 29.1223C22.9128 29.1324 22.7595 29.1071 22.6179 29.0485C22.4762 28.9899 22.3499 28.8995 22.2487 28.7843C22.1476 28.6691 22.0743 28.5321 22.0345 28.3841C21.9947 28.236 21.9894 28.0808 22.0192 27.9304C22.049 27.78 22.1129 27.6384 22.2061 27.5167C22.2993 27.395 22.4192 27.2963 22.5566 27.2283C22.694 27.1603 22.8452 27.1248 22.9985 27.1245C23.1519 27.123 23.3036 27.1574 23.4414 27.2247C23.5792 27.2921 23.6994 27.3907 23.7925 27.5127C23.8855 27.6346 23.9488 27.7766 23.9774 27.9273C24.006 28.078 23.9991 28.2333 23.9571 28.3809ZM29.1244 21.2678C28.7404 21.0473 28.2941 20.9604 27.8554 21.0204C27.4166 21.0805 27.0102 21.2843 26.6996 21.5999L24.0301 20.0587C24.0206 20.0773 24.0121 20.0964 24.0026 20.115C24.3551 20.4922 24.5476 20.9915 24.5396 21.5077L26.1994 22.466C26.0812 22.8929 26.1079 23.3469 26.2753 23.7569C26.4427 24.167 26.7413 24.5099 27.1245 24.7322C27.5857 24.9889 28.1288 25.056 28.6387 24.9194C29.1486 24.7827 29.5854 24.453 29.8564 24C30.1211 23.5405 30.1926 22.9947 30.0554 22.4825C29.9181 21.9703 29.5833 21.5335 29.1244 21.2678ZM28.9905 23.5C28.8916 23.6713 28.7441 23.8094 28.5667 23.8969C28.3894 23.9844 28.19 24.0173 27.9939 23.9915C27.7978 23.9656 27.6138 23.8823 27.4651 23.7518C27.3164 23.6214 27.2097 23.4499 27.1585 23.2588C27.1073 23.0678 27.1139 22.8658 27.1775 22.6785C27.2411 22.4913 27.3588 22.327 27.5157 22.2066C27.6726 22.0862 27.8617 22.0151 28.0591 22.0022C28.2565 21.9892 28.4532 22.0351 28.6245 22.134C28.8541 22.2667 29.0215 22.4852 29.0902 22.7413C29.1588 22.9974 29.1229 23.2703 28.9905 23.5ZM30.0001 14C29.5572 14.0008 29.1271 14.1485 28.7771 14.4199C28.4271 14.6914 28.177 15.0712 28.066 15.5H26.5001V16.5H28.066C28.1597 16.8619 28.353 17.1903 28.624 17.4479C28.895 17.7055 29.2327 17.8819 29.599 17.9571C29.9652 18.0323 30.3452 18.0034 30.6957 17.8734C31.0463 17.7435 31.3534 17.5179 31.5822 17.2222C31.811 16.9265 31.9522 16.5726 31.99 16.2006C32.0277 15.8287 31.9603 15.4536 31.7955 15.118C31.6308 14.7824 31.3752 14.4997 31.0578 14.3021C30.7404 14.1045 30.374 13.9998 30.0001 14ZM30.0001 17C29.8023 17 29.609 16.9414 29.4446 16.8315C29.2801 16.7216 29.1519 16.5654 29.0762 16.3827C29.0006 16.2 28.9808 15.9989 29.0193 15.8049C29.0579 15.6109 29.1532 15.4327 29.293 15.2929C29.4329 15.153 29.611 15.0578 29.805 15.0192C29.999 14.9806 30.2001 15.0004 30.3828 15.0761C30.5655 15.1518 30.7217 15.28 30.8316 15.4444C30.9415 15.6089 31.0001 15.8022 31.0001 16C30.9998 16.2651 30.8944 16.5193 30.7069 16.7068C30.5194 16.8943 30.2653 16.9997 30.0001 17ZM7.46066 21.5077C7.45258 20.9914 7.6451 20.4922 7.99768 20.115C7.98813 20.0964 7.9796 20.0773 7.97018 20.0587L5.30073 21.5999C4.95992 21.2525 4.50409 21.0414 4.01872 21.0062C3.53336 20.971 3.05183 21.114 2.66443 21.4085C2.27704 21.7031 2.01041 22.1288 1.91456 22.6059C1.81871 23.083 1.90021 23.5787 2.14379 24C2.41865 24.4488 2.85531 24.775 3.36366 24.9112C3.87201 25.0475 4.41326 24.9834 4.87573 24.7322C5.25888 24.51 5.55752 24.167 5.72491 23.7569C5.8923 23.3469 5.91899 22.8929 5.8008 22.466L7.46066 21.5077ZM4.37573 23.866C4.262 23.9319 4.13639 23.9747 4.00609 23.992C3.87579 24.0093 3.74335 24.0008 3.61635 23.9669C3.48936 23.9329 3.3703 23.8743 3.26598 23.7943C3.16166 23.7144 3.07413 23.6146 3.00841 23.5008C2.94268 23.3869 2.90004 23.2613 2.88293 23.1309C2.86582 23.0006 2.87458 22.8682 2.90869 22.7412C2.94281 22.6143 3.00162 22.4953 3.08176 22.3911C3.1619 22.2869 3.26179 22.1996 3.37573 22.134C3.60542 22.0016 3.87831 21.9655 4.13439 22.0342C4.39048 22.1029 4.6088 22.2705 4.74136 22.5001C4.87393 22.7297 4.90988 23.0026 4.84131 23.2587C4.77275 23.5149 4.60528 23.7333 4.37573 23.866ZM11.8853 24.0024C11.508 24.3549 11.0088 24.5474 10.4926 24.5394L9.5343 26.1993C9.10746 26.0809 8.6534 26.1075 8.24329 26.2749C7.83319 26.4423 7.4902 26.741 7.26807 27.1243C7.01389 27.5861 6.94814 28.1284 7.08457 28.6376C7.22101 29.1468 7.54907 29.5835 8.00012 29.8564C8.46065 30.1166 9.00488 30.1856 9.51578 30.0487C10.0267 29.9118 10.4635 29.5799 10.7322 29.1243C10.9447 28.738 11.0272 28.2935 10.9675 27.8567C10.9077 27.4199 10.709 27.0138 10.4006 26.6987L11.9415 24.0299C11.9228 24.0205 11.9038 24.012 11.8853 24.0024ZM9.86621 28.6243C9.75057 28.8245 9.56907 28.9785 9.35263 29.06C9.13619 29.1414 8.8982 29.1453 8.67922 29.071C8.46023 28.9966 8.2738 28.8487 8.15168 28.6523C8.02955 28.4559 7.97929 28.2232 8.00947 27.994C8.03964 27.7647 8.14837 27.553 8.31714 27.3949C8.48592 27.2368 8.70428 27.1421 8.93505 27.1269C9.16581 27.1118 9.39468 27.1771 9.58268 27.3118C9.77068 27.4464 9.90617 27.6421 9.96606 27.8655C10.0004 27.9923 10.0093 28.1246 9.99214 28.2549C9.975 28.3851 9.9322 28.5107 9.86621 28.6243ZM24.5395 10.4924C24.5397 10.5016 24.5409 10.5107 24.5409 10.5199C24.5423 11.027 24.3497 11.5155 24.0024 11.8851C24.012 11.9037 24.0205 11.9227 24.0299 11.9413L26.699 10.4003C27.0398 10.7477 27.4957 10.9589 27.9811 10.9941C28.4665 11.0294 28.9481 10.8863 29.3356 10.5918C29.7231 10.2973 29.9897 9.8715 30.0856 9.39435C30.1815 8.9172 30.1001 8.42145 29.8565 8.0001C29.5858 7.54667 29.1491 7.21657 28.639 7.07987C28.1289 6.94318 27.5857 7.01064 27.1245 7.26794C26.7413 7.4901 26.4426 7.83307 26.2752 8.24315C26.1078 8.65323 26.0812 9.10724 26.1994 9.53409L24.5395 10.4924ZM27.6245 8.13391C27.8542 8.00147 28.1271 7.96566 28.3832 8.03436C28.6393 8.10306 28.8576 8.27064 28.9901 8.50027C29.1227 8.72989 29.1587 9.00275 29.0901 9.25887C29.0215 9.51499 28.8541 9.73341 28.6245 9.86609C28.5108 9.93183 28.3852 9.97452 28.2549 9.99172C28.1247 10.0089 27.9923 10.0003 27.8654 9.9663C27.7385 9.93233 27.6196 9.87369 27.5153 9.79372C27.4111 9.71376 27.3236 9.61404 27.258 9.50027C27.1923 9.38649 27.1497 9.26089 27.1325 9.13064C27.1154 9.00038 27.1241 8.86803 27.1581 8.74115C27.1922 8.61426 27.2509 8.49532 27.3309 8.39113C27.4109 8.28694 27.5107 8.19954 27.6245 8.13391ZM20.115 7.99756C20.4922 7.64493 20.9915 7.4524 21.5077 7.46048L22.4655 5.80156C22.9349 5.93257 23.436 5.88788 23.8747 5.67587C24.3135 5.46385 24.6599 5.09908 24.8489 4.64993C25.038 4.20077 25.0567 3.69809 24.9016 3.23611C24.7465 2.77414 24.4283 2.38459 24.0065 2.14051C23.5847 1.89643 23.0884 1.81457 22.6105 1.91028C22.1327 2.00599 21.7062 2.2727 21.411 2.6604C21.1157 3.04811 20.9721 3.53019 21.0069 4.01626C21.0417 4.50233 21.2526 4.95902 21.6 5.3007L20.0589 7.97014C20.0774 7.97952 20.0965 7.98804 20.115 7.99756ZM22.134 3.37561C22.2667 3.14606 22.4851 2.97859 22.7412 2.91003C22.9974 2.84147 23.2702 2.87742 23.4999 3.00998C23.7295 3.14254 23.8971 3.36086 23.9658 3.61695C24.0345 3.87303 23.9986 4.14592 23.8662 4.37561C23.8006 4.48942 23.7132 4.58918 23.609 4.6692C23.5048 4.74922 23.3859 4.80793 23.259 4.84197C23.1321 4.87601 22.9997 4.88472 22.8695 4.86759C22.7392 4.85046 22.6136 4.80784 22.4999 4.74216C22.3861 4.67647 22.2864 4.58902 22.2064 4.48478C22.1264 4.38055 22.0678 4.26158 22.0338 4.13468C21.9998 4.00777 21.9912 3.87542 22.0084 3.74517C22.0256 3.61493 22.0683 3.48935 22.134 3.37561Z" fill="#161559"/>
<path d="M24.5 17.75C24.7651 17.7497 25.0193 17.6443 25.2068 17.4568C25.3943 17.2693 25.4997 17.0151 25.5 16.75V15.25C25.4997 14.9849 25.3942 14.7307 25.2068 14.5432C25.0193 14.3558 24.7651 14.2503 24.5 14.25H23.8057C23.6034 13.3523 23.2484 12.4961 22.7562 11.7186L23.2477 11.227C23.4337 11.0387 23.5379 10.7847 23.538 10.52C23.538 10.2553 23.4337 10.0012 23.2478 9.81287L22.1871 8.7522C21.9994 8.565 21.7451 8.45987 21.48 8.45987C21.2149 8.45987 20.9607 8.565 20.7729 8.7522L20.2814 9.24365C19.5039 8.75149 18.6477 8.39656 17.75 8.19433V7.5C17.7497 7.23488 17.6442 6.9807 17.4568 6.79323C17.2693 6.60576 17.0151 6.5003 16.75 6.5H15.25C14.9849 6.5003 14.7307 6.60576 14.5432 6.79323C14.3558 6.9807 14.2503 7.23488 14.25 7.5V8.19433C13.3523 8.39656 12.4961 8.75149 11.7186 9.24365L11.227 8.7522C11.0394 8.56494 10.7851 8.45978 10.52 8.45978C10.2548 8.45978 10.0005 8.56494 9.81287 8.7522L8.75234 9.81272C8.57154 10.0037 8.47076 10.2568 8.47071 10.5198C8.47066 10.7828 8.57134 11.0358 8.75208 11.2269L9.24365 11.7186C8.75149 12.4961 8.39656 13.3523 8.19433 14.25H7.5C7.23488 14.2503 6.9807 14.3558 6.79323 14.5432C6.60576 14.7307 6.5003 14.9849 6.5 15.25V16.75C6.50028 17.0151 6.60573 17.2693 6.79321 17.4568C6.98068 17.6443 7.23487 17.7497 7.5 17.75H8.19433C8.3966 18.6477 8.75153 19.504 9.24365 20.2815L8.7522 20.7729C8.56489 20.9606 8.45969 21.2149 8.45969 21.4801C8.45969 21.7453 8.56489 21.9996 8.7522 22.1873L9.81287 23.2478C10.0005 23.4352 10.2548 23.5404 10.52 23.5404C10.7852 23.5404 11.0395 23.4352 11.2272 23.2478L11.7186 22.7561C12.496 23.2485 13.3523 23.6035 14.25 23.8057V24.5C14.2503 24.7651 14.3557 25.0193 14.5432 25.2068C14.7307 25.3943 14.9849 25.4997 15.25 25.5H16.75C17.0151 25.4997 17.2693 25.3943 17.4568 25.2068C17.6443 25.0193 17.7497 24.7651 17.75 24.5V23.8057C18.6477 23.6033 19.5039 23.2483 20.2814 22.7561L20.7729 23.2478C20.9605 23.4352 21.2149 23.5405 21.48 23.5405C21.7452 23.5405 21.9995 23.4352 22.1871 23.2478L23.2478 22.1873C23.4351 21.9996 23.5403 21.7453 23.5403 21.4801C23.5403 21.2149 23.4351 20.9606 23.2478 20.7729L22.7563 20.2815C23.2485 19.504 23.6034 18.6477 23.8057 17.75H24.5ZM22.9011 17.1672C22.7281 18.2083 22.3188 19.1959 21.7046 20.0542L21.4593 20.3987L22.5408 21.4802L21.4801 22.5408L20.3987 21.4592L20.0541 21.7046C19.1958 22.3186 18.2082 22.7279 17.1672 22.9011L16.75 22.9712V24.5H15.25V22.9712L14.8328 22.9011C13.7917 22.728 12.8042 22.3187 11.9459 21.7046L11.6013 21.4592L10.5199 22.5408L9.45923 21.48L10.5406 20.3987L10.2954 20.0542C9.68123 19.1959 9.27191 18.2083 9.09886 17.1672L9.02881 16.75H7.5V15.25H9.02881L9.09888 14.8328C9.27192 13.7917 9.68124 12.8041 10.2954 11.9459L10.5407 11.6014L9.45924 10.5199L10.52 9.45923L11.6014 10.5406L11.9459 10.2954C12.8042 9.68123 13.7917 9.27191 14.8328 9.09886L15.25 9.02881V7.5H16.75V9.02881L17.1672 9.09888C18.2083 9.27192 19.1959 9.68124 20.0541 10.2954L20.3986 10.5407L21.4801 9.45924L22.5408 10.5199L21.4592 11.6014L21.7045 11.9459C22.3187 12.8041 22.7281 13.7917 22.9011 14.8328L22.9712 15.25H24.5V16.75H22.9712L22.9011 17.1672Z" fill="#161559"/>
<path d="M16 11.75C15.1594 11.75 14.3377 11.9993 13.6388 12.4663C12.9399 12.9333 12.3952 13.597 12.0735 14.3736C11.7518 15.1502 11.6677 16.0047 11.8317 16.8291C11.9957 17.6536 12.4004 18.4108 12.9948 19.0052C13.5892 19.5996 14.3464 20.0043 15.1709 20.1683C15.9953 20.3323 16.8498 20.2482 17.6264 19.9265C18.403 19.6048 19.0668 19.0601 19.5337 18.3612C20.0007 17.6623 20.25 16.8406 20.25 16C20.2487 14.8732 19.8006 13.7929 19.0038 12.9962C18.2071 12.1994 17.1268 11.7513 16 11.75ZM16 19.25C15.3572 19.25 14.7289 19.0594 14.1944 18.7023C13.6599 18.3452 13.2434 17.8376 12.9974 17.2437C12.7514 16.6499 12.687 15.9964 12.8124 15.366C12.9379 14.7355 13.2474 14.1564 13.7019 13.7019C14.1564 13.2474 14.7355 12.9378 15.366 12.8124C15.9964 12.687 16.6499 12.7514 17.2437 12.9974C17.8376 13.2434 18.3452 13.6599 18.7023 14.1944C19.0594 14.7289 19.25 15.3572 19.25 16C19.249 16.8617 18.9063 17.6877 18.297 18.297C17.6877 18.9063 16.8617 19.249 16 19.25Z" fill="#161559"/>
</g>
<defs>
<clipPath id="clip0_52_5597">
<rect width="32" height="32" fill="white"/>
</clipPath>
</defs>
</svg>
