<svg width="32" height="32" viewBox="0 0 32 32" fill="none" xmlns="http://www.w3.org/2000/svg">
<g clip-path="url(#clip0_99_3462)">
<path d="M23.485 12.088L23.5 6.50128C23.4999 6.30297 23.4409 6.10917 23.3304 5.9445C23.2199 5.77983 23.0629 5.65174 22.8794 5.57649C22.696 5.50125 22.4942 5.48225 22.2999 5.52192C22.1057 5.56159 21.9275 5.65813 21.7882 5.79928C20.4937 7.12128 17.1752 10.5043 9.7635 11.6948C9.6283 11.4821 9.44164 11.3069 9.22079 11.1855C8.99994 11.064 8.75203 11.0003 8.5 11H4C3.67466 11.0006 3.3583 11.1068 3.09851 11.3026C2.83873 11.4985 2.64957 11.7734 2.5595 12.086C2.26075 12.0755 1.9595 12.0635 1.651 12.046C1.4456 12.0351 1.24015 12.0665 1.04734 12.1381C0.854525 12.2097 0.678454 12.3201 0.530005 12.4625C0.365995 12.618 0.235201 12.805 0.145524 13.0125C0.0558478 13.2199 0.00915109 13.4433 0.00825563 13.6693L5.63544e-06 16.753C-0.000589288 16.9823 0.0459256 17.2092 0.136666 17.4198C0.227406 17.6303 0.360436 17.82 0.527505 17.977C0.675072 18.1185 0.85052 18.2275 1.04264 18.2973C1.23476 18.3671 1.43932 18.396 1.64325 18.3823C1.947 18.361 2.24375 18.3453 2.53825 18.3313C2.61147 18.6521 2.78812 18.94 3.041 19.1506C3.29387 19.3612 3.60896 19.4828 3.93775 19.4968C4.1335 19.8978 4.32275 20.2968 4.484 20.6475C5.2865 22.2115 4.88875 24.271 4.6805 25.084C4.64582 25.2141 4.64728 25.3512 4.68472 25.4806C4.72216 25.6099 4.79418 25.7266 4.893 25.818C4.98756 25.9015 5.10251 25.9585 5.2262 25.9831C5.34989 26.0078 5.47791 25.9993 5.59725 25.9585L9.009 24.738C9.10396 24.7033 9.19084 24.6496 9.26431 24.5801C9.33777 24.5106 9.39628 24.4269 9.43625 24.334C9.47784 24.2387 9.49951 24.1358 9.49994 24.0318C9.50037 23.9278 9.47955 23.8247 9.43875 23.729L8.0075 20.4208C7.86665 20.1213 7.74336 19.8138 7.63825 19.5H8.5C8.77391 19.4997 9.04252 19.4245 9.27671 19.2824C9.51089 19.1403 9.70172 18.9368 9.8285 18.694C17.0722 19.8865 20.4215 23.339 21.7342 24.6945C21.8734 24.8367 22.0514 24.9346 22.246 24.9759C22.4406 25.0172 22.6431 25 22.828 24.9265C23.0122 24.8529 23.1702 24.7258 23.2815 24.5615C23.3928 24.3973 23.4524 24.2034 23.4525 24.005L23.4675 18.42C24.0726 18.1422 24.5856 17.6969 24.9457 17.1369C25.3059 16.5769 25.4983 15.9255 25.5002 15.2596C25.502 14.5938 25.3132 13.9413 24.9561 13.3793C24.599 12.8173 24.0886 12.3692 23.485 12.088ZM2.5 17.331C2.195 17.346 1.88725 17.3628 1.5735 17.3848C1.50674 17.3879 1.44004 17.3773 1.37758 17.3535C1.31512 17.3297 1.25824 17.2933 1.2105 17.2465C1.14411 17.1832 1.09123 17.1071 1.05506 17.0228C1.01888 16.9385 1.00015 16.8478 1 16.756L1.0085 13.672C1.00924 13.582 1.02797 13.4929 1.0636 13.4102C1.09924 13.3275 1.15105 13.2527 1.216 13.1903C1.26565 13.1412 1.32489 13.1029 1.39001 13.0777C1.45513 13.0525 1.52475 13.0411 1.5945 13.044C1.89925 13.0615 2.20025 13.0735 2.5 13.084V17.331ZM8.4175 23.8875L5.76225 24.8375C5.98725 23.7275 6.19275 21.7875 5.38325 20.2105C5.324 20.0815 5.20425 19.823 5.05075 19.5H6.587C6.7227 19.9565 6.89303 20.402 7.0965 20.8325L8.4175 23.8875ZM9 18C8.99987 18.1326 8.94715 18.2597 8.85341 18.3534C8.75967 18.4472 8.63257 18.4999 8.5 18.5H4C3.86744 18.4999 3.74034 18.4472 3.6466 18.3534C3.55286 18.2597 3.50014 18.1326 3.5 18V12.5C3.50014 12.3675 3.55286 12.2404 3.6466 12.1466C3.74034 12.0529 3.86744 12.0002 4 12H8.5C8.63257 12.0002 8.75967 12.0529 8.85341 12.1466C8.94715 12.2404 8.99987 12.3675 9 12.5V18ZM22.5 24L22.4525 23.9988C21.0755 22.577 17.5567 18.95 10 17.7068V12.6585C12.1874 12.316 14.3214 11.6924 16.349 10.803C18.6636 9.78941 20.7543 8.32687 22.5 6.50003V24ZM23.4707 17.266L23.4817 13.2415C23.7983 13.4734 24.0556 13.7768 24.2325 14.1269C24.4095 14.4771 24.5012 14.8642 24.5002 15.2566C24.4991 15.6489 24.4053 16.0355 24.2264 16.3847C24.0475 16.7339 23.7886 17.0359 23.4707 17.266ZM26.75 13.75C26.8157 13.7501 26.8807 13.7372 26.9414 13.7121C27.002 13.6869 27.0571 13.65 27.1035 13.6035L28.6035 12.1035C28.6946 12.0092 28.745 11.8829 28.7438 11.7518C28.7427 11.6207 28.6901 11.4953 28.5974 11.4026C28.5047 11.3099 28.3793 11.2573 28.2482 11.2562C28.1171 11.2551 27.9908 11.3054 27.8965 11.3965L26.3965 12.8965C26.3266 12.9665 26.279 13.0555 26.2597 13.1525C26.2404 13.2495 26.2503 13.35 26.2881 13.4414C26.326 13.5327 26.3901 13.6108 26.4723 13.6657C26.5545 13.7207 26.6511 13.75 26.75 13.75ZM26.3965 17.6035L27.8965 19.1035C27.9908 19.1946 28.1171 19.245 28.2482 19.2439C28.3793 19.2427 28.5047 19.1901 28.5974 19.0974C28.6901 19.0047 28.7427 18.8793 28.7438 18.7482C28.745 18.6171 28.6946 18.4908 28.6035 18.3965L27.1035 16.8965C27.0092 16.8054 26.8829 16.755 26.7518 16.7562C26.6207 16.7573 26.4953 16.8099 26.4026 16.9026C26.3099 16.9953 26.2573 17.1207 26.2562 17.2518C26.255 17.3829 26.3054 17.5092 26.3965 17.6035Z" fill="#161559"/>
<path d="M6.74943 15.2512C6.75 14.9751 6.5266 14.7508 6.25045 14.7502C5.97431 14.7497 5.75 14.9731 5.74943 15.2492C5.74887 15.5253 5.97227 15.7497 6.24841 15.7502C6.52455 15.7508 6.74887 15.5274 6.74943 15.2512Z" fill="#161559"/>
<path d="M19.0005 4.25002C19.1053 4.25012 19.2075 4.21714 19.2925 4.15577L22.421 1.90127C22.4158 2.01877 22.4523 2.13433 22.524 2.22755C22.5957 2.32077 22.698 2.38566 22.8129 2.41078C22.9278 2.43589 23.0479 2.41961 23.152 2.36482C23.256 2.31002 23.3374 2.22022 23.3817 2.11127L23.963 0.689273C23.9962 0.608131 24.0075 0.519681 23.9957 0.432797C23.9839 0.345912 23.9495 0.263647 23.896 0.194254C23.8424 0.124861 23.7715 0.0707797 23.6904 0.0374347C23.6093 0.00408972 23.5209 -0.00734644 23.434 0.00427339L21.9287 0.205023C21.8235 0.218911 21.7255 0.265952 21.6488 0.339322C21.5722 0.412691 21.5209 0.508574 21.5024 0.613059C21.484 0.717544 21.4992 0.825198 21.5461 0.920402C21.5929 1.01561 21.6689 1.09341 21.763 1.14252L18.7075 3.34427C18.6216 3.4061 18.5576 3.49356 18.5246 3.59408C18.4916 3.6946 18.4913 3.803 18.5238 3.90368C18.5563 4.00436 18.62 4.09213 18.7055 4.15436C18.7911 4.2166 18.8942 4.25009 19 4.25002H19.0005ZM28.0005 3.50002C28.1044 3.49998 28.2058 3.46747 28.2905 3.40702L30.609 1.75102C30.651 1.83101 30.714 1.89799 30.7914 1.9447C30.8687 1.99141 30.9574 2.01607 31.0477 2.01602C31.1444 2.01599 31.239 1.98795 31.3201 1.93529C31.4012 1.88263 31.4653 1.8076 31.5047 1.71927L31.9567 0.703273C31.9927 0.622429 32.0066 0.533476 31.997 0.445497C31.9874 0.357519 31.9546 0.273669 31.902 0.202512C31.8494 0.131356 31.7788 0.0754414 31.6975 0.0404812C31.6162 0.00552095 31.5271 -0.00723252 31.4392 0.00352339L30.2685 0.147023C30.1769 0.157897 30.0902 0.19394 30.018 0.251145C29.9457 0.308351 29.8907 0.384477 29.8592 0.471059C29.8276 0.557641 29.8206 0.651285 29.8391 0.74158C29.8575 0.831874 29.9007 0.91528 29.9637 0.982523L27.7092 2.59302C27.6229 2.65461 27.5584 2.74203 27.525 2.84267C27.4917 2.94331 27.4912 3.05194 27.5236 3.15289C27.556 3.25384 27.6197 3.34187 27.7054 3.40427C27.7911 3.46666 27.8944 3.5002 28.0005 3.50002Z" fill="#161559"/>
<path d="M26.867 4.21176C26.8675 3.93562 26.6441 3.7113 26.368 3.71074C26.0919 3.71018 25.8676 3.93358 25.867 4.20972C25.8664 4.48586 26.0898 4.71017 26.366 4.71074C26.6421 4.7113 26.8664 4.4879 26.867 4.21176Z" fill="#161559"/>
<path d="M17.7494 5.00125C17.75 4.72511 17.5266 4.50079 17.2505 4.50023C16.9743 4.49967 16.75 4.72307 16.7494 4.99921C16.7489 5.27535 16.9723 5.49966 17.2484 5.50023C17.5246 5.50079 17.7489 5.27739 17.7494 5.00125Z" fill="#161559"/>
<path d="M23.3817 29.8885C23.3374 29.7796 23.256 29.6898 23.152 29.635C23.0479 29.5802 22.9278 29.5639 22.8129 29.589C22.698 29.6141 22.5957 29.679 22.524 29.7722C22.4522 29.8655 22.4158 29.981 22.4209 30.0985L19.2924 27.8443C19.1848 27.7667 19.0508 27.735 18.9199 27.7563C18.7889 27.7775 18.6718 27.8499 18.5942 27.9575C18.5166 28.0651 18.485 28.1991 18.5062 28.3301C18.5274 28.461 18.5998 28.5782 18.7074 28.6558L21.7629 30.8573C21.6689 30.9064 21.5929 30.9842 21.5461 31.0794C21.4992 31.1746 21.4839 31.2822 21.5024 31.3867C21.5209 31.4912 21.5722 31.5871 21.6488 31.6605C21.7255 31.7338 21.8235 31.7809 21.9287 31.7948L23.4337 31.9955C23.5206 32.0072 23.6091 31.9958 23.6902 31.9625C23.7713 31.9291 23.8423 31.8751 23.8959 31.8057C23.9495 31.7363 23.9839 31.654 23.9957 31.5671C24.0075 31.4801 23.9962 31.3917 23.9629 31.3105L23.3817 29.8885ZM31.5047 30.2808C31.4671 30.195 31.406 30.1217 31.3285 30.0691C31.2511 30.0165 31.1603 29.9869 31.0668 29.9836C30.9732 29.9803 30.8806 30.0034 30.7996 30.0504C30.7187 30.0973 30.6526 30.1662 30.6089 30.249L28.2907 28.593C28.1828 28.5159 28.0486 28.4848 27.9177 28.5066C27.7869 28.5284 27.6701 28.6013 27.5929 28.7093C27.5158 28.8172 27.4848 28.9514 27.5066 29.0822C27.5284 29.2131 27.6013 29.3299 27.7092 29.407L29.9642 31.0173C29.8919 31.0937 29.8459 31.1913 29.8329 31.2958C29.8249 31.3609 29.8299 31.4271 29.8474 31.4904C29.865 31.5536 29.8948 31.6129 29.9353 31.6646C29.9757 31.7164 30.0259 31.7596 30.0831 31.792C30.1403 31.8243 30.2033 31.845 30.2684 31.853L31.4392 31.9963C31.4594 31.9987 31.4796 32 31.4999 32C31.5833 32 31.6653 31.9791 31.7385 31.9393C31.8117 31.8995 31.8738 31.8421 31.9192 31.7722C31.9645 31.7023 31.9917 31.6221 31.9982 31.5391C32.0047 31.456 31.9904 31.3726 31.9564 31.2965L31.5047 30.2808Z" fill="#161559"/>
<path d="M26.3109 28.343C26.5871 28.343 26.8109 28.1191 26.8109 27.843C26.8109 27.5668 26.5871 27.343 26.3109 27.343C26.0348 27.343 25.8109 27.5668 25.8109 27.843C25.8109 28.1191 26.0348 28.343 26.3109 28.343Z" fill="#161559"/>
<path d="M17.1949 27.5353C17.4711 27.5353 17.6949 27.3114 17.6949 27.0353C17.6949 26.7591 17.4711 26.5353 17.1949 26.5353C16.9188 26.5353 16.6949 26.7591 16.6949 27.0353C16.6949 27.3114 16.9188 27.5353 17.1949 27.5353Z" fill="#161559"/>
<path d="M30 15.25C30 15.1174 29.9473 14.9902 29.8536 14.8964C29.7598 14.8027 29.6326 14.75 29.5 14.75H27C26.8674 14.75 26.7402 14.8027 26.6464 14.8964C26.5527 14.9902 26.5 15.1174 26.5 15.25C26.5 15.3826 26.5527 15.5098 26.6464 15.6036C26.7402 15.6973 26.8674 15.75 27 15.75H29.5C29.6326 15.75 29.7598 15.6973 29.8536 15.6036C29.9473 15.5098 30 15.3826 30 15.25ZM14.75 8.25C15.0467 8.25 15.3367 8.16203 15.5834 7.99721C15.83 7.83238 16.0223 7.59811 16.1358 7.32403C16.2494 7.04994 16.2791 6.74834 16.2212 6.45737C16.1633 6.16639 16.0204 5.89912 15.8107 5.68934C15.6009 5.47956 15.3336 5.3367 15.0426 5.27882C14.7517 5.22094 14.4501 5.25065 14.176 5.36418C13.9019 5.47771 13.6676 5.66997 13.5028 5.91665C13.338 6.16332 13.25 6.45333 13.25 6.75C13.2505 7.14768 13.4086 7.52895 13.6899 7.81015C13.9711 8.09135 14.3523 8.24954 14.75 8.25ZM14.75 6.25C14.8489 6.25 14.9456 6.27933 15.0278 6.33427C15.11 6.38921 15.1741 6.4673 15.2119 6.55866C15.2498 6.65002 15.2597 6.75056 15.2404 6.84755C15.2211 6.94454 15.1735 7.03363 15.1036 7.10355C15.0336 7.17348 14.9445 7.2211 14.8475 7.24039C14.7506 7.25969 14.65 7.24978 14.5587 7.21194C14.4673 7.1741 14.3892 7.11001 14.3343 7.02779C14.2793 6.94556 14.25 6.84889 14.25 6.75C14.2501 6.61743 14.3029 6.49033 14.3966 6.39659C14.4903 6.30285 14.6174 6.25013 14.75 6.25ZM14.75 23.75C14.4533 23.75 14.1633 23.838 13.9166 24.0028C13.67 24.1676 13.4777 24.4019 13.3642 24.676C13.2506 24.9501 13.2209 25.2517 13.2788 25.5426C13.3367 25.8336 13.4796 26.1009 13.6893 26.3107C13.8991 26.5204 14.1664 26.6633 14.4574 26.7212C14.7483 26.7791 15.0499 26.7493 15.324 26.6358C15.5981 26.5223 15.8324 26.33 15.9972 26.0834C16.162 25.8367 16.25 25.5467 16.25 25.25C16.2495 24.8523 16.0914 24.4711 15.8101 24.1899C15.5289 23.9086 15.1477 23.7505 14.75 23.75ZM14.75 25.75C14.6511 25.75 14.5544 25.7207 14.4722 25.6657C14.39 25.6108 14.3259 25.5327 14.2881 25.4413C14.2502 25.35 14.2403 25.2494 14.2596 25.1525C14.2789 25.0555 14.3265 24.9664 14.3964 24.8964C14.4664 24.8265 14.5555 24.7789 14.6525 24.7596C14.7494 24.7403 14.85 24.7502 14.9413 24.7881C15.0327 24.8259 15.1108 24.89 15.1657 24.9722C15.2207 25.0544 15.25 25.1511 15.25 25.25C15.2499 25.3826 15.1971 25.5097 15.1034 25.6034C15.0097 25.6971 14.8826 25.7499 14.75 25.75Z" fill="#161559"/>
</g>
<defs>
<clipPath id="clip0_99_3462">
<rect width="32" height="32" fill="white"/>
</clipPath>
</defs>
</svg>
