<svg width="16" height="16" viewBox="0 0 18 18" fill="none" xmlns="http://www.w3.org/2000/svg">
<path fill-rule="evenodd" clip-rule="evenodd" d="M14.9366 3.4695C15.0608 3.55226 15.1469 3.68092 15.1762 3.8272C15.2054 3.97347 15.1754 4.12538 15.0926 4.2495L8.34264 14.3745C8.29645 14.4437 8.2355 14.5018 8.16416 14.5446C8.09283 14.5873 8.01289 14.6138 7.93011 14.622C7.84733 14.6301 7.76377 14.6199 7.68544 14.5918C7.60711 14.5638 7.53597 14.5188 7.47714 14.46L2.97714 9.96C2.87778 9.85337 2.82369 9.71234 2.82626 9.56661C2.82883 9.42089 2.88786 9.28185 2.99092 9.17879C3.09398 9.07573 3.23302 9.01669 3.37875 9.01412C3.52447 9.01155 3.66551 9.06564 3.77214 9.165L7.78689 13.1798L14.1566 3.62475C14.2395 3.50076 14.3682 3.41475 14.5145 3.38564C14.6608 3.35653 14.8126 3.38669 14.9366 3.4695Z" fill="#1C581F"/>
</svg>
