<svg width="24" height="24" viewBox="0 0 24 24" fill="none" xmlns="http://www.w3.org/2000/svg">
<path d="M20.25 7.5H3.75C3.15326 7.5 2.58097 7.73705 2.15901 8.15901C1.73705 8.58097 1.5 9.15326 1.5 9.75V17.25C1.5 17.8467 1.73705 18.419 2.15901 18.841C2.58097 19.2629 3.15326 19.5 3.75 19.5H20.25C20.8467 19.5 21.419 19.2629 21.841 18.841C22.2629 18.419 22.5 17.8467 22.5 17.25V9.75C22.5 9.15326 22.2629 8.58097 21.841 8.15901C21.419 7.73705 20.8467 7.5 20.25 7.5ZM21 17.25C21 17.4489 20.921 17.6397 20.7803 17.7803C20.6397 17.921 20.4489 18 20.25 18H3.75C3.55109 18 3.36032 17.921 3.21967 17.7803C3.07902 17.6397 3 17.4489 3 17.25V9.75C3 9.55109 3.07902 9.36032 3.21967 9.21967C3.36032 9.07902 3.55109 9 3.75 9H20.25C20.4489 9 20.6397 9.07902 20.7803 9.21967C20.921 9.36032 21 9.55109 21 9.75V17.25Z" fill="#161559"/>
<path d="M12 9.75C11.2583 9.75 10.5333 9.96993 9.91661 10.382C9.29993 10.794 8.81928 11.3797 8.53545 12.0649C8.25162 12.7502 8.17736 13.5042 8.32205 14.2316C8.46675 14.959 8.8239 15.6272 9.34835 16.1517C9.8728 16.6761 10.541 17.0333 11.2684 17.1779C11.9958 17.3226 12.7498 17.2484 13.4351 16.9645C14.1203 16.6807 14.706 16.2001 15.118 15.5834C15.5301 14.9667 15.75 14.2417 15.75 13.5C15.75 12.5054 15.3549 11.5516 14.6517 10.8483C13.9484 10.1451 12.9946 9.75 12 9.75ZM12 15.75C11.555 15.75 11.12 15.618 10.75 15.3708C10.38 15.1236 10.0916 14.7722 9.92127 14.361C9.75097 13.9499 9.70642 13.4975 9.79323 13.061C9.88005 12.6246 10.0943 12.2237 10.409 11.909C10.7237 11.5943 11.1246 11.38 11.561 11.2932C11.9975 11.2064 12.4499 11.251 12.861 11.4213C13.2722 11.5916 13.6236 11.88 13.8708 12.25C14.118 12.62 14.25 13.055 14.25 13.5C14.25 14.0967 14.0129 14.669 13.591 15.091C13.169 15.5129 12.5967 15.75 12 15.75ZM6 10.5H5.25C5.05109 10.5 4.86032 10.579 4.71967 10.7197C4.57902 10.8603 4.5 11.0511 4.5 11.25C4.5 11.4489 4.57902 11.6397 4.71967 11.7803C4.86032 11.921 5.05109 12 5.25 12H6C6.19891 12 6.38968 11.921 6.53033 11.7803C6.67098 11.6397 6.75 11.4489 6.75 11.25C6.75 11.0511 6.67098 10.8603 6.53033 10.7197C6.38968 10.579 6.19891 10.5 6 10.5ZM18.75 15H18C17.8011 15 17.6103 15.079 17.4697 15.2197C17.329 15.3603 17.25 15.5511 17.25 15.75C17.25 15.9489 17.329 16.1397 17.4697 16.2803C17.6103 16.421 17.8011 16.5 18 16.5H18.75C18.9489 16.5 19.1397 16.421 19.2803 16.2803C19.421 16.1397 19.5 15.9489 19.5 15.75C19.5 15.5511 19.421 15.3603 19.2803 15.2197C19.1397 15.079 18.9489 15 18.75 15ZM5.25 6H18.75C18.9489 6 19.1397 5.92098 19.2803 5.78033C19.421 5.63968 19.5 5.44891 19.5 5.25C19.5 5.05109 19.421 4.86032 19.2803 4.71967C19.1397 4.57902 18.9489 4.5 18.75 4.5H5.25C5.05109 4.5 4.86032 4.57902 4.71967 4.71967C4.57902 4.86032 4.5 5.05109 4.5 5.25C4.5 5.44891 4.57902 5.63968 4.71967 5.78033C4.86032 5.92098 5.05109 6 5.25 6Z" fill="#161559"/>
</svg>
