<svg width="24" height="22" viewBox="0 0 24 22" fill="none" xmlns="http://www.w3.org/2000/svg">
<g clip-path="url(#clip0_534_4232)">
<path d="M21.7887 17.1457C21.552 17.1457 21.3601 17.3376 21.3601 17.5743V19.1428C21.3601 19.8529 20.7845 20.4286 20.0744 20.4286H2.57157C1.86149 20.4286 1.28585 19.8529 1.28585 19.1428V5.42856C1.28585 4.71848 1.86149 4.14285 2.57157 4.14285H6.78014C7.01683 4.14285 7.20871 3.95097 7.20871 3.71428C7.20871 3.47758 7.01683 3.28571 6.78014 3.28571H2.57157C1.3881 3.28571 0.428711 4.2451 0.428711 5.42856V19.1428C0.428711 20.3263 1.3881 21.2857 2.57157 21.2857H20.0744C21.2559 21.281 22.2126 20.3244 22.2173 19.1428V17.5743C22.2173 17.3376 22.0254 17.1457 21.7887 17.1457Z" fill="#161559"/>
<path d="M22.2856 9.98001H22.2171V5.42858C22.2124 4.24706 21.2557 3.29042 20.0742 3.28572C19.8375 3.28572 19.6456 3.4776 19.6456 3.71429C19.6456 3.95098 19.8375 4.14286 20.0742 4.14286C20.7843 4.14286 21.3599 4.7185 21.3599 5.42858V5.66858H20.8799L18.3085 3.09715L16.4399 1.22858C16.3595 1.14744 16.2499 1.10181 16.1356 1.10181C16.0214 1.10181 15.9118 1.14744 15.8314 1.22858L13.5685 3.49143L11.2971 1.22858C11.1275 1.06419 10.8581 1.06419 10.6885 1.22858L6.2485 5.66858H4.71422C4.47752 5.66858 4.28564 5.86046 4.28564 6.09715C4.28564 6.33384 4.47752 6.52572 4.71422 6.52572H21.3599V9.95429H18.8571C17.2002 9.95429 15.8571 11.2974 15.8571 12.9543V13.28C15.8571 14.9369 17.2002 16.28 18.8571 16.28H22.2856C22.9957 16.28 23.5714 15.7044 23.5714 14.9943V11.2657C23.5714 10.5556 22.9957 9.98001 22.2856 9.98001ZM16.1399 2.13715L17.3828 3.38001C16.6312 3.88501 15.6487 3.88501 14.8971 3.38001L16.1399 2.13715ZM14.2885 3.98858C15.3817 4.82304 16.8981 4.82304 17.9914 3.98858L19.7056 5.70286H15.7371L14.1685 4.10001L14.2885 3.98858ZM9.31707 5.70286L11.8885 3.13143L12.4885 3.73143L10.5171 5.66858L9.31707 5.70286ZM13.1314 4.30572L14.5714 5.66858H11.7256L13.1314 4.30572ZM10.9971 2.13715L11.3142 2.45429L8.09993 5.66858H7.46564L10.9971 2.13715ZM22.7142 14.9943C22.7142 15.231 22.5223 15.4229 22.2856 15.4229H18.8571C18.2888 15.4229 17.7437 15.1971 17.3418 14.7952C16.94 14.3934 16.7142 13.8483 16.7142 13.28V12.9543C16.7142 11.7708 17.6736 10.8114 18.8571 10.8114H22.2856C22.5223 10.8114 22.7142 11.0033 22.7142 11.24V14.9943Z" fill="#161559"/>
<path d="M18.926 14C19.3994 14 19.7831 13.6162 19.7831 13.1428C19.7831 12.6695 19.3994 12.2857 18.926 12.2857C18.4526 12.2857 18.0688 12.6695 18.0688 13.1428C18.0688 13.6162 18.4526 14 18.926 14Z" fill="#161559"/>
</g>
<defs>
<clipPath id="clip0_534_4232">
<rect width="24" height="21.4286" fill="white" transform="translate(0 0.285706)"/>
</clipPath>
</defs>
</svg>
