<svg width="24" height="24" viewBox="0 0 24 24" fill="none" xmlns="http://www.w3.org/2000/svg">
<path fill-rule="evenodd" clip-rule="evenodd" d="M15.514 11.55L14.871 12.193C14.7781 12.2859 14.7043 12.3962 14.654 12.5176C14.6036 12.639 14.5777 12.7691 14.5777 12.9005C14.5777 13.0319 14.6036 13.1621 14.654 13.2835C14.7043 13.4049 14.7781 13.5151 14.871 13.608L15.257 13.993C15.4446 14.1805 15.6989 14.2858 15.964 14.2858C16.2292 14.2858 16.4835 14.1805 16.671 13.993L17.314 13.349L19.114 15.149C20.1913 14.0716 20.8877 12.6722 21.0978 11.1631C21.3079 9.65409 21.0201 8.11771 20.278 6.78701L22.456 4.60801C22.6435 4.42049 22.7488 4.16618 22.7488 3.90101C22.7488 3.63585 22.6435 3.38154 22.456 3.19401L21.17 1.90701C20.9825 1.71954 20.7282 1.61423 20.463 1.61423C20.1979 1.61423 19.9436 1.71954 19.756 1.90701L17.578 4.08601C16.2471 3.3435 14.7103 3.05542 13.2008 3.26549C11.6914 3.47556 10.2916 4.17232 9.21403 5.25001L11.014 7.05001L10.37 7.69301C10.1826 7.88054 10.0772 8.13485 10.0772 8.40001C10.0772 8.66518 10.1826 8.91949 10.37 9.10701L10.756 9.49201C10.9436 9.67948 11.1979 9.7848 11.463 9.7848C11.7282 9.7848 11.9825 9.67948 12.17 9.49201L12.813 8.84901L15.515 11.549L15.514 11.55ZM4.90003 16.764L2.72003 18.942C2.53256 19.1295 2.42725 19.3838 2.42725 19.649C2.42725 19.9142 2.53256 20.1685 2.72003 20.356L4.00603 21.642C4.19356 21.8295 4.44787 21.9348 4.71303 21.9348C4.9782 21.9348 5.23251 21.8295 5.42003 21.642L7.59803 19.464C8.92894 20.2065 10.4657 20.4946 11.9752 20.2845C13.4847 20.0745 14.8844 19.3777 15.962 18.3L6.06203 8.40001C4.98443 9.47792 4.28791 10.878 4.0782 12.3876C3.86848 13.8973 4.15703 15.4332 4.90003 16.764Z" stroke="#161559"/>
</svg>
