<svg width="24" height="24" viewBox="0 0 24 24" fill="none" xmlns="http://www.w3.org/2000/svg">
<path fill-rule="evenodd" clip-rule="evenodd" d="M6.24241 14.1837H4.5903V15.8358H6.24241V14.1837ZM4.14705 13.2972H6.68566C6.93044 13.2972 7.12891 13.4956 7.12891 13.7404V16.279C7.12891 16.5238 6.93044 16.7223 6.68566 16.7223H4.14705C3.90227 16.7223 3.7038 16.5238 3.7038 16.279V13.7404C3.7038 13.4956 3.90227 13.2972 4.14705 13.2972ZM6.24241 9.48089H4.5903V11.133H6.24241V9.48089ZM4.14705 8.59439H6.68566C6.93044 8.59439 7.12891 8.79286 7.12891 9.03764V11.5763C7.12891 11.821 6.93044 12.0195 6.68566 12.0195H4.14705C3.90227 12.0195 3.7038 11.821 3.7038 11.5763V9.03764C3.7038 8.79286 3.90227 8.59439 4.14705 8.59439ZM5.18932 1.6365H4.60258C4.55449 1.6365 4.51043 1.65652 4.47822 1.68872C4.44602 1.72092 4.426 1.76498 4.426 1.81308V3.64214C4.426 3.69023 4.44602 3.7343 4.47822 3.7665C4.51043 3.7987 4.55449 3.81872 4.60258 3.81872H5.18932C5.23741 3.81872 5.28147 3.7987 5.31368 3.7665C5.34588 3.7343 5.36589 3.69023 5.36589 3.64214V1.81308C5.36589 1.76498 5.34588 1.72092 5.31368 1.68872C5.28147 1.65652 5.23741 1.6365 5.18932 1.6365ZM15.5414 1.6365H14.9547C14.9066 1.6365 14.8625 1.65652 14.8303 1.68872C14.7981 1.72092 14.7781 1.76498 14.7781 1.81308V3.64214C14.7781 3.69023 14.7981 3.7343 14.8303 3.7665C14.8625 3.7987 14.9066 3.81872 14.9547 3.81872H15.5414C15.5895 3.81872 15.6336 3.7987 15.6658 3.7665C15.698 3.7343 15.718 3.69023 15.718 3.64214V1.81308C15.718 1.76498 15.698 1.72092 15.6658 1.68872C15.6336 1.65652 15.5895 1.6365 15.5414 1.6365ZM10.3653 1.6365H9.77861C9.73052 1.6365 9.68646 1.65652 9.65425 1.68872C9.62205 1.72092 9.60203 1.76498 9.60203 1.81308V3.64214C9.60203 3.69023 9.62205 3.7343 9.65425 3.7665C9.68646 3.7987 9.73052 3.81872 9.77861 3.81872H10.3653C10.4134 3.81872 10.4575 3.7987 10.4897 3.7665C10.5219 3.7343 10.5419 3.69023 10.5419 3.64214V1.81308C10.5419 1.76498 10.5219 1.72092 10.4897 1.68872C10.4575 1.65652 10.4134 1.6365 10.3653 1.6365ZM11.4284 3.11044H13.8916V3.64214C13.8916 3.93492 14.0111 4.20084 14.2036 4.39327C14.396 4.58573 14.6619 4.70522 14.9547 4.70522H15.5414C15.8342 4.70522 16.1001 4.58573 16.2926 4.39327C16.485 4.2008 16.6045 3.93492 16.6045 3.64214V3.11044H17.617C17.7604 3.11044 17.8886 3.16284 17.9796 3.24727C18.0624 3.32409 18.1137 3.42778 18.1137 3.53967V6.47888H2.03547V3.53967C2.03547 3.42773 2.08685 3.32405 2.16963 3.24727C2.26057 3.16284 2.38877 3.11044 2.53225 3.11044H3.5395V3.64214C3.5395 3.93492 3.65899 4.20084 3.85146 4.39327C4.04393 4.58573 4.3098 4.70522 4.60258 4.70522H5.18932C5.4821 4.70522 5.74797 4.58573 5.94044 4.39327C6.13291 4.2008 6.25239 3.93492 6.25239 3.64214V3.11044H8.71558V3.64214C8.71558 3.93492 8.83507 4.20084 9.02753 4.39327C9.22 4.58573 9.48588 4.70522 9.77866 4.70522H10.3654C10.6582 4.70522 10.9241 4.58573 11.1165 4.39327C11.309 4.2008 11.4285 3.93492 11.4285 3.64214L11.4284 3.11044ZM18.5398 12.8017C17.7545 12.0164 16.6696 11.5306 15.4711 11.5306C14.2727 11.5306 13.1877 12.0164 12.4024 12.8017C11.6171 13.587 11.1313 14.6719 11.1313 15.8703C11.1313 17.0687 11.6171 18.1537 12.4024 18.939C13.1877 19.7243 14.2727 20.2101 15.4711 20.2101C16.6696 20.2101 17.7545 19.7243 18.5398 18.939C19.3251 18.1537 19.8109 17.0688 19.8109 15.8703C19.8109 14.6719 19.3251 13.5869 18.5398 12.8017ZM15.4711 10.6441C16.9142 10.6441 18.2208 11.2291 19.1666 12.1749C20.1124 13.1207 20.6974 14.4272 20.6974 15.8703C20.6974 17.3134 20.1124 18.62 19.1666 19.5658C18.2208 20.5116 16.9143 21.0966 15.4711 21.0966C14.028 21.0966 12.7214 20.5116 11.7756 19.5658C10.8298 18.62 10.2448 17.3135 10.2448 15.8703C10.2448 14.4272 10.8298 13.1206 11.7756 12.1749C12.7214 11.2291 14.028 10.6441 15.4711 10.6441ZM15.0279 12.7521C15.0279 12.5073 15.2263 12.3088 15.4711 12.3088C15.7159 12.3088 15.9144 12.5073 15.9144 12.7521V15.4271H17.6088C17.8535 15.4271 18.052 15.6255 18.052 15.8703C18.052 16.1151 17.8535 16.3136 17.6088 16.3136H15.4711C15.2263 16.3136 15.0279 16.1151 15.0279 15.8703V12.7521ZM20.0625 11.2789C21.2375 12.4539 21.9643 14.0772 21.9643 15.8703C21.9643 17.6634 21.2375 19.2867 20.0625 20.4617C18.8875 21.6367 17.2642 22.3635 15.4711 22.3635C13.678 22.3635 12.0547 21.6367 10.8797 20.4617C9.70469 19.2868 8.97794 17.6634 8.97794 15.8703C8.97794 14.0772 9.70469 12.4539 10.8797 11.2789C12.0547 10.104 13.678 9.37716 15.4711 9.37716C17.2642 9.37716 18.8875 10.1039 20.0625 11.2789ZM9.81279 11.133C9.95247 10.9663 10.0993 10.8059 10.2529 10.6522C10.4573 10.4479 10.6736 10.2555 10.9007 10.0762V9.48089H9.24855V11.133H9.81279ZM19.0003 9.3878C19.6231 9.72759 20.1916 10.1545 20.6893 10.6522C22.0248 11.9877 22.8508 13.8326 22.8508 15.8704C22.8508 17.9082 22.0248 19.7531 20.6893 21.0885C19.3539 22.424 17.509 23.25 15.4712 23.25C13.4334 23.25 11.5885 22.424 10.253 21.0885C9.60593 20.4415 9.07844 19.6749 8.70663 18.8247H2.53225C2.15871 18.8247 1.81689 18.6808 1.56705 18.4489C1.3091 18.2095 1.14893 17.8769 1.14893 17.5089V3.53967C1.14893 3.17175 1.30905 2.83912 1.56705 2.59969C1.81685 2.36784 2.15866 2.22394 2.53221 2.22394H3.53946V1.81308C3.53946 1.5203 3.65894 1.25442 3.85141 1.06195C4.04388 0.869484 4.30975 0.75 4.60254 0.75H5.18927C5.48205 0.75 5.74793 0.869484 5.94039 1.06195C6.13286 1.25442 6.25235 1.5203 6.25235 1.81308V2.22394H8.71554V1.81308C8.71554 1.5203 8.83502 1.25442 9.02749 1.06195C9.21996 0.869484 9.48583 0.75 9.77861 0.75H10.3653C10.6581 0.75 10.924 0.869484 11.1165 1.06195C11.3089 1.25442 11.4284 1.5203 11.4284 1.81308V2.22394H13.8916V1.81308C13.8916 1.5203 14.0111 1.25442 14.2036 1.06195C14.396 0.869484 14.6619 0.75 14.9547 0.75H15.5414C15.8342 0.75 16.1001 0.869484 16.2926 1.06195C16.485 1.25442 16.6045 1.5203 16.6045 1.81308V2.22394H17.617C17.9905 2.22394 18.3323 2.36784 18.5821 2.59969C18.8401 2.83912 19.0002 3.17175 19.0002 3.53967V9.3878H19.0003ZM15.4711 8.49066C14.1294 8.49066 12.8713 8.84883 11.7872 9.47466V9.03759C11.7872 8.79281 11.5887 8.59434 11.3439 8.59434H8.8053C8.56052 8.59434 8.36205 8.79281 8.36205 9.03759V11.5762C8.36205 11.821 8.56052 12.0195 8.8053 12.0195H9.17486C8.48772 13.1405 8.09149 14.4592 8.09149 15.8703C8.09149 16.5882 8.19414 17.282 8.3853 17.9381H2.53225C2.38877 17.9381 2.26057 17.8857 2.16963 17.8013C2.08685 17.7245 2.03547 17.6208 2.03547 17.5089V7.36538H18.1138V8.97811C17.2933 8.6633 16.4024 8.4907 15.4712 8.4907L15.4711 8.49066Z" fill="#161559"/>
</svg>
