<svg width="21" height="20" viewBox="0 0 21 20" fill="none" xmlns="http://www.w3.org/2000/svg">
<path fill-rule="evenodd" clip-rule="evenodd" d="M9.25 3.12495C8.51131 3.12495 7.77986 3.27044 7.09741 3.55313C6.41495 3.83581 5.79485 4.25014 5.27252 4.77247C4.75019 5.2948 4.33586 5.9149 4.05318 6.59735C3.77049 7.27981 3.625 8.01126 3.625 8.74995C3.625 9.48863 3.77049 10.2201 4.05318 10.9025C4.33586 11.585 4.75019 12.2051 5.27252 12.7274C5.79485 13.2498 6.41495 13.6641 7.09741 13.9468C7.77986 14.2295 8.51131 14.3749 9.25 14.3749C10.7418 14.3749 12.1726 13.7823 13.2275 12.7274C14.2824 11.6725 14.875 10.2418 14.875 8.74995C14.875 7.25811 14.2824 5.82736 13.2275 4.77247C12.1726 3.71758 10.7418 3.12495 9.25 3.12495ZM2.375 8.74995C2.37515 7.64586 2.6412 6.55805 3.15066 5.57853C3.66012 4.59901 4.39799 3.7566 5.30186 3.12255C6.20574 2.4885 7.24902 2.08147 8.34347 1.93588C9.43791 1.7903 10.5513 1.91045 11.5895 2.28616C12.6277 2.66188 13.5601 3.2821 14.308 4.09438C15.0558 4.90666 15.5969 5.88709 15.8857 6.95275C16.1745 8.0184 16.2023 9.13793 15.9669 10.2166C15.7315 11.2953 15.2398 12.3015 14.5333 13.1499L18.4417 17.0583C18.5031 17.1155 18.5523 17.1845 18.5865 17.2612C18.6206 17.3378 18.639 17.4206 18.6405 17.5045C18.642 17.5884 18.6265 17.6718 18.5951 17.7496C18.5637 17.8274 18.5169 17.8981 18.4575 17.9575C18.3982 18.0168 18.3275 18.0636 18.2497 18.0951C18.1718 18.1265 18.0885 18.1419 18.0046 18.1404C17.9206 18.139 17.8379 18.1206 17.7612 18.0864C17.6846 18.0523 17.6156 18.003 17.5583 17.9416L13.65 14.0333C12.646 14.8695 11.4245 15.4023 10.1286 15.5693C8.83268 15.7363 7.51602 15.5305 6.33284 14.9761C5.14967 14.4217 4.14899 13.5416 3.44803 12.4389C2.74707 11.3362 2.37486 10.0566 2.375 8.74995Z" fill="#29292B"/>
</svg>
