<svg width="24" height="24" viewBox="0 0 24 24" fill="none" xmlns="http://www.w3.org/2000/svg">
<g clip-path="url(#clip0_534_4238)">
<path d="M19.5 15.75C18.6355 15.7498 17.7975 16.0483 17.1278 16.595C16.4581 17.1417 15.9979 17.903 15.825 18.75H5.25C4.45435 18.75 3.69129 18.4339 3.12868 17.8713C2.56607 17.3087 2.25 16.5457 2.25 15.75C2.25 14.9544 2.56607 14.1913 3.12868 13.6287C3.69129 13.0661 4.45435 12.75 5.25 12.75H18.75C19.9435 12.75 21.0881 12.2759 21.932 11.432C22.7759 10.5881 23.25 9.44348 23.25 8.25001C23.25 7.05653 22.7759 5.91194 21.932 5.06803C21.0881 4.22411 19.9435 3.75001 18.75 3.75001H8.175C7.98914 2.83948 7.47181 2.03039 6.72331 1.47961C5.97481 0.92883 5.04846 0.675594 4.12386 0.768998C3.19925 0.862402 2.34227 1.29579 1.71905 1.98514C1.09583 2.6745 0.750765 3.5707 0.750765 4.50001C0.750765 5.42932 1.09583 6.32552 1.71905 7.01487C2.34227 7.70423 3.19925 8.13761 4.12386 8.23102C5.04846 8.32442 5.97481 8.07119 6.72331 7.52041C7.47181 6.96963 7.98914 6.16054 8.175 5.25001H18.75C19.3443 5.24805 19.9258 5.42267 20.4208 5.75171C20.9157 6.08075 21.3018 6.54938 21.5299 7.09816C21.7581 7.64694 21.8182 8.25113 21.7025 8.83409C21.5868 9.41704 21.3005 9.95249 20.88 10.3725C20.6003 10.6519 20.2681 10.8733 19.9026 11.0239C19.537 11.1744 19.1453 11.2513 18.75 11.25H5.25C4.05653 11.25 2.91193 11.7241 2.06802 12.568C1.22411 13.4119 0.75 14.5565 0.75 15.75C0.75 16.9435 1.22411 18.0881 2.06802 18.932C2.91193 19.7759 4.05653 20.25 5.25 20.25H15.825C15.9669 20.9452 16.3031 21.5859 16.7946 22.0976C17.2861 22.6093 17.9126 22.9711 18.6015 23.141C19.2904 23.3108 20.0134 23.2817 20.6864 23.0571C21.3594 22.8325 21.9549 22.4216 22.4037 21.872C22.8525 21.3225 23.1362 20.6569 23.2218 19.9525C23.3075 19.2482 23.1915 18.534 22.8874 17.893C22.5834 17.2519 22.1037 16.7102 21.5041 16.3309C20.9044 15.9516 20.2095 15.7502 19.5 15.75ZM4.5 6.75001C4.05499 6.75001 3.61998 6.61805 3.24997 6.37081C2.87996 6.12358 2.59157 5.77218 2.42127 5.36105C2.25097 4.94991 2.20642 4.49751 2.29323 4.06106C2.38005 3.6246 2.59434 3.22369 2.90901 2.90902C3.22368 2.59435 3.62459 2.38006 4.06105 2.29324C4.4975 2.20642 4.9499 2.25098 5.36104 2.42128C5.77217 2.59158 6.12357 2.87996 6.37081 3.24997C6.61804 3.61999 6.75 4.055 6.75 4.50001C6.75 5.09675 6.51295 5.66904 6.09099 6.091C5.66903 6.51296 5.09674 6.75001 4.5 6.75001ZM19.5 21.75C19.055 21.75 18.62 21.618 18.25 21.3708C17.88 21.1236 17.5916 20.7722 17.4213 20.361C17.251 19.9499 17.2064 19.4975 17.2932 19.0611C17.38 18.6246 17.5943 18.2237 17.909 17.909C18.2237 17.5943 18.6246 17.3801 19.061 17.2932C19.4975 17.2064 19.9499 17.251 20.361 17.4213C20.7722 17.5916 21.1236 17.88 21.3708 18.25C21.618 18.62 21.75 19.055 21.75 19.5C21.75 20.0967 21.5129 20.669 21.091 21.091C20.669 21.513 20.0967 21.75 19.5 21.75Z" fill="#161559"/>
</g>
<defs>
<clipPath id="clip0_534_4238">
<rect width="24" height="24" fill="white"/>
</clipPath>
</defs>
</svg>
