<svg width="439" height="440" viewBox="0 0 439 440" fill="none" xmlns="http://www.w3.org/2000/svg">
<path d="M146.634 136.378C143.433 158.722 159.151 185.86 182.544 189.211C205.938 192.562 228.149 170.857 231.35 148.514C234.551 126.171 218.181 105.341 194.787 101.99C171.394 98.6392 149.835 114.035 146.634 136.378Z" fill="#303030"/>
<path d="M158.564 177.926C158.06 182.8 158.125 187.116 163.566 193.693L158.284 212.548L143.09 215.333C144.992 221.784 147.683 247.276 181.329 251.096C214.976 254.916 214.715 228.021 214.715 228.021L200.592 222.147L201.266 208.866C204.029 209.186 212.993 208.454 218.569 204.082C224.145 199.71 226.958 191.735 227.687 181.127C228.08 175.408 227.948 169.831 228.913 164.692C230.086 158.452 230.999 154.776 231.633 146.69C232.562 134.824 227.214 124.588 227.214 124.588C221.543 113.61 201.913 105.397 188.881 109.736C182.007 112.025 177.969 120.797 177.969 120.797C178.847 126.206 178.914 134.391 168.028 137.924C168.067 144.567 168.515 147.651 164.99 156.45C161.623 150.124 156.888 147.46 151.87 146.812C145.333 145.968 140.477 149.218 139.011 153.841C137.273 159.321 140.507 163.883 144.812 166.341C149.118 168.799 155.127 169.558 159.654 167.378C159.654 167.378 159.068 173.052 158.564 177.926Z" fill="#FFC4B0"/>
<path d="M201.266 208.864C192.004 208.859 178.868 205.492 172.228 200.583C175.738 208.225 187.454 214.427 200.889 216.319L201.266 208.864Z" fill="#303030"/>
<path d="M211.157 155.96C214.214 158.958 221.901 159.367 225.017 156.776" stroke="#303030" stroke-width="2" stroke-miterlimit="10" stroke-linecap="round" stroke-linejoin="round"/>
<path d="M211.951 141.858C213.701 146.931 222.535 143.782 227.376 149.643" stroke="#303030" stroke-width="2" stroke-miterlimit="10" stroke-linecap="round" stroke-linejoin="round"/>
<path d="M180.218 143.292C188.985 139.911 194.997 146.888 199.157 142.287" stroke="#303030" stroke-width="2" stroke-miterlimit="10" stroke-linecap="round" stroke-linejoin="round"/>
<path d="M204.893 146.483C206.54 151.66 207.76 158.085 209.14 164.697C209.859 168.143 208.971 173.058 201.917 172.524" stroke="#303030" stroke-width="2" stroke-miterlimit="10" stroke-linecap="round" stroke-linejoin="round"/>
<path d="M145.993 154.49C147.255 153.766 150.228 153.393 153.096 154.447C155.965 155.5 158.196 158.025 158.802 160.901" stroke="#303030" stroke-width="2" stroke-miterlimit="10" stroke-linecap="round" stroke-linejoin="round"/>
<path d="M150.725 158.134C151.654 157.607 154.868 156.343 157.721 158.234" stroke="#303030" stroke-width="2" stroke-miterlimit="10" stroke-linecap="round" stroke-linejoin="round"/>
<path d="M181.636 152.961C184.588 156.062 192.114 156.457 195.46 155.322" stroke="#303030" stroke-width="2" stroke-miterlimit="10" stroke-linecap="round" stroke-linejoin="round"/>
<path d="M202.464 183.493C199.611 180.723 193.957 178.208 189.205 178.093" stroke="#303030" stroke-width="2" stroke-miterlimit="10" stroke-linecap="round" stroke-linejoin="round"/>
<path d="M167.986 135.462C169.352 135.214 170.531 134.13 170.89 132.788C163.123 135.06 154.753 135.236 146.898 133.29C146.562 133.207 146.204 133.106 145.984 132.839C145.717 132.518 145.731 132.057 145.763 131.641C146.483 122.309 149.984 112.772 156.173 107.788C163.461 101.918 169.893 100.431 177.266 101.507C180.494 97.4593 188.538 89.4686 209.935 94.7831C223.883 98.2477 235.367 109.017 241.896 121.819C244.01 125.963 245.66 130.411 246.052 135.046C246.444 139.68 245.492 144.529 242.793 148.317C240.094 152.103 235.528 154.88 230.889 154.563L231.35 149.385C223.971 144.438 221.654 141.155 219.725 137.241C218.125 133.995 217.908 129.929 216.729 126.517C215.008 121.537 210.651 116.615 204.91 118.99C204.24 119.268 203.57 119.622 202.845 119.62C202.342 119.618 201.859 119.445 201.388 119.275C199.235 118.495 197.181 117.339 194.863 118.062C192.959 118.655 191.43 120.178 190.831 122.081C189.423 126.559 186.89 130.994 182.838 133.635C178.394 136.531 173.04 137.154 167.986 135.462Z" fill="#303030"/>
<path d="M317.62 301.261C307.978 308.062 287.257 303.204 273.578 299.552C260.417 296.038 241.818 291.507 241.818 291.507L240.706 229.992C260.837 235.382 284.636 242.897 312.194 257.615L317.62 301.261Z" fill="#1F1E7E"/>
<path d="M88.0923 346.847L109.754 217.578L152.398 212.416C152.398 212.416 157.72 224.691 176.953 228.423C199.685 232.835 204.617 222.66 204.617 222.66C218.517 226.586 238.38 232.571 238.38 232.571C238.38 232.571 247.351 252.254 243.121 294.15C240.215 322.93 239.624 346.848 239.624 346.848" fill="white"/>
<path d="M88.0923 346.847L109.754 217.578L152.398 212.416C152.398 212.416 157.72 224.691 176.953 228.423C199.685 232.835 204.617 222.66 204.617 222.66C218.517 226.586 238.38 232.571 238.38 232.571C238.38 232.571 247.351 252.254 243.121 294.15C240.215 322.93 239.624 346.848 239.624 346.848" stroke="#303030" stroke-width="2" stroke-miterlimit="10" stroke-linecap="round" stroke-linejoin="round"/>
<path d="M200.591 222.145C208.543 233.438 214.836 246.381 214.012 280.463C213.328 308.784 210.917 346.846 210.917 346.846H246.136C246.136 346.846 247.605 286.947 247.04 269.277C246.321 246.789 240.705 229.991 240.705 229.991L214.054 222.381C214.054 222.381 206.913 211.805 201.139 211.343L200.591 222.145Z" fill="#1F1E7E"/>
<path d="M246.136 346.847C246.136 346.847 247.605 286.948 247.04 269.278" stroke="#303030" stroke-width="2" stroke-miterlimit="10" stroke-linecap="round" stroke-linejoin="round"/>
<path d="M160.221 205.633L158.284 212.547C158.284 212.547 156.489 241.877 151.876 274.374C147.263 306.87 140.841 346.846 140.841 346.846H88.0923L109.965 216.318L146.22 211.733C146.22 211.733 154.067 204.096 160.221 205.633Z" fill="#1F1E7E"/>
<path d="M145.561 213.647C139.093 224.017 132.607 253.406 132.607 253.406L144.209 281.024L135.561 294.659L142.311 311.323" stroke="#303030" stroke-width="2" stroke-miterlimit="10" stroke-linecap="round" stroke-linejoin="round"/>
<path d="M216.567 226.151C221.251 234.718 226.734 256.554 228.447 262.485L219.194 282.693L225.934 297.288L218.51 317.302" stroke="#303030" stroke-width="2" stroke-miterlimit="10" stroke-linecap="round" stroke-linejoin="round"/>
<path d="M13.3457 347.21H425.644" stroke="#303030" stroke-width="2" stroke-miterlimit="10" stroke-linecap="round" stroke-linejoin="round"/>
<path d="M110.616 219.653C82.2217 215.85 69.6962 241.454 59.8231 269.769C42.5932 319.183 39.3595 341.041 41.2402 351.965L90.4459 347.167C90.4459 347.167 105.565 302.799 110.445 286.322C115.325 269.846 126.46 242.516 110.616 219.653Z" fill="#FFC4B0"/>
<path d="M109.965 216.319C87.3626 217.947 78.2788 222.31 67.7349 243.025C53.3858 271.215 41.747 319.184 41.747 319.184C41.747 319.184 34.7608 328.082 41.9665 332.8C77.2542 312.41 98.8653 320.377 98.8653 320.377L104.061 321.04C108.255 318.037 105.062 312.347 105.914 308.836C107.884 300.225 112.001 286.464 113.905 278.067C118.221 259.035 125.108 232.027 109.965 216.319Z" fill="#1F1E7E"/>
<path d="M105.766 313.488C100.127 304.886 67.6505 304.86 58.522 307.945" stroke="#303030" stroke-width="2" stroke-miterlimit="10" stroke-linecap="round" stroke-linejoin="round"/>
<path d="M104.062 321.038C108.255 318.035 105.062 312.345 105.914 308.834C107.884 300.223 112.001 286.462 113.906 278.065" stroke="#303030" stroke-width="2" stroke-miterlimit="10" stroke-linecap="round" stroke-linejoin="round"/>
<path d="M215.913 331.133C214.503 328.636 213.969 326.837 212.507 322.327C212.247 321.525 210.861 318.395 210.154 317.937C207.627 316.301 203.517 316.786 199.39 317.116L205.404 332.343C206.435 333.658 207.481 334.989 208.811 336.003C210.139 337.017 211.805 337.695 213.466 337.51C215.127 337.324 216.724 336.123 217.036 334.481C217.282 333.179 216.563 332.286 215.913 331.133Z" fill="#D48983"/>
<path d="M279.026 295.003C278.613 294.019 277.48 293.555 276.495 293.968L274.86 294.654C271.735 291.454 266.377 289.85 257.188 293.998C252.752 296.001 249.586 298.396 247.78 301.117C246.648 302.821 246.053 304.632 245.98 306.536C245.979 306.535 245.976 306.533 245.976 306.533C244.823 306.117 242.871 305.921 240.096 307.36C238.051 308.422 236.239 309.512 235.233 311.216C233.416 308.405 230.874 306.739 227.626 306.293C224.391 305.85 220.5 306.64 216.064 308.642C211.629 310.645 208.463 313.04 206.656 315.76C205.271 317.844 204.68 320.089 204.88 322.466L203.425 323.076C202.44 323.489 201.976 324.623 202.39 325.607C202.802 326.592 203.936 327.056 204.92 326.642L205.844 326.255C205.923 326.449 205.985 326.641 206.073 326.837C207.896 330.877 211.184 333.965 215.33 335.532C218.101 336.579 221.034 336.863 223.88 336.392C225.293 336.159 226.686 335.738 228.025 335.134C232.065 333.31 235.153 330.022 236.719 325.876C238.039 322.385 238.132 318.639 237.043 315.129C236.789 312.493 237.892 311.447 241.302 309.677C242.831 308.884 244.141 308.645 245.088 308.988C245.736 309.222 246.233 309.746 246.569 310.542C246.743 311.086 246.947 311.635 247.198 312.192C250.357 319.189 257.797 322.934 265.036 321.737C266.426 321.507 267.808 321.095 269.15 320.489C273.19 318.664 276.278 315.377 277.844 311.23C279.411 307.085 279.27 302.576 277.445 298.536C277.348 298.321 277.243 298.106 277.135 297.892L277.992 297.533C278.975 297.121 279.438 295.988 279.026 295.003ZM226.948 332.754C223.544 334.291 219.744 334.41 216.251 333.09C212.758 331.769 209.987 329.168 208.45 325.763C207.006 322.564 207.13 319.765 208.83 317.206C210.361 314.901 213.156 312.821 217.137 311.023C219.442 309.983 221.555 309.303 223.458 308.988C224.842 308.759 226.115 308.723 227.269 308.881C230.313 309.298 232.494 311.057 233.939 314.256C237.111 321.284 233.975 329.582 226.948 332.754ZM268.073 318.109C261.045 321.282 252.748 318.145 249.575 311.118C248.131 307.919 248.255 305.119 249.954 302.561C251.486 300.255 254.281 298.175 258.262 296.378C260.568 295.337 262.665 294.661 264.55 294.349C269.58 293.517 273.105 295.275 275.063 299.612C278.236 306.639 275.099 314.936 268.073 318.109Z" fill="#09090A"/>
<path d="M203.73 326.767C203.524 326.728 203.319 326.65 203.13 326.533L175.992 309.627C172.313 307.332 167.715 307.288 163.988 309.501L159.627 312.092C158.803 312.582 157.734 312.311 157.242 311.483C156.751 310.657 157.023 309.589 157.849 309.098L162.21 306.507C167.06 303.625 173.046 303.689 177.833 306.67L204.971 323.576C205.787 324.084 206.037 325.158 205.528 325.975C205.138 326.602 204.414 326.895 203.73 326.767Z" fill="#09090A"/>
<path d="M276.937 297.258C276.731 297.219 276.526 297.141 276.337 297.024L249.199 280.118C245.52 277.822 240.922 277.779 237.195 279.992L232.834 282.583C232.011 283.074 230.941 282.803 230.449 281.975C229.958 281.149 230.23 280.082 231.057 279.59L235.418 276.999C240.267 274.117 246.254 274.181 251.041 277.162L278.179 294.068C278.995 294.576 279.245 295.65 278.736 296.467C278.345 297.094 277.622 297.386 276.937 297.258Z" fill="#09090A"/>
<path d="M73.4097 365.561C88.4709 365.891 142.823 359.168 155.612 359.492C169.487 359.843 177.374 360.105 184.153 360.833C195.279 362.028 196.604 358.056 197.574 355.372C199.787 356.308 202.385 356.124 204.043 352.896C205.461 350.134 205.461 347.672 203.371 345.359C203.371 345.359 206.493 344.671 207.624 340.509C209.429 333.871 205.061 332.799 205.061 332.799C205.061 332.799 207.256 331.217 207.924 327.71C208.636 323.965 208.473 321.291 204.011 319.157C199.549 317.022 189.436 311.773 184.379 312.474C179.322 313.174 171.886 318.614 167.424 320.735C162.962 322.855 155.823 326.051 149.577 325.828C143.33 325.606 88.0898 319.121 88.0898 319.121C63.0668 318.996 40.6208 336.751 41.044 350.239C41.3987 361.548 58.3485 365.231 73.4097 365.561Z" fill="#FFC4B0"/>
<path d="M187.292 325.629C195.312 327.635 197.944 328.445 205.06 332.799" stroke="#303030" stroke-width="2" stroke-miterlimit="10" stroke-linecap="round" stroke-linejoin="round"/>
<path d="M187.624 337.137C195.109 339.916 197.64 341.293 203.615 345.449" stroke="#303030" stroke-width="2" stroke-miterlimit="10" stroke-linecap="round" stroke-linejoin="round"/>
<path d="M184.536 349.042C189.953 351.433 193.918 352.207 197.573 355.373" stroke="#303030" stroke-width="2" stroke-miterlimit="10" stroke-linecap="round" stroke-linejoin="round"/>
<path d="M256.737 177.197C254.372 172.457 253.655 161.349 252.828 157.076C252 152.802 250.404 145.923 249.353 143.671C248.302 141.419 245.07 135.805 243.156 132.749C241.242 129.692 238.893 129.647 237.796 132.269C236.7 134.89 237.9 139.161 239.197 142.003C240.495 144.846 240.903 148.947 239.626 152.247C233.994 149.624 224.706 139.894 221.295 138.196C217.884 136.498 211.801 132.924 207.085 131.919C202.367 130.914 200.443 130.174 198.527 130.423C196.611 130.672 195.717 133.912 198.613 136.486C201.508 139.059 208.55 142.2 210.351 143.419C212.152 144.638 218.137 150.532 218.137 150.532C218.934 151.477 217.712 151.894 214.847 150.717C211.982 149.54 205.62 146.609 202.781 145.532C199.942 144.454 192.529 143.683 190.675 143.524C188.82 143.365 187.547 145.841 188.829 148.081C189.824 149.82 192.384 151.17 195.425 152.132C199.005 153.263 202.332 154.501 203.716 155.315C205.1 156.13 211.099 160.466 211.099 160.466C211.099 160.466 203.317 157.707 200.558 156.655C197.8 155.603 193.399 153.015 192.095 153.287C190.792 153.559 189.899 156.212 191.319 158.264C192.74 160.317 194.997 161.956 194.997 161.956C194.997 161.956 194.549 165.279 196.691 167.733C198.832 170.188 203.444 174.096 205.353 176.414C207.263 178.733 210.325 182.451 213.699 185.898C219.217 191.534 220.901 193.717 229.253 199C235.428 202.905 237.258 207.375 252.67 243.735C261.403 264.336 269.204 283.075 281.65 292.58C295.533 303.183 311.366 305.43 317.621 301.261C329.116 293.598 322.831 265.007 317.885 253.284C310.18 235.024 297.218 225.539 287.935 215.361C276.745 203.092 260.073 183.88 256.737 177.197Z" fill="#FFC4B0"/>
<path d="M239.625 152.247C233.993 149.624 224.705 139.894 221.294 138.196C217.883 136.498 211.8 132.924 207.084 131.919C202.366 130.914 200.442 130.174 198.526 130.423C196.61 130.672 195.716 133.912 198.612 136.486C201.507 139.059 208.549 142.2 210.35 143.419C212.151 144.638 218.136 150.532 218.136 150.532C218.933 151.477 217.711 151.894 214.846 150.717C211.981 149.54 205.619 146.609 202.78 145.532C199.941 144.454 192.528 143.683 190.674 143.524C188.819 143.365 187.546 145.841 188.828 148.081C189.823 149.82 192.383 151.17 195.424 152.131C199.004 153.263 202.331 154.501 203.715 155.315C205.099 156.13 211.098 160.466 211.098 160.466C211.098 160.466 203.316 157.707 200.557 156.655C197.799 155.603 193.398 153.015 192.094 153.287C190.791 153.559 189.898 156.212 191.318 158.264C192.739 160.317 194.996 161.956 194.996 161.956C194.996 161.956 194.548 165.279 196.69 167.733C198.831 170.188 203.443 174.096 205.352 176.414C207.262 178.733 210.324 182.451 213.699 185.898C219.216 191.533 220.9 193.717 229.252 199C235.427 202.905 237.257 207.375 252.669 243.735" stroke="#303030" stroke-width="2" stroke-miterlimit="10" stroke-linecap="round" stroke-linejoin="round"/>
<path d="M194.996 161.956C194.996 161.956 201.276 166.323 209.089 168.691L194.996 161.956Z" fill="#FFC4B0"/>
<path d="M194.996 161.956C194.996 161.956 201.276 166.323 209.089 168.691" stroke="#303030" stroke-width="2" stroke-miterlimit="10" stroke-linecap="round" stroke-linejoin="round"/>
<path d="M239.625 152.247L244.011 154.447" stroke="#303030" stroke-width="2" stroke-miterlimit="10" stroke-linecap="round" stroke-linejoin="round"/>
<path d="M200.848 365.337H287.851V373.309H192.876C192.876 368.906 196.446 365.337 200.848 365.337Z" fill="#303030"/>
<path d="M272.097 373.308H388.584C390.72 373.308 393.081 370.776 393.857 367.652L415.309 281.356C416.086 278.232 414.984 275.699 412.849 275.699H296.361C294.226 275.699 291.865 278.232 291.089 281.356L269.636 367.652C268.86 370.776 269.961 373.308 272.097 373.308Z" fill="#07B3D4"/>
<path d="M351.812 326.887C350.911 331.143 345.999 334.592 340.842 334.592C335.684 334.592 332.232 331.143 333.133 326.887C334.034 322.631 338.946 319.181 344.103 319.181C349.261 319.181 352.713 322.631 351.812 326.887Z" fill="white" stroke="#303030" stroke-width="2" stroke-miterlimit="10" stroke-linecap="round" stroke-linejoin="round"/>
<path d="M407.613 269.475L404.518 281.924H410.14L413.235 269.475H407.613Z" fill="#00826F"/>
<path d="M397.815 269.475L394.72 281.924H400.342L403.437 269.475H397.815Z" fill="#FF95FB"/>
<path d="M388.016 269.475L384.921 281.924H390.544L393.639 269.475H388.016Z" fill="#303030"/>
<path d="M338.494 332.376H293.645C292.265 339.374 291.193 348.236 290.832 355.335C292.723 363.07 299.666 365.337 299.666 365.337H337.495C337.495 365.337 334.959 349.572 338.494 332.376Z" fill="#00826F" stroke="#303030" stroke-width="2" stroke-miterlimit="10" stroke-linecap="round" stroke-linejoin="round"/>
<path d="M294.778 326.887L294.32 329.111L293.646 332.376H338.495L339.628 326.887H294.778Z" fill="#00826F" stroke="#303030" stroke-width="2" stroke-miterlimit="10" stroke-linecap="round" stroke-linejoin="round"/>
<path d="M290.832 355.336C294.795 359.299 301.791 358.868 301.791 358.868L299.666 365.338C299.666 365.338 293.05 363.752 290.832 355.336Z" fill="#303030"/>
<path d="M294.808 355.336C297.695 356.632 301.444 353.348 301.037 349.819C300.77 347.507 298.148 347.547 297.249 349.259C296.65 350.402 296.743 352.239 297.05 353.495C297.847 356.758 302.783 357.706 303.876 354.167C304.639 351.697 302.871 347.586 305.404 347.018C306.975 346.666 308.734 349.114 310.204 350.836C311.52 352.377 313.432 353.67 315.059 353.512" stroke="#303030" stroke-width="2" stroke-miterlimit="10" stroke-linecap="round" stroke-linejoin="round"/>
<path d="M309.142 343.878L308.484 355.972" stroke="#303030" stroke-width="2" stroke-miterlimit="10" stroke-linecap="round" stroke-linejoin="round"/>
<path d="M316.24 344.404C313.506 341.109 311.397 345.992 312.503 348.82C313.235 350.688 314.852 350.879 315.714 349.077C316.455 347.526 316.24 345.29 316.24 343.857C316.24 345.362 316.071 346.798 317.236 347.966C319.223 349.957 319.086 345.322 319.264 344.004C319.428 342.788 319.885 339.18 321.538 341.099C322.69 342.436 322.545 344.847 323.444 346.344C323.527 345.12 323.312 339.651 325.443 340.329C326.776 340.753 326.918 343.763 327.788 344.715C327.999 342.767 327.481 341.104 328.199 339.193C328.826 337.521 329.748 335.975 330.808 338.278C332.144 341.183 331.725 345.072 333.723 347.691" stroke="#303030" stroke-width="2" stroke-miterlimit="10" stroke-linecap="round" stroke-linejoin="round"/>
<path d="M111.723 119.255L105.462 130.263L86.7954 115.078L107.015 142.181L107.038 142.212L113.3 131.203L131.966 146.388L111.723 119.255Z" fill="#FFC107"/>
<path d="M111.712 154.953V163.468L97.4023 160.798L116.078 169.916L116.099 169.927V161.412L130.41 164.082L111.712 154.953Z" fill="#FFC107"/>
<path d="M278.687 112.765L286.427 122.79L302.785 105.142L286.555 134.808L286.538 134.841L278.797 124.816L262.439 142.464L278.687 112.765Z" fill="#FFC107"/>
<path d="M287.238 145.675L285.806 154.068L300.36 153.844L280.416 159.689L280.393 159.696L281.826 151.302L267.271 151.526L287.238 145.675Z" fill="#FFC107"/>
<path d="M189.873 59.1751C184.927 58.3463 177.091 58.5192 171.198 59.1751C164.631 59.9056 155.093 61.601 151.578 64.9637C148.062 68.3265 154.975 70.9096 160.253 71.6243C168.282 72.7121 177.994 72.3389 185.769 70.6585C192.661 69.1685 198.641 64.8435 188.162 63.6704C180.022 62.7591 170.031 64.0278 162.828 66.2052C156.027 68.2606 149.214 73.5321 157.291 76.9634C164.481 80.0179 177.562 80.0074 185.12 77.4287C190.128 75.7192 188.572 74.0651 183.119 73.6639C178.89 73.353 172.976 73.8078 169.766 75.4506C164.697 78.0433 167.219 81.5658 172.611 82.8302C178.194 84.1384 185.406 83.0541 186.198 80.845C186.799 79.1698 179.141 79.744 176.14 82.5817C173.214 85.3492 174.789 88.1649 180.043 88.1026C181.68 88.0832 186.424 87.6688 187.269 85.9945C188.017 84.5133 184.548 84.6292 182.971 86.3659C180.313 89.2949 186.7 91.424 190.928 90.1501" stroke="#303030" stroke-width="2" stroke-miterlimit="10" stroke-linecap="round" stroke-linejoin="round"/>
</svg>
