<svg width="439" height="440" viewBox="0 0 439 440" fill="none" xmlns="http://www.w3.org/2000/svg">
<path d="M292.366 136.378C295.567 158.722 279.849 185.86 256.456 189.211C233.062 192.562 210.851 170.857 207.65 148.514C204.449 126.171 220.819 105.341 244.213 101.99C267.606 98.6392 289.165 114.035 292.366 136.378Z" fill="#303030"/>
<path d="M280.436 177.926C280.94 182.8 280.875 187.116 275.434 193.693L280.716 212.548L295.91 215.333C294.008 221.784 291.317 247.276 257.671 251.096C224.024 254.916 224.285 228.021 224.285 228.021L238.408 222.147L237.734 208.866C234.971 209.186 226.007 208.454 220.431 204.082C214.855 199.71 212.042 191.735 211.313 181.127C210.92 175.408 211.052 169.831 210.087 164.692C208.914 158.452 208.001 154.776 207.367 146.69C206.438 134.824 211.786 124.588 211.786 124.588C217.457 113.61 237.087 105.397 250.119 109.736C256.993 112.025 261.031 120.797 261.031 120.797C260.153 126.206 260.086 134.391 270.972 137.924C270.933 144.567 270.485 147.651 274.01 156.45C277.377 150.124 282.112 147.46 287.13 146.812C293.667 145.968 298.523 149.218 299.989 153.841C301.727 159.321 298.493 163.883 294.188 166.341C289.882 168.799 283.873 169.558 279.346 167.378C279.346 167.378 279.932 173.052 280.436 177.926Z" fill="#FFC4B0"/>
<path d="M237.734 208.864C246.996 208.859 260.132 205.492 266.772 200.583C263.262 208.225 251.546 214.427 238.111 216.319L237.734 208.864Z" fill="#303030"/>
<path d="M227.843 155.96C224.786 158.958 217.099 159.367 213.983 156.776" stroke="#303030" stroke-width="2" stroke-miterlimit="10" stroke-linecap="round" stroke-linejoin="round"/>
<path d="M227.049 141.858C225.299 146.931 216.465 143.782 211.624 149.643" stroke="#303030" stroke-width="2" stroke-miterlimit="10" stroke-linecap="round" stroke-linejoin="round"/>
<path d="M258.782 143.292C250.015 139.911 244.003 146.888 239.843 142.287" stroke="#303030" stroke-width="2" stroke-miterlimit="10" stroke-linecap="round" stroke-linejoin="round"/>
<path d="M234.107 146.483C232.46 151.66 231.24 158.085 229.86 164.697C229.141 168.143 230.029 173.058 237.083 172.524" stroke="#303030" stroke-width="2" stroke-miterlimit="10" stroke-linecap="round" stroke-linejoin="round"/>
<path d="M293.007 154.49C291.745 153.766 288.772 153.393 285.904 154.447C283.035 155.5 280.804 158.025 280.198 160.901" stroke="#303030" stroke-width="2" stroke-miterlimit="10" stroke-linecap="round" stroke-linejoin="round"/>
<path d="M288.275 158.134C287.346 157.607 284.132 156.343 281.279 158.234" stroke="#303030" stroke-width="2" stroke-miterlimit="10" stroke-linecap="round" stroke-linejoin="round"/>
<path d="M257.364 152.961C254.412 156.062 246.886 156.457 243.54 155.322" stroke="#303030" stroke-width="2" stroke-miterlimit="10" stroke-linecap="round" stroke-linejoin="round"/>
<path d="M236.536 183.493C239.389 180.723 245.043 178.208 249.795 178.093" stroke="#303030" stroke-width="2" stroke-miterlimit="10" stroke-linecap="round" stroke-linejoin="round"/>
<path d="M271.014 135.462C269.648 135.214 268.469 134.13 268.11 132.788C275.877 135.06 284.247 135.236 292.102 133.29C292.438 133.207 292.796 133.106 293.016 132.839C293.283 132.518 293.269 132.057 293.237 131.641C292.517 122.309 289.016 112.772 282.827 107.788C275.539 101.918 269.107 100.431 261.734 101.507C258.506 97.4593 250.462 89.4686 229.065 94.7831C215.117 98.2477 203.633 109.017 197.104 121.819C194.99 125.963 193.34 130.411 192.948 135.046C192.556 139.68 193.508 144.529 196.207 148.317C198.906 152.103 203.472 154.88 208.111 154.563L207.65 149.385C215.029 144.438 217.346 141.155 219.275 137.241C220.875 133.995 221.092 129.929 222.271 126.517C223.992 121.537 228.349 116.615 234.09 118.99C234.76 119.268 235.43 119.622 236.155 119.62C236.658 119.618 237.141 119.445 237.612 119.275C239.765 118.495 241.819 117.339 244.137 118.062C246.041 118.655 247.57 120.178 248.169 122.081C249.577 126.559 252.11 130.994 256.162 133.635C260.606 136.531 265.96 137.154 271.014 135.462Z" fill="#303030"/>
<path d="M121.38 301.261C131.022 308.062 151.743 303.204 165.422 299.552C178.583 296.038 197.182 291.507 197.182 291.507L198.294 229.992C178.163 235.382 154.364 242.897 126.806 257.615L121.38 301.261Z" fill="#1F1E7E"/>
<path d="M350.908 346.847L329.246 217.578L286.602 212.416C286.602 212.416 281.28 224.691 262.047 228.423C239.315 232.835 234.383 222.66 234.383 222.66C220.483 226.586 200.62 232.571 200.62 232.571C200.62 232.571 191.649 252.254 195.879 294.15C198.785 322.93 199.376 346.848 199.376 346.848" fill="white"/>
<path d="M350.908 346.847L329.246 217.578L286.602 212.416C286.602 212.416 281.28 224.691 262.047 228.423C239.315 232.835 234.383 222.66 234.383 222.66C220.483 226.586 200.62 232.571 200.62 232.571C200.62 232.571 191.649 252.254 195.879 294.15C198.785 322.93 199.376 346.848 199.376 346.848" stroke="#303030" stroke-width="2" stroke-miterlimit="10" stroke-linecap="round" stroke-linejoin="round"/>
<path d="M238.409 222.145C230.457 233.438 224.164 246.381 224.988 280.463C225.672 308.784 228.083 346.846 228.083 346.846H192.864C192.864 346.846 191.395 286.947 191.96 269.277C192.679 246.789 198.295 229.991 198.295 229.991L224.946 222.381C224.946 222.381 232.087 211.805 237.861 211.343L238.409 222.145Z" fill="#1F1E7E"/>
<path d="M192.864 346.847C192.864 346.847 191.395 286.948 191.96 269.278" stroke="#303030" stroke-width="2" stroke-miterlimit="10" stroke-linecap="round" stroke-linejoin="round"/>
<path d="M278.779 205.633L280.716 212.547C280.716 212.547 282.511 241.877 287.124 274.374C291.737 306.87 298.159 346.846 298.159 346.846H350.908L329.035 216.318L292.78 211.733C292.78 211.733 284.933 204.096 278.779 205.633Z" fill="#1F1E7E"/>
<path d="M293.439 213.647C299.907 224.017 306.393 253.406 306.393 253.406L294.791 281.024L303.439 294.659L296.689 311.323" stroke="#303030" stroke-width="2" stroke-miterlimit="10" stroke-linecap="round" stroke-linejoin="round"/>
<path d="M222.433 226.151C217.749 234.718 212.266 256.554 210.553 262.485L219.806 282.693L213.066 297.288L220.49 317.302" stroke="#303030" stroke-width="2" stroke-miterlimit="10" stroke-linecap="round" stroke-linejoin="round"/>
<path d="M425.654 347.21H13.356" stroke="#303030" stroke-width="2" stroke-miterlimit="10" stroke-linecap="round" stroke-linejoin="round"/>
<path d="M328.384 219.653C356.778 215.85 369.304 241.454 379.177 269.769C396.407 319.183 399.64 341.041 397.76 351.965L348.554 347.167C348.554 347.167 333.435 302.799 328.555 286.322C323.675 269.846 312.54 242.516 328.384 219.653Z" fill="#FFC4B0"/>
<path d="M329.035 216.319C351.637 217.947 360.721 222.31 371.265 243.025C385.614 271.215 397.253 319.184 397.253 319.184C397.253 319.184 404.239 328.082 397.033 332.8C361.746 312.41 340.135 320.377 340.135 320.377L334.939 321.04C330.745 318.037 333.938 312.347 333.086 308.836C331.116 300.225 326.999 286.464 325.095 278.067C320.779 259.035 313.892 232.027 329.035 216.319Z" fill="#1F1E7E"/>
<path d="M333.234 313.488C338.873 304.886 371.349 304.86 380.478 307.945" stroke="#303030" stroke-width="2" stroke-miterlimit="10" stroke-linecap="round" stroke-linejoin="round"/>
<path d="M334.938 321.038C330.745 318.035 333.938 312.345 333.086 308.834C331.116 300.223 326.999 286.462 325.094 278.065" stroke="#303030" stroke-width="2" stroke-miterlimit="10" stroke-linecap="round" stroke-linejoin="round"/>
<path d="M223.087 331.133C224.497 328.636 225.031 326.837 226.493 322.327C226.753 321.525 228.139 318.395 228.846 317.937C231.373 316.301 235.483 316.786 239.61 317.116L233.596 332.343C232.565 333.658 231.519 334.989 230.189 336.003C228.861 337.017 227.195 337.695 225.534 337.51C223.873 337.324 222.276 336.123 221.964 334.481C221.718 333.179 222.437 332.286 223.087 331.133Z" fill="#D48983"/>
<path d="M159.974 295.003C160.387 294.019 161.52 293.555 162.505 293.968L164.14 294.654C167.265 291.454 172.623 289.85 181.812 293.998C186.248 296.001 189.414 298.396 191.22 301.117C192.352 302.821 192.947 304.632 193.02 306.536C193.021 306.535 193.024 306.533 193.024 306.533C194.177 306.117 196.129 305.921 198.904 307.36C200.949 308.422 202.761 309.512 203.767 311.216C205.584 308.405 208.126 306.739 211.374 306.293C214.609 305.85 218.5 306.64 222.936 308.642C227.371 310.645 230.537 313.04 232.344 315.76C233.729 317.844 234.32 320.089 234.12 322.466L235.575 323.076C236.56 323.489 237.024 324.623 236.61 325.607C236.198 326.592 235.064 327.056 234.08 326.642L233.156 326.255C233.077 326.449 233.015 326.641 232.927 326.837C231.104 330.877 227.816 333.965 223.67 335.532C220.899 336.579 217.966 336.863 215.12 336.392C213.707 336.159 212.314 335.738 210.975 335.134C206.935 333.31 203.847 330.022 202.281 325.876C200.961 322.385 200.868 318.639 201.957 315.129C202.211 312.493 201.108 311.447 197.698 309.677C196.169 308.884 194.859 308.645 193.912 308.988C193.264 309.222 192.767 309.746 192.431 310.542C192.257 311.086 192.053 311.635 191.802 312.192C188.643 319.189 181.203 322.934 173.964 321.737C172.574 321.507 171.192 321.095 169.85 320.489C165.81 318.664 162.722 315.377 161.156 311.23C159.589 307.085 159.73 302.576 161.555 298.536C161.652 298.321 161.757 298.106 161.865 297.892L161.008 297.533C160.025 297.121 159.562 295.988 159.974 295.003ZM212.052 332.754C215.456 334.291 219.256 334.41 222.749 333.09C226.242 331.769 229.013 329.168 230.55 325.763C231.994 322.564 231.87 319.765 230.17 317.206C228.639 314.901 225.844 312.821 221.863 311.023C219.558 309.983 217.445 309.303 215.542 308.988C214.158 308.759 212.885 308.723 211.731 308.881C208.687 309.298 206.506 311.057 205.061 314.256C201.889 321.284 205.025 329.582 212.052 332.754ZM170.927 318.109C177.955 321.282 186.252 318.145 189.425 311.118C190.869 307.919 190.745 305.119 189.046 302.561C187.514 300.255 184.719 298.175 180.738 296.378C178.432 295.337 176.335 294.661 174.45 294.349C169.42 293.517 165.895 295.275 163.937 299.612C160.764 306.639 163.901 314.936 170.927 318.109Z" fill="#09090A"/>
<path d="M235.27 326.767C235.476 326.728 235.681 326.65 235.87 326.533L263.008 309.627C266.687 307.332 271.285 307.288 275.012 309.501L279.373 312.092C280.197 312.582 281.266 312.311 281.758 311.483C282.249 310.657 281.977 309.589 281.151 309.098L276.79 306.507C271.94 303.625 265.954 303.689 261.167 306.67L234.029 323.576C233.213 324.084 232.963 325.158 233.472 325.975C233.862 326.602 234.586 326.895 235.27 326.767Z" fill="#09090A"/>
<path d="M162.063 297.258C162.269 297.219 162.474 297.141 162.663 297.024L189.801 280.118C193.48 277.822 198.078 277.779 201.805 279.992L206.166 282.583C206.989 283.074 208.059 282.803 208.551 281.975C209.042 281.149 208.77 280.082 207.943 279.59L203.582 276.999C198.733 274.117 192.746 274.181 187.959 277.162L160.821 294.068C160.005 294.576 159.755 295.65 160.264 296.467C160.655 297.094 161.378 297.386 162.063 297.258Z" fill="#09090A"/>
<path d="M365.59 365.561C350.529 365.891 296.177 359.168 283.388 359.492C269.513 359.843 261.626 360.105 254.847 360.833C243.721 362.028 242.396 358.056 241.426 355.372C239.213 356.308 236.615 356.124 234.957 352.896C233.539 350.134 233.539 347.672 235.629 345.359C235.629 345.359 232.507 344.671 231.376 340.509C229.571 333.871 233.939 332.799 233.939 332.799C233.939 332.799 231.744 331.217 231.076 327.71C230.364 323.965 230.527 321.291 234.989 319.157C239.451 317.022 249.564 311.773 254.621 312.474C259.678 313.174 267.114 318.614 271.576 320.735C276.038 322.855 283.177 326.051 289.423 325.828C295.67 325.606 350.91 319.121 350.91 319.121C375.933 318.996 398.379 336.751 397.956 350.239C397.601 361.548 380.652 365.231 365.59 365.561Z" fill="#FFC4B0"/>
<path d="M251.708 325.629C243.688 327.635 241.056 328.445 233.94 332.799" stroke="#303030" stroke-width="2" stroke-miterlimit="10" stroke-linecap="round" stroke-linejoin="round"/>
<path d="M251.376 337.137C243.891 339.916 241.36 341.293 235.385 345.449" stroke="#303030" stroke-width="2" stroke-miterlimit="10" stroke-linecap="round" stroke-linejoin="round"/>
<path d="M254.464 349.042C249.047 351.433 245.082 352.207 241.427 355.373" stroke="#303030" stroke-width="2" stroke-miterlimit="10" stroke-linecap="round" stroke-linejoin="round"/>
<path d="M182.263 177.197C184.628 172.457 185.345 161.349 186.172 157.076C187 152.802 188.596 145.923 189.647 143.671C190.698 141.419 193.93 135.805 195.844 132.749C197.758 129.692 200.107 129.647 201.204 132.269C202.3 134.89 201.1 139.161 199.803 142.003C198.505 144.846 198.097 148.947 199.374 152.247C205.006 149.624 214.294 139.894 217.705 138.196C221.116 136.498 227.199 132.924 231.915 131.919C236.633 130.914 238.557 130.174 240.473 130.423C242.389 130.672 243.283 133.912 240.387 136.486C237.492 139.059 230.45 142.2 228.649 143.419C226.848 144.638 220.863 150.532 220.863 150.532C220.066 151.477 221.288 151.894 224.153 150.717C227.018 149.54 233.38 146.609 236.219 145.532C239.058 144.454 246.471 143.683 248.325 143.524C250.18 143.365 251.453 145.841 250.171 148.081C249.176 149.82 246.616 151.17 243.575 152.132C239.995 153.263 236.668 154.501 235.284 155.315C233.9 156.13 227.901 160.466 227.901 160.466C227.901 160.466 235.683 157.707 238.442 156.655C241.2 155.603 245.601 153.015 246.905 153.287C248.208 153.559 249.101 156.212 247.681 158.264C246.26 160.317 244.003 161.956 244.003 161.956C244.003 161.956 244.451 165.279 242.309 167.733C240.168 170.188 235.556 174.096 233.647 176.414C231.737 178.733 228.675 182.451 225.301 185.898C219.783 191.534 218.099 193.717 209.747 199C203.572 202.905 201.742 207.375 186.33 243.735C177.597 264.336 169.796 283.075 157.35 292.58C143.467 303.183 127.634 305.43 121.379 301.261C109.884 293.598 116.169 265.007 121.115 253.284C128.82 235.024 141.782 225.539 151.065 215.361C162.255 203.092 178.927 183.88 182.263 177.197Z" fill="#FFC4B0"/>
<path d="M199.375 152.247C205.007 149.624 214.295 139.894 217.706 138.196C221.117 136.498 227.2 132.924 231.916 131.919C236.634 130.914 238.558 130.174 240.474 130.423C242.39 130.672 243.284 133.912 240.388 136.486C237.493 139.059 230.451 142.2 228.65 143.419C226.849 144.638 220.864 150.532 220.864 150.532C220.067 151.477 221.289 151.894 224.154 150.717C227.019 149.54 233.381 146.609 236.22 145.532C239.059 144.454 246.472 143.683 248.326 143.524C250.181 143.365 251.454 145.841 250.172 148.081C249.177 149.82 246.617 151.17 243.576 152.131C239.996 153.263 236.669 154.501 235.285 155.315C233.901 156.13 227.902 160.466 227.902 160.466C227.902 160.466 235.684 157.707 238.443 156.655C241.201 155.603 245.602 153.015 246.906 153.287C248.209 153.559 249.102 156.212 247.682 158.264C246.261 160.317 244.004 161.956 244.004 161.956C244.004 161.956 244.452 165.279 242.31 167.733C240.169 170.188 235.557 174.096 233.648 176.414C231.738 178.733 228.676 182.451 225.301 185.898C219.784 191.533 218.1 193.717 209.748 199C203.573 202.905 201.743 207.375 186.331 243.735" stroke="#303030" stroke-width="2" stroke-miterlimit="10" stroke-linecap="round" stroke-linejoin="round"/>
<path d="M244.004 161.956C244.004 161.956 237.724 166.323 229.911 168.691L244.004 161.956Z" fill="#FFC4B0"/>
<path d="M244.004 161.956C244.004 161.956 237.724 166.323 229.911 168.691" stroke="#303030" stroke-width="2" stroke-miterlimit="10" stroke-linecap="round" stroke-linejoin="round"/>
<path d="M199.375 152.247L194.989 154.447" stroke="#303030" stroke-width="2" stroke-miterlimit="10" stroke-linecap="round" stroke-linejoin="round"/>
<path d="M238.152 365.337H151.149V373.309H246.124C246.124 368.906 242.554 365.337 238.152 365.337Z" fill="#303030"/>
<path d="M166.903 373.308H50.4157C48.2804 373.308 45.9194 370.776 45.1433 367.652L23.6911 281.356C22.9141 278.232 24.016 275.699 26.1513 275.699H142.639C144.774 275.699 147.135 278.232 147.911 281.356L169.364 367.652C170.14 370.776 169.039 373.308 166.903 373.308Z" fill="#07B3D4"/>
<path d="M87.1878 326.887C88.0886 331.143 93.0001 334.592 98.1575 334.592C103.316 334.592 106.767 331.143 105.866 326.887C104.966 322.631 100.054 319.181 94.8966 319.181C89.7384 319.181 86.287 322.631 87.1878 326.887Z" fill="white" stroke="#303030" stroke-width="2" stroke-miterlimit="10" stroke-linecap="round" stroke-linejoin="round"/>
<path d="M31.3875 269.475L34.4824 281.924H28.8597L25.7648 269.475H31.3875Z" fill="#00826F"/>
<path d="M41.1863 269.475L44.2812 281.924H38.6585L35.5636 269.475H41.1863Z" fill="#FF95FB"/>
<path d="M50.9846 269.475L54.0796 281.924H48.4569L45.3619 269.475H50.9846Z" fill="#303030"/>
<path d="M100.506 332.376H145.355C146.735 339.374 147.807 348.236 148.168 355.335C146.277 363.07 139.334 365.337 139.334 365.337H101.505C101.505 365.337 104.041 349.572 100.506 332.376Z" fill="#00826F" stroke="#303030" stroke-width="2" stroke-miterlimit="10" stroke-linecap="round" stroke-linejoin="round"/>
<path d="M144.222 326.887L144.681 329.111L145.355 332.376H100.506L99.3724 326.887H144.222Z" fill="#00826F" stroke="#303030" stroke-width="2" stroke-miterlimit="10" stroke-linecap="round" stroke-linejoin="round"/>
<path d="M148.168 355.336C144.205 359.299 137.209 358.868 137.209 358.868L139.334 365.338C139.334 365.338 145.95 363.752 148.168 355.336Z" fill="#303030"/>
<path d="M144.192 355.336C141.305 356.632 137.556 353.348 137.963 349.819C138.23 347.507 140.852 347.547 141.751 349.259C142.35 350.402 142.257 352.239 141.95 353.495C141.153 356.758 136.217 357.706 135.124 354.167C134.361 351.697 136.129 347.586 133.596 347.018C132.025 346.666 130.266 349.114 128.796 350.836C127.48 352.377 125.568 353.67 123.941 353.512" stroke="#303030" stroke-width="2" stroke-miterlimit="10" stroke-linecap="round" stroke-linejoin="round"/>
<path d="M129.858 343.878L130.516 355.972" stroke="#303030" stroke-width="2" stroke-miterlimit="10" stroke-linecap="round" stroke-linejoin="round"/>
<path d="M122.759 344.404C125.493 341.109 127.602 345.992 126.496 348.82C125.765 350.688 124.147 350.879 123.285 349.077C122.544 347.526 122.759 345.29 122.759 343.857C122.759 345.362 122.929 346.798 121.764 347.966C119.777 349.957 119.914 345.322 119.736 344.004C119.571 342.788 119.115 339.18 117.461 341.099C116.31 342.436 116.454 344.847 115.555 346.344C115.473 345.12 115.687 339.651 113.556 340.329C112.223 340.753 112.082 343.763 111.211 344.715C111 342.767 111.518 341.104 110.801 339.193C110.173 337.521 109.251 335.975 108.192 338.278C106.855 341.183 107.274 345.072 105.277 347.691" stroke="#303030" stroke-width="2" stroke-miterlimit="10" stroke-linecap="round" stroke-linejoin="round"/>
<path d="M327.277 119.255L333.538 130.263L352.205 115.078L331.985 142.181L331.962 142.212L325.7 131.203L307.034 146.388L327.277 119.255Z" fill="#FFC107"/>
<path d="M327.288 154.953V163.468L341.598 160.798L322.922 169.916L322.901 169.927V161.412L308.59 164.082L327.288 154.953Z" fill="#FFC107"/>
<path d="M160.313 112.765L152.573 122.79L136.215 105.142L152.445 134.808L152.462 134.841L160.203 124.816L176.561 142.464L160.313 112.765Z" fill="#FFC107"/>
<path d="M151.762 145.675L153.194 154.068L138.64 153.844L158.584 159.689L158.607 159.696L157.174 151.302L171.729 151.526L151.762 145.675Z" fill="#FFC107"/>
<path d="M249.127 59.1751C254.073 58.3463 261.909 58.5192 267.802 59.1751C274.369 59.9056 283.907 61.601 287.422 64.9637C290.938 68.3265 284.025 70.9096 278.747 71.6243C270.718 72.7121 261.006 72.3389 253.231 70.6585C246.339 69.1685 240.359 64.8435 250.838 63.6704C258.978 62.7591 268.969 64.0278 276.172 66.2052C282.973 68.2606 289.786 73.5321 281.709 76.9634C274.519 80.0179 261.438 80.0074 253.88 77.4287C248.872 75.7192 250.428 74.0651 255.881 73.6639C260.11 73.353 266.024 73.8078 269.234 75.4506C274.303 78.0433 271.781 81.5658 266.389 82.8302C260.806 84.1384 253.594 83.0541 252.802 80.845C252.201 79.1698 259.859 79.744 262.86 82.5817C265.786 85.3492 264.211 88.1649 258.957 88.1026C257.32 88.0832 252.576 87.6688 251.731 85.9945C250.983 84.5133 254.452 84.6292 256.029 86.3659C258.687 89.2949 252.3 91.424 248.072 90.1501" stroke="#303030" stroke-width="2" stroke-miterlimit="10" stroke-linecap="round" stroke-linejoin="round"/>
</svg>
