<svg width="18" height="18" viewBox="0 0 12 12" fill="none" xmlns="http://www.w3.org/2000/svg">
<path d="M7.67502 2.77506C7.29509 2.77499 6.93031 2.92405 6.65915 3.19016C6.38798 3.45628 6.2321 3.81819 6.22502 4.19806L6.21102 4.98556C6.21027 5.02788 6.20057 5.06957 6.18256 5.10788C6.16455 5.14619 6.13864 5.18025 6.10653 5.20783C6.07441 5.23541 6.03683 5.25588 5.99624 5.2679C5.95565 5.27992 5.91297 5.28321 5.87102 5.27756L5.09002 5.17106C4.06352 5.03106 3.07952 4.55856 2.13502 3.77206C1.83652 5.42706 2.42002 6.57356 3.82652 7.45806L4.70002 8.00706C4.74145 8.03312 4.77588 8.06892 4.8003 8.11134C4.82472 8.15376 4.83838 8.20151 4.84011 8.25042C4.84184 8.29934 4.83157 8.34793 4.8102 8.39197C4.78883 8.436 4.75701 8.47414 4.71752 8.50306L3.92152 9.08506C4.39502 9.11506 4.84452 9.09406 5.21752 9.02006C7.57652 8.54906 9.14502 6.77406 9.14502 3.84606C9.14502 3.60706 8.63852 2.77506 7.67502 2.77506ZM5.22502 4.18006C5.23375 3.69808 5.38447 3.22939 5.6583 2.83267C5.93214 2.43594 6.31692 2.12882 6.76448 1.94974C7.21204 1.77066 7.70248 1.7276 8.1744 1.82593C8.64631 1.92426 9.07874 2.15963 9.41752 2.50256C9.77302 2.50006 10.0755 2.59006 10.7515 2.17956C10.5845 2.99956 10.5015 3.35606 10.145 3.84556C10.145 7.66606 7.79652 9.52456 5.41302 10.0001C3.77952 10.3261 1.40302 9.79056 0.723022 9.07906C1.06952 9.05256 2.47952 8.90106 3.29452 8.30406C2.60452 7.84906 -0.139478 6.23406 1.66402 1.89306C2.51052 2.88156 3.36902 3.55406 4.23902 3.91156C4.81752 4.14906 4.96002 4.14406 5.22552 4.18056L5.22502 4.18006Z" fill="#147AFD"/>
</svg>
