<svg width="20" height="20" viewBox="0 0 20 20" fill="none" xmlns="http://www.w3.org/2000/svg">
<path d="M3.76018 16.2396C5.85352 18.2329 8.34601 17.4354 9.34351 16.6279C9.85851 16.2104 10.091 15.9404 10.2902 15.7404C10.9877 15.0929 10.9435 14.4446 10.4902 13.9263C10.3077 13.7188 9.14351 12.6004 8.02685 11.4538C7.44851 10.8754 7.05018 10.4671 6.70851 10.1371C6.25268 9.68211 5.85352 9.16045 5.25518 9.17545C4.70685 9.17545 4.30852 9.65878 3.80935 10.1579C3.23602 10.7313 2.81268 11.4538 2.66352 12.1021C2.21435 13.9963 2.91268 15.3421 3.76018 16.2396ZM3.76018 16.2396L1.66602 18.3329M16.2385 3.76295C14.1443 1.76795 11.6602 2.57961 10.6635 3.38795C10.1468 3.80628 9.91518 4.07628 9.71518 4.27628C9.01768 4.92461 9.06185 5.57295 9.51601 6.09128C9.58101 6.16628 9.77435 6.35795 10.0452 6.62795M16.2385 3.76295C17.086 4.66045 17.7935 6.02128 17.3443 7.91711C17.1943 8.56545 16.771 9.28795 16.1977 9.86211C15.6993 10.3604 15.3002 10.8446 14.7518 10.8446C14.1535 10.8596 13.8435 10.4263 13.386 9.97128M16.2385 3.76295L18.3327 1.66711M10.0452 6.62795C10.5293 7.10711 11.2643 7.82961 11.9793 8.56461C12.5577 9.14295 13.0443 9.64128 13.386 9.97045L12.0843 11.2404M10.0452 6.62795L8.75935 7.92128" stroke="white" stroke-width="1.5" stroke-linecap="round" stroke-linejoin="round"/>
</svg>
